<svg width="150" height="130" viewBox="0 0 150 130" fill="none" xmlns="http://www.w3.org/2000/svg">
<path d="M90.5241 77.4654C85.4627 88.588 93.0547 79.9799 120.971 88.8037C148.886 97.6275 153.219 106.519 145.954 115.15C138.689 123.78 112.17 128.361 92.1407 129.387C72.1113 130.414 53.7349 131.117 61.4965 120.281C69.258 109.445 37.728 110.954 18.9461 105.701C0.164212 100.449 -7.14076 90.885 16.6186 78.2572C24.4412 74.0965 26.5017 69.6052 26.0451 66.1999C23.4752 47.0406 95.765 65.9478 90.5241 77.4654Z" fill="#F8FBE6"/>
<path d="M84.9998 122.158C96.9959 122.158 106.721 121.1 106.721 119.795C106.721 118.491 96.9959 117.433 84.9998 117.433C73.0037 117.433 63.279 118.491 63.279 119.795C63.279 121.1 73.0037 122.158 84.9998 122.158Z" fill="#D8EFD5"/>
<path d="M55.6049 82.3563C55.6049 82.3563 55.5311 76.8015 65.2164 74.0769C72.2826 72.0889 80.7495 78.795 81.4165 81.0733C81.4165 81.0733 87.5341 77.1255 94.984 81.0733C102.434 85.0211 101.19 92.2268 99.5222 94.4117C99.5222 94.4117 103.968 92.6227 107.527 96.8235C110.492 100.323 109.304 105.134 109.304 105.134C109.304 105.134 114.795 105.923 115.435 110.289C116.233 115.722 111.559 118.42 104.925 118.42C98.292 118.42 73.9721 117.097 73.9721 117.097L45.5651 95.7591L46.409 91.1567C46.8264 88.8782 47.9433 86.7958 49.5969 85.2134C51.2504 83.631 53.3542 82.6313 55.6013 82.36L55.6049 82.3563Z" fill="#D8EFD5"/>
<path d="M57.9752 112.489H1.49106C1.49106 112.489 6.5351 101.205 9.56244 96.2232C10.3407 94.9421 10.9859 94.0756 11.3768 93.929C13.2906 93.2007 15.5232 97.9244 16.3206 96.7433C16.5594 96.3875 17.6611 94.3361 19.1074 91.6684C19.8966 90.2109 20.7906 88.5694 21.7028 86.9213C24.68 81.543 27.8513 76.09 28.2778 76.7315C29.0752 77.9183 32.9017 84.3676 34.019 83.0603C35.1362 81.7531 40.3981 68.0272 41.9928 69.4633C42.8057 70.1954 46.9139 76.7343 50.7413 82.9707C54.4266 88.9671 57.8567 94.6816 57.8567 94.6816L57.9752 112.489Z" fill="#BAD3DB"/>
<g opacity="0.61">
<path opacity="0.61" d="M7.74621 111.31C9.87227 108.905 11.6265 105.966 11.8926 107.353C12.1587 108.741 13.009 108.523 14.8161 104.711C16.6232 100.898 19.4938 98.3493 19.7599 100.033C20.026 101.716 18.6435 106.777 19.7599 107.95C20.8762 109.123 22.2404 106.755 23.9518 109.056C25.6633 111.356 30.5524 110.103 31.7744 105.147C32.9965 100.191 33.6226 100.245 34.2404 98.2298C34.8583 96.2148 34.4956 93.7637 34.6496 92.6199C34.8036 91.4761 35.7085 89.011 35.868 87.9512C36.0275 86.8915 36.7009 86.9746 36.6563 90.2305C36.6116 93.4864 37.3561 94.3034 37.1438 96.1009C36.9315 97.8983 39.2699 98.9021 40.8647 96.4137C42.4594 93.9253 45.2115 94.2493 45.8285 92.4518C46.4454 90.6544 48.1742 89.0577 48.2134 91.6264C48.2526 94.1951 48.7847 95.042 48.6781 96.7003C48.5715 98.3586 49.4874 102.878 50.1189 104.364C50.7504 105.851 50.1189 110.276 47.5408 110.457C44.9628 110.638 48.6781 112.004 39.4303 112.767C30.1824 113.53 14.7623 113.475 14.3386 113.421C13.9148 113.367 7.74621 111.31 7.74621 111.31Z" fill="#8AB0BD"/>
</g>
<path d="M7.44093 111.362C-0.949399 110.744 -2.73008 115.805 4.60588 116.497C11.9418 117.189 16.8282 117.129 14.3313 119.282C11.8343 121.435 30.4394 120.89 41.0706 120.89C51.7018 120.89 46.8929 115.935 46.265 114.001C45.6371 112.066 24.9115 111.422 20.231 111.362C15.5506 111.301 11.5864 111.667 7.44093 111.362Z" fill="#C0E1E6"/>
<path d="M71.0669 101.627C71.0669 101.627 75.4475 96.621 82.1128 97.6014C88.778 98.5818 94.4982 104.894 94.4982 104.894C94.4982 104.894 97.9967 103.114 101.19 103.857C108.153 105.479 106.384 111.968 106.384 111.968C106.384 111.968 108.103 111.968 109.325 113.32C110.672 114.814 111.877 118.465 103.744 118.465H76.1994L65.3367 110.902L71.0669 101.627Z" fill="#41AF92"/>
<path d="M71.6119 104.463C71.6119 104.463 75.2571 100.301 80.796 101.116C86.3348 101.931 91.0936 108.207 91.0936 108.207C91.0936 108.207 93.802 105.744 96.6589 106.319C103.2 107.633 100.976 113.063 100.976 113.063C100.976 113.063 102.405 113.063 103.421 114.184C104.542 115.422 105.542 118.461 98.7804 118.461H75.8795L66.8467 112.17L71.6119 104.463Z" fill="#5DBAA5"/>
<path d="M44.419 22.886L43.8413 23.4033L83.3442 69.7194L83.9219 69.2021L44.419 22.886Z" fill="#61B6CA"/>
<path d="M50.3039 70.947C50.3413 70.9656 50.3795 70.9878 50.4205 71.0129L50.3039 70.947Z" fill="#C0E1E6"/>
<path d="M91.0235 46.8138C91.0235 47.5776 90.9931 48.3333 90.9323 49.0809C90.0794 59.9402 83.1453 69.0385 73.6177 72.7977C72.5793 73.208 71.5167 73.5511 70.4363 73.8248C63.7679 75.5213 56.7203 74.5797 50.6994 71.188C51.8841 71.7744 50.2565 69.3457 51.0639 66.9722C51.926 64.4362 53.6055 60.5714 51.0639 61.0803C48.5223 61.5892 47.0114 61.1522 47.7832 60.0653C48.5551 58.9785 45.9451 57.8113 46.8719 56.1437C47.7987 54.476 48.361 53.9643 46.8719 53.4797C45.3829 52.9951 44.2474 55.5629 43.6724 54.3948C43.0973 53.2267 37.4227 54.2407 37.512 50.6225C37.5457 49.2219 37.2103 48.4385 36.6672 48.0697C36.6484 47.6433 36.6386 47.2141 36.638 46.7821C36.6347 42.9973 37.3853 39.2517 38.844 35.7746C40.3027 32.2974 42.4387 29.162 45.1213 26.5602C45.4786 26.211 45.8504 25.873 46.2222 25.5443C46.6845 25.1409 47.1611 24.7528 47.652 24.3799C48.3318 23.8626 49.036 23.3777 49.7644 22.9252C53.1586 20.8181 56.9635 19.5019 60.9096 19.0698C61.573 18.9951 62.2465 18.9465 62.9236 18.926C62.9236 18.926 63.5323 18.9148 63.8349 18.9148C64.398 18.9148 65.5089 19.0194 65.5089 19.0194H65.5226C69.7213 19.2773 73.8032 20.5371 77.4424 22.6983C85.562 27.5145 91.0235 36.5101 91.0235 46.8138Z" fill="#C0E1E6"/>
<path d="M49.0035 50.4236C49.2641 51.249 50.4096 51.996 49.8984 53.7972C49.3871 55.5984 51.2407 56.0895 51.4649 56.843C51.6891 57.5966 53.5107 58.3491 54.3136 58.8767C55.1165 59.4043 57.7984 59.2362 58.3415 59.662C58.8847 60.0878 60.3555 62.6751 60.8987 63.5594C61.4418 64.4436 61.6979 64.3129 62.0833 65.0664C62.4688 65.8199 62.3285 66.8349 63.0366 67.1953C63.7446 67.5558 64.0007 68.1123 64.193 68.2103C64.3853 68.3083 64.3206 67.5221 64.6723 67.8826C65.0241 68.243 65.7586 69.4223 66.4621 69.7827C67.1657 70.1431 67.9904 70.1749 68.4387 70.1749C68.8871 70.1749 69.4931 69.6511 69.4931 69.6511C69.4931 69.6511 68.7896 69.8154 68.3084 69.6184C67.8273 69.4214 67.6377 68.3111 67.6705 68.1123C67.7033 67.9134 66.8713 68.341 66.8713 67.8499C66.8713 67.3587 67.4181 66.9656 66.9032 66.636C66.3883 66.3064 65.7185 66.1122 66.104 65.9488C66.2504 65.8901 66.3815 65.7975 66.487 65.678C66.5925 65.5586 66.6694 65.4157 66.7118 65.2606C66.7756 65.0319 67.5429 64.607 67.7662 64.311C67.9895 64.015 67.9904 63.5248 67.8938 63.2961C67.7972 63.0673 66.6471 63.1644 66.9032 62.8703C67.1593 62.5762 68.2136 62.3791 68.2774 61.986C68.3412 61.5929 68.118 61.3324 68.2774 60.5117C68.4369 59.6909 68.8242 59.2343 68.8534 58.8085C68.8825 58.3828 67.7981 58.3501 68.2455 57.4005C68.693 56.4509 69.3008 56.1231 69.6845 55.4396C70.0681 54.7561 70.4828 53.18 70.0353 51.5096C69.5879 49.8391 69.5879 49.4787 69.7483 48.8568C69.9087 48.2349 69.7483 46.5636 69.4922 46.0724C69.2361 45.5813 68.118 46.1378 67.5101 45.909C66.9023 45.6803 66.2343 46.3675 65.6246 46.4693C65.015 46.571 64.9211 46.797 64.8573 46.9277C64.7935 47.0584 64.7935 46.4366 64.0581 46.5019C63.3227 46.5673 63.1632 46.5458 62.6201 46.7821C62.077 47.0183 61.3734 47.0883 60.7346 46.5019C60.0958 45.9156 59.5499 45.6887 58.4646 45.8661C57.3792 46.0435 58.4646 46.4366 57.0584 46.4039C55.6523 46.3712 55.8437 46.0846 54.9515 45.7988C54.0593 45.5131 54.0885 45.8717 53.5773 46.1331C53.066 46.3946 52.3926 46.5701 51.2753 46.7774C50.1581 46.9847 50.6046 47.5748 49.9649 47.9679C49.3252 48.361 48.6517 49.3106 49.0035 50.4236Z" fill="#5DBAA5"/>
<path d="M73.8236 72.4C73.7303 72.5109 73.6607 72.6407 73.6195 72.7809C72.5805 73.1912 71.5173 73.5343 70.4363 73.808C70.5274 73.612 70.8191 73.3328 71.7614 72.9369C72.9287 72.4439 73.0372 72.3477 73.1684 71.9042C73.2996 71.4606 72.433 71.8715 72.001 71.4784C71.5691 71.0853 72.1623 69.6109 72.8321 69.9844C72.9761 70.0656 72.5123 70.6053 72.3601 70.8677C72.2079 71.1301 72.5123 71.2291 72.998 71.0983C73.4837 70.9676 73.727 71.2776 74.1316 71.2776C74.5363 71.2776 74.2383 71.9742 73.8236 72.4Z" fill="#5DBAA5"/>
<path d="M47.2137 30.8059C46.8619 31.4595 47.7887 30.7732 48.0129 30.3475C48.2371 29.9217 48.3318 30.3148 48.4603 30.7686C48.5888 31.2224 48.9716 30.9703 49.3871 30.8059C49.8027 30.6416 49.2914 31.0356 49.0992 31.4287C48.9069 31.8218 48.5524 31.7229 47.6292 32.3457C46.7061 32.9685 46.9576 33.623 46.542 34.6053C46.1265 35.5876 45.4239 35.9125 45.7747 37.033C46.1256 38.1535 45.2635 38.6698 44.6247 39.3907C43.9858 40.1115 44.2729 40.5046 44.5928 41.0611C44.9126 41.6176 45.4558 42.6989 45.0721 42.7969C44.6885 42.895 44.241 41.6503 43.9211 41.4542C43.6013 41.2581 42.7702 41.8146 42.2908 42.3711C41.8115 42.9277 41.3002 42.8623 40.9804 43.2227C40.6605 43.5831 40.5648 45.417 40.6605 46.1948C40.7562 46.9726 40.9485 47.6113 41.3959 48.2004C41.8434 48.7896 42.2589 48.1678 42.7383 47.9717C43.2176 47.7756 42.8987 47.2508 42.8021 46.7821C42.7055 46.3134 43.09 45.8428 43.6013 45.6962C44.1125 45.5496 43.8255 46.3993 43.9211 47.0548C44.0168 47.7102 43.666 48.1678 44.1453 48.6262C44.6247 49.0847 44.4962 48.1678 44.6921 48.037C44.888 47.9063 45.6508 48.0044 45.8431 48.5609C46.0354 49.1174 46.162 50.0343 46.6095 50.264C47.0569 50.4937 47.1854 50.166 47.3449 50.0016C47.5044 49.8373 48.464 49.6748 48.3355 49.9363C48.207 50.1977 48.1441 49.9689 47.8242 50.166C47.5044 50.363 47.2775 51.0502 47.0897 50.9185C46.902 50.7869 45.9707 50.8532 45.5551 50.6244C45.1396 50.3957 44.9445 49.446 44.3048 49.5394C43.6651 49.6328 43.6979 49.8998 42.9625 49.5067C42.227 49.1136 42.227 49.2453 41.8753 49.3433C41.5235 49.4414 41.6201 50.0306 40.4691 49.9969C39.3182 49.9633 39.4786 48.6552 39.0949 47.8363C38.7112 47.0174 38.0715 46.4936 37.8801 45.4459C37.7334 44.6429 37.2012 43.9053 36.9388 42.7017C37.8256 36.5353 40.71 30.8536 45.1286 26.5696C45.1126 26.7162 45.1044 26.8637 45.104 27.0112C45.104 27.8628 44.5928 27.7311 44.0487 28.3185C43.5047 28.9058 42.659 29.3082 42.6745 29.988C42.69 30.6677 42.8987 30.5781 43.3461 30.6416C43.7936 30.7051 43.9211 30.6743 43.9211 31.1327C43.9211 31.5912 44.4679 31.6239 44.7204 31.3624C44.9728 31.101 44.8115 29.9534 45.4239 29.3642C46.0363 28.7751 45.5515 28.7424 45.5196 28.3166C45.4877 27.8908 46.0308 27.7564 46.3826 27.5631C46.7343 27.3698 46.7981 27.4977 47.3094 27.8581C47.8206 28.2186 48.1405 27.1373 48.3965 26.9076C48.6526 26.6779 48.8458 27.4333 49.4837 27.5967C50.1216 27.7601 50.6985 27.8917 50.2829 28.3175C49.8674 28.7433 49.7079 28.9711 49.1958 29.5202C48.6836 30.0692 48.5578 29.6276 48.1733 29.5286C47.7887 29.4296 47.57 30.1514 47.2137 30.8059Z" fill="#5DBAA5"/>
<path d="M52.8291 24.0699C53.169 24.8347 52.1912 24.7039 51.7629 24.5284C51.3346 24.3529 51.1031 24.5079 50.4224 24.0924C49.7416 23.6768 50.3996 23.7189 50.292 23.3286C50.2319 23.1082 50.0469 22.984 49.7708 22.9327C51.1317 22.087 52.5632 21.3668 54.0484 20.7804C54.0603 20.9503 54.073 21.1539 54.0858 21.3855C54.1277 22.1502 53.8297 22.1717 52.7188 22.9046C51.608 23.6376 52.491 23.3061 52.8291 24.0699Z" fill="#5DBAA5"/>
<path d="M48.1405 25.8384C47.9701 26.2763 47.8844 26.69 47.5026 26.7348C47.1207 26.7796 47.1608 26.4547 47.2292 26.1232C47.2975 25.7917 47.4005 25.5555 47.3367 25.5499C47.2729 25.5443 46.4199 25.9234 46.2349 25.5499C46.6967 25.1465 47.173 24.759 47.6639 24.3874C48.0758 24.8132 48.3164 24.5508 48.5296 25.14C48.7428 25.7292 48.3109 25.4024 48.1405 25.8384Z" fill="#5DBAA5"/>
<path d="M50.8042 28.6116C50.5991 28.8628 50.4634 29.2017 50.2073 29.5948C49.9512 29.9879 50.3349 29.6602 50.8889 29.5948C51.443 29.5294 51.5961 29.2447 51.5268 28.9608C51.4576 28.6769 51.022 28.3436 50.8042 28.6116Z" fill="#5DBAA5"/>
<path d="M56.2383 21.0353C56.2173 21.0829 56.1471 21.081 56.1025 21.1081C55.7853 21.3051 55.563 21.6301 55.7689 21.6684C56.0031 21.7122 56.025 21.5376 56.5153 21.2538C57.0056 20.9699 56.6638 21.1884 56.8133 20.7953C56.9627 20.4022 56.4907 20.4433 56.2383 21.0353Z" fill="#5DBAA5"/>
<path d="M91.0308 46.7783C91.0308 47.5421 91.0004 48.2978 90.9396 49.0454C90.6637 49.2224 90.3745 49.3766 90.0748 49.5067C89.2182 49.8736 88.8901 49.3106 88.6049 47.9679C88.3196 46.6252 88.3488 45.4132 87.5824 44.3319C86.816 43.2507 86.3977 41.7772 86.3676 40.3365C86.3376 38.8957 85.6003 38.2402 85.4727 37.356C85.3452 36.4718 82.9156 34.2448 82.1164 34.3755C81.3172 34.5063 81.7647 34.5072 80.9017 33.8844C80.0387 33.2616 80.0387 34.2448 79.8783 34.6706C79.7179 35.0964 78.8239 35.6529 78.3765 35.8844C77.929 36.116 77.3212 37.0311 76.2987 36.6706C75.2762 36.3102 75.3719 36.3102 74.7641 35.9825C74.1562 35.6547 73.7735 35.3606 73.1347 34.9022C72.4959 34.4437 71.4087 34.6398 71.0888 33.5268C70.7689 32.4138 70.5776 32.5762 70.2285 32.0524C69.8795 31.5286 69.6499 30.9394 69.4904 29.9235C69.3309 28.9076 69.874 28.056 69.8422 27.7292C69.8103 27.4024 68.9791 26.9103 68.9791 26.422C68.9791 25.9336 68.7869 25.407 68.7869 25.309C68.7869 25.2109 70.0627 24.8505 70.0335 24.6684C70.0044 24.4864 70.0016 24.0316 70.2285 23.8346C70.4555 23.6376 71.4132 22.9504 71.9199 22.8738C72.4266 22.7972 72.6553 23.0493 73.1046 23.4751C73.5539 23.9009 73.4554 23.5405 74.1909 23.4751C74.9263 23.4098 75.1177 23.4751 75.3418 23.3108C75.566 23.1465 75.2507 22.6236 75.7574 22.9504C76.0554 23.1371 76.6979 22.9326 77.4424 22.6534C85.5712 27.4668 91.0308 36.4671 91.0308 46.7783Z" fill="#5DBAA5"/>
<path d="M72.4011 21.2668C72.689 21.5292 72.5605 22.0857 72.4011 22.349C72.2416 22.6123 72.145 21.955 71.9855 21.6338C71.826 21.3126 71.4105 21.4638 70.7389 21.3649C70.0672 21.2659 70.0353 21.5619 69.6517 21.4965C69.268 21.4312 68.7887 21.0054 68.5016 21.2015C68.2146 21.3975 68.2137 21.8551 68.4059 22.0203C68.5982 22.1856 68.5654 22.2818 68.6611 22.6422C68.7568 23.0026 68.9491 23.5265 69.1723 23.7674C69.3956 24.0083 68.9172 24.4434 68.5344 24.8038C68.1517 25.1642 67.3197 24.3453 66.6207 23.9196C65.9217 23.4938 65.4706 23.6908 65.7896 23.2659C66.1086 22.8411 65.9281 22.8672 66.4612 22.6431C67.1647 22.349 66.9725 21.8579 66.1733 21.8243C65.374 21.7907 64.799 21.8906 64.9266 21.6375C65.0542 21.3845 64.8628 21.0091 64.9266 20.7141C64.9904 20.419 65.6301 20.419 65.6301 20.2229C65.6301 20.0268 64.9266 19.7645 64.9266 19.5348C64.9266 19.3051 65.2392 18.9325 65.5189 18.9325C68.1666 19.0954 70.7766 19.6563 73.265 20.5973C72.843 20.7439 72.5232 20.9484 72.2452 20.8448C71.8935 20.7141 70.4226 20.0259 70.7106 20.5002C70.9986 20.9746 72.1131 21.0054 72.4011 21.2668Z" fill="#5DBAA5"/>
<path d="M61.0381 20.4246C60.7647 20.8233 61.2459 20.4899 61.645 20.7514C62.0442 21.0128 62.2528 20.883 62.6474 20.9643C63.042 21.0455 63.5587 21.4722 64.1055 21.2099C64.6523 20.9475 64.7288 20.6365 63.9934 20.5385C63.258 20.4405 63.3154 20.2929 62.7276 20.2584C62.1398 20.2238 62.6028 20.8634 62.0442 20.5385C61.4855 20.2136 61.1483 20.2677 61.0381 20.4246Z" fill="#5DBAA5"/>
<path d="M63.0302 19.2715C63.0575 19.6973 62.4752 19.9101 61.9485 19.6319C61.4664 19.3779 61.0527 19.5759 60.9096 19.0717C61.573 18.997 62.2456 18.9484 62.9236 18.9279C62.9852 19.0321 63.0217 19.1499 63.0302 19.2715Z" fill="#5DBAA5"/>
<path d="M61.6295 21.2948C61.5466 21.575 61.7088 21.3051 62.0451 21.6758C62.3813 22.0465 62.94 21.8 62.8443 21.5703C62.7486 21.3406 61.7088 21.0184 61.6295 21.2948Z" fill="#5DBAA5"/>
<path d="M44.6775 44.671C45.0694 44.3722 45.9132 44.5944 46.1803 44.4525C46.4473 44.3105 46.6596 44.6458 47.3303 44.4525C48.001 44.2592 47.981 44.0612 47.981 43.8427C47.981 43.6242 47.8744 43.6467 46.8619 43.7008C45.8495 43.755 45.8285 43.5916 45.3382 43.9081C44.8479 44.2246 44.3048 44.9548 44.6775 44.671Z" fill="#5DBAA5"/>
<path d="M49.3762 43.3497C48.9078 43.5859 48.9606 43.6877 48.844 44.0593C48.7273 44.4309 48.1614 44.5505 48.4795 44.6196C48.7975 44.6886 48.7036 44.2927 49.0873 44.2461C49.471 44.1994 49.769 44.0593 50.1626 43.711C50.5563 43.3627 51.0584 43.4598 51.0685 43.274C51.0785 43.0882 50.3978 43.4048 50.1307 43.3945C49.8637 43.3842 49.6523 43.2115 49.3762 43.3497Z" fill="#5DBAA5"/>
<path d="M63.9916 77.8035C58.6326 77.8019 53.3677 76.3599 48.7227 73.6214C44.0777 70.8829 40.2152 66.9437 37.5208 62.1972C34.8265 57.4507 33.3945 52.0631 33.368 46.5722C33.3415 41.0813 34.7214 35.6793 37.3698 30.9058C39.9209 26.3307 43.5483 22.4821 47.9218 19.7103C48.0074 19.6561 48.1027 19.6198 48.2021 19.6033C48.3015 19.5868 48.4031 19.5906 48.5011 19.6143C48.5991 19.6381 48.6916 19.6814 48.7732 19.7417C48.8549 19.8021 48.9241 19.8784 48.977 19.9662C49.0299 20.054 49.0654 20.1516 49.0815 20.2534C49.0976 20.3553 49.0939 20.4594 49.0707 20.5598C49.0476 20.6602 49.0053 20.7549 48.9464 20.8386C48.8875 20.9223 48.813 20.9932 48.7273 21.0474C40.07 26.5266 34.9029 36.0133 34.9029 46.4254C34.9029 62.8591 47.9518 76.2311 63.9925 76.2311C68.3355 76.2392 72.6248 75.247 76.5431 73.3279C80.4615 71.4088 83.9088 68.6119 86.6301 65.1439C86.6921 65.0598 86.77 64.9894 86.8591 64.9367C86.9483 64.8841 87.0468 64.8504 87.1489 64.8376C87.251 64.8247 87.3546 64.8331 87.4535 64.8621C87.5524 64.8911 87.6446 64.9402 87.7246 65.0065C87.8046 65.0727 87.8708 65.1548 87.9192 65.2478C87.9677 65.3408 87.9973 65.4428 88.0065 65.5478C88.0157 65.6528 88.0042 65.7586 87.9726 65.8589C87.9411 65.9592 87.8902 66.052 87.823 66.1318C84.9581 69.7826 81.329 72.727 77.204 74.7473C73.079 76.7676 68.5636 77.812 63.9916 77.8035Z" fill="#164654"/>
<path d="M63.8759 76.6335H61.142V87.1847H63.8759V76.6335Z" fill="#164654"/>
<path d="M73.3479 84.6637H51.3592C50.4784 84.6637 49.7644 85.3953 49.7644 86.2977C49.7644 87.2002 50.4784 87.9318 51.3592 87.9318H73.3479C74.2287 87.9318 74.9427 87.2002 74.9427 86.2977C74.9427 85.3953 74.2287 84.6637 73.3479 84.6637Z" fill="#164654"/>
<g opacity="0.31">
<path opacity="0.31" d="M54.7456 27.0541C54.0739 29.1896 55.3124 30.1466 53.3276 32.3932C51.3428 34.6398 52.4063 36.2448 52.3352 37.9844C52.2641 39.7239 52.7544 41.0442 56.2656 41.3281C59.7768 41.6119 63.4384 40.033 64.9038 41.6577C66.3692 43.2824 69.2644 41.4009 72.3883 42.922C75.5122 44.443 72.494 49.8419 74.5344 51.1734C76.5748 52.5049 69.9123 55.4088 69.9123 57.2249C69.9123 59.041 71.0797 58.8524 69.4867 61.0737C67.8938 63.2951 74.5189 63.4464 73.9521 66.3269C73.3853 69.2075 77.3631 66.9245 79.9102 65.8871C82.4572 64.8498 84.7802 63.6947 85.8509 61.5126C86.9217 59.3305 89.2783 55.2034 87.9934 48.699C86.7085 42.1946 83.7331 39.2113 81.7483 39.7585C79.7634 40.3056 74.4971 38.7146 73.6577 37.9844C72.8184 37.2542 71.9673 37.3999 69.7701 35.5838C67.573 33.7677 69.7 34.7126 68.3531 32.0262C67.0062 29.3399 65.2109 29.0542 64.9038 27.0541C64.5967 25.0541 62.5153 22.4415 61.1483 22.1147C59.7814 21.7879 58.9339 20.686 57.9752 21.5264C57.0165 22.3668 54.854 23.3845 54.0922 23.8197C53.3303 24.2548 54.9561 26.3828 54.7456 27.0541Z" fill="#61B6CA"/>
</g>
<path d="M85.1948 3.61462C84.2133 3.5726 82.9822 4.04974 82.9822 4.04974C82.6641 2.23643 81.0147 0.424988 79.1547 0.424988C77.2947 0.424988 75.9114 2.06369 75.5952 3.8798C75.5952 3.8798 74.5016 3.59128 73.922 3.61742C72.3628 3.68839 71.097 4.91344 71.097 6.512C71.097 7.27968 71.3946 8.01593 71.9244 8.55877C72.4542 9.10161 73.1728 9.40657 73.922 9.40657H85.1948C85.944 9.40657 86.6626 9.10161 87.1924 8.55877C87.7222 8.01593 88.0198 7.27968 88.0198 6.512C88.0198 4.90691 86.7559 3.68185 85.1948 3.61462Z" fill="#C0E1E6"/>
<path d="M147.581 75.7773C146.482 75.6443 145.37 75.7229 144.3 76.0089C144.3 74.1825 142.855 72.4681 141.071 72.4681C139.288 72.4681 137.841 74.1825 137.841 76.0089C137.517 75.8558 137.165 75.7768 136.808 75.7773C135.148 75.809 134.386 76.8884 134.386 78.2582C134.386 78.9165 134.641 79.5477 135.095 80.0132C135.55 80.4786 136.166 80.7401 136.808 80.7401H147.583C148.224 80.7389 148.839 80.477 149.292 80.0121C149.745 79.5472 150 78.9171 150 78.2601C150 76.8903 148.906 75.9547 147.581 75.7773Z" fill="#C0E1E6"/>
<path d="M11.8835 47.191C13.0801 47.2461 14.2137 47.7708 14.2137 47.7708C14.2137 46.2769 15.1897 44.7773 16.6195 44.4841C18.2699 44.1461 19.5011 45.5952 19.5011 47.0892C19.7661 46.965 20.0544 46.9013 20.3458 46.9025C21.7037 46.9286 22.3261 47.811 22.3261 48.9315C22.3259 49.4694 22.1171 49.9853 21.7458 50.3656C21.3744 50.7459 20.8709 50.9595 20.3458 50.9595H12.3373C11.2438 50.9595 9.5588 50.051 9.5588 48.9315C9.5588 47.8073 10.7918 47.1406 11.8835 47.191Z" fill="#C0E1E6"/>
<path d="M124.837 121.876C130.754 121.876 135.551 120.818 135.551 119.513C135.551 118.209 130.754 117.151 124.837 117.151C118.92 117.151 114.123 118.209 114.123 119.513C114.123 120.818 118.92 121.876 124.837 121.876Z" fill="#D8EFD5"/>
<path d="M114.43 7.81738H98.0724C96.9022 7.81738 95.9536 8.78934 95.9536 9.98831V11.9025C95.9536 13.1014 96.9022 14.0734 98.0724 14.0734H114.43C115.6 14.0734 116.549 13.1014 116.549 11.9025V9.98831C116.549 8.78934 115.6 7.81738 114.43 7.81738Z" fill="#FAC14D"/>
<path d="M104.384 14.1192L98.4615 19.7552L99.2844 14.1192L103.082 12.8465L104.384 14.1192Z" fill="#FAC14D"/>
<path d="M113.626 9.77826H99.1504C99.0457 9.77826 98.9609 9.86521 98.9609 9.97248V10.1443C98.9609 10.2515 99.0457 10.3385 99.1504 10.3385H113.626C113.73 10.3385 113.815 10.2515 113.815 10.1443V9.97248C113.815 9.86521 113.73 9.77826 113.626 9.77826Z" fill="white"/>
<path d="M113.626 11.6456H99.1504C99.0457 11.6456 98.9609 11.7326 98.9609 11.8398V12.0117C98.9609 12.1189 99.0457 12.2059 99.1504 12.2059H113.626C113.73 12.2059 113.815 12.1189 113.815 12.0117V11.8398C113.815 11.7326 113.73 11.6456 113.626 11.6456Z" fill="white"/>
<path d="M41.3731 89.76C36.3938 91.9468 37.286 102.436 43.3999 111.092C45.587 114.188 48.3792 120.274 48.2298 116.526C48.1386 114.083 46.5402 109.596 45.8786 104.214C45.4357 100.602 45.6453 95.7097 46.1392 94.0449C47.2702 90.2408 43.995 88.6096 41.3731 89.76Z" fill="#5DBAA5"/>
<path d="M54.6007 93.2774C49.1912 92.9739 45.4503 102.781 47.1827 113.317C48.4776 121.195 51.4658 105.337 57.0193 99.285C59.6775 96.3886 57.4485 93.437 54.6007 93.2774Z" fill="#5DBAA5"/>
<path d="M26.3148 100.054C36.5925 99.4427 47.1508 112.467 47.59 116.003C48.0293 119.539 45.4667 117.912 44.5782 115.879C43.6897 113.846 38.4324 108.101 32.2164 107.5C25.666 106.866 23.108 107.921 21.9124 105.467C20.6128 102.797 24.4084 100.166 26.3148 100.054Z" fill="#5DBAA5"/>
<path d="M23.0451 117.936C26.1207 119.175 30.5241 113.929 35.9391 114.424C36.9968 114.512 38.0444 114.7 39.0685 114.985C42.2471 115.889 43.4427 117.477 44.6702 118.124C44.759 118.172 44.8503 118.214 44.9436 118.252C45.1624 118.341 45.3938 118.394 45.6289 118.409C46.3926 118.452 46.7708 118.293 46.9412 118.073C47.241 117.69 46.9129 117.123 46.9129 117.123C46.3662 116.107 45.3965 114.925 44.1171 113.779C43.0082 112.794 41.799 111.933 40.5102 111.213L40.3835 111.142C37.3662 109.482 33.6599 108.446 29.8379 109.124C24.2617 110.115 21.2827 113.428 21.4002 115.783C21.4485 116.723 21.9862 117.509 23.0451 117.936Z" fill="#5DBAA5"/>
<path d="M30.2207 121.424C32.1763 122.737 33.6207 120.794 36.9971 118.642C39.7492 116.888 42.7966 117.745 43.8318 118.121C44.0828 118.212 44.3555 118.22 44.611 118.144L45.8249 117.781C45.8086 117.66 45.7601 117.545 45.6845 117.45C45.577 117.298 45.4498 117.163 45.3063 117.047C45.1751 116.938 45.0369 116.839 44.8926 116.749C44.0205 116.199 42.3355 115.525 39.073 114.986C32.3312 113.874 28.2669 120.109 30.2207 121.424Z" fill="#5DBAA5"/>
<path d="M23.0451 117.936C26.1207 119.175 30.5241 113.929 35.9391 114.424C36.9968 114.512 38.0444 114.7 39.0685 114.985C32.3312 113.87 28.2669 120.109 30.2207 121.427C32.1745 122.746 33.6207 120.798 36.9971 118.646C39.5897 116.993 42.4448 117.658 43.6304 118.055C44.1081 118.216 44.6011 118.326 45.1013 118.381C45.3692 118.41 45.587 118.428 45.5679 118.409C45.063 117.902 44.9491 117.185 44.8899 116.752C44.8716 116.626 44.8525 116.5 44.8297 116.379C44.6879 115.63 44.4992 114.891 44.2647 114.167C44.2253 114.039 44.1766 113.914 44.1189 113.793C43.5721 112.635 42.2453 111.739 40.512 111.227L40.4509 111.21C37.0117 110.217 32.0159 110.729 28.3917 113.704C22.7134 118.368 21.402 115.794 21.402 115.794C21.4485 116.723 21.9862 117.509 23.0451 117.936Z" fill="#41AF92"/>
<path d="M92.7513 99.9768C93.7543 99.9768 94.7163 100.385 95.4255 101.112C96.1348 101.838 96.5332 102.824 96.5332 103.852C96.5332 104.88 96.1348 105.865 95.4255 106.592C94.7163 107.319 93.7543 107.727 92.7513 107.727H43.0983V106.98H44.591C45.175 106.693 45.6679 106.242 46.013 105.681C46.358 105.119 46.5411 104.469 46.5411 103.805C46.5411 103.141 46.358 102.491 46.013 101.93C45.6679 101.368 45.175 100.917 44.591 100.63H43.0983V99.9768H92.7513Z" fill="#FAC14D"/>
<path d="M43.132 107.353H69.2862C70.1926 107.353 71.0618 106.984 71.7027 106.328C72.3436 105.671 72.7036 104.78 72.7036 103.852C72.7036 102.923 72.3436 102.033 71.7027 101.376C71.0618 100.719 70.1926 100.35 69.2862 100.35H43.132C44.0383 100.35 44.9075 100.719 45.5484 101.376C46.1893 102.033 46.5493 102.923 46.5493 103.852C46.5493 104.78 46.1893 105.671 45.5484 106.328C44.9075 106.984 44.0383 107.353 43.132 107.353Z" fill="white"/>
<path d="M42.2945 107.727H69.4758C71.343 107.727 73.0918 106.177 73.2878 104.272C73.3451 103.731 73.2905 103.183 73.1277 102.665C72.9648 102.147 72.6973 101.67 72.3425 101.265C71.9877 100.86 71.5536 100.535 71.0685 100.314C70.5834 100.092 70.0581 99.977 69.5268 99.9769H42.2908C42.222 99.9755 42.1544 99.9948 42.0961 100.032C42.0378 100.07 41.9915 100.124 41.9628 100.188C41.9358 100.245 41.9235 100.308 41.9271 100.372C41.9306 100.435 41.9499 100.497 41.9831 100.55C42.0163 100.604 42.0624 100.648 42.1168 100.679C42.1713 100.709 42.2325 100.724 42.2945 100.724H69.5487C70.3434 100.724 71.1067 101.042 71.6766 101.61C72.2464 102.177 72.5779 102.95 72.6006 103.764C72.648 105.538 71.2091 106.98 69.4785 106.98H42.2908C42.222 106.979 42.1544 106.998 42.0961 107.035C42.0378 107.073 41.9915 107.127 41.9628 107.191C41.9358 107.248 41.9235 107.311 41.9271 107.375C41.9306 107.438 41.9499 107.5 41.9831 107.553C42.0163 107.607 42.0624 107.651 42.1168 107.682C42.1713 107.712 42.2325 107.727 42.2945 107.727Z" fill="#FAD382"/>
<path d="M50.0961 107.727H99.4885C99.6171 107.724 99.742 107.77 99.8392 107.857C99.9364 107.943 99.9988 108.063 100.014 108.194C100.021 108.265 100.012 108.336 99.99 108.404C99.9677 108.472 99.9319 108.534 99.885 108.587C99.838 108.639 99.7808 108.681 99.7171 108.71C99.6534 108.739 99.5846 108.754 99.5149 108.754H97.4454C95.9481 109.653 95.3603 111.611 95.3603 113.89C95.3603 116.168 95.9481 118.124 97.4445 119.025H99.4903C99.6189 119.022 99.7439 119.068 99.841 119.155C99.9382 119.241 100.001 119.361 100.016 119.492C100.022 119.563 100.014 119.635 99.9918 119.702C99.9695 119.77 99.9338 119.832 99.8868 119.885C99.8398 119.937 99.7827 119.979 99.719 120.008C99.6553 120.037 99.5864 120.052 99.5168 120.052H50.0952C48.5 120.052 46.9702 119.403 45.8423 118.247C44.7143 117.091 44.0806 115.524 44.0806 113.89C44.0806 112.255 44.7143 110.688 45.8423 109.532C46.9702 108.376 48.5 107.727 50.0952 107.727H50.0961Z" fill="#D3C5F6"/>
<path d="M99.1432 108.194V108.713C98.3197 109.276 97.6446 110.039 97.1777 110.934C96.7108 111.829 96.4666 112.828 96.4666 113.842C96.4666 114.857 96.7108 115.856 97.1777 116.751C97.6446 117.645 98.3197 118.408 99.1432 118.972V119.492H68.3804C65.477 119.492 63.1222 116.963 63.1222 113.841C63.1157 112.356 63.6668 110.926 64.6614 109.847C65.139 109.327 65.7151 108.912 66.3546 108.628C66.994 108.343 67.6834 108.196 68.3804 108.194H99.1432Z" fill="#FCF3F8"/>
<path d="M99.1432 108.194V108.713C98.3197 109.276 97.6446 110.039 97.1777 110.934C96.7108 111.829 96.4666 112.828 96.4666 113.842C96.4666 114.857 96.7108 115.856 97.1777 116.751C97.6446 117.645 98.3197 118.408 99.1432 118.972V119.492H68.3804C65.477 119.492 63.1222 116.963 63.1222 113.841C63.1157 112.356 63.6668 110.926 64.6614 109.847C65.139 109.327 65.7151 108.912 66.3546 108.628C66.994 108.343 67.6834 108.196 68.3804 108.194H99.1432Z" fill="white"/>
<path d="M66.0539 114.17H94.0307C94.0681 114.17 94.1045 114.158 94.1352 114.136C94.1658 114.114 94.1892 114.083 94.2021 114.047C94.212 114.02 94.2154 113.99 94.2122 113.961C94.2089 113.932 94.199 113.904 94.1833 113.88C94.1677 113.856 94.1466 113.835 94.1218 113.821C94.097 113.806 94.0693 113.798 94.0408 113.796H66.0639C66.0265 113.796 65.9901 113.808 65.9594 113.83C65.9288 113.852 65.9055 113.883 65.8926 113.918C65.8827 113.946 65.8792 113.975 65.8825 114.004C65.8857 114.033 65.8956 114.061 65.9113 114.086C65.927 114.11 65.9481 114.131 65.9728 114.145C65.9976 114.16 66.0254 114.168 66.0539 114.17Z" fill="#C0E1E6"/>
<path d="M66.3428 115.944H94.3196C94.357 115.944 94.3935 115.932 94.4241 115.91C94.4547 115.889 94.4781 115.858 94.491 115.822C94.5009 115.794 94.5043 115.765 94.501 115.735C94.4977 115.706 94.4878 115.678 94.472 115.654C94.4562 115.629 94.435 115.609 94.4101 115.595C94.3852 115.58 94.3573 115.572 94.3287 115.57H66.3519C66.3145 115.57 66.2781 115.582 66.2474 115.604C66.2168 115.626 66.1934 115.657 66.1805 115.693C66.1706 115.72 66.1672 115.75 66.1705 115.779C66.1738 115.808 66.1837 115.836 66.1995 115.86C66.2153 115.885 66.2365 115.905 66.2614 115.92C66.2863 115.934 66.3142 115.943 66.3428 115.944Z" fill="#C0E1E6"/>
<path d="M66.3428 112.302H94.3196C94.357 112.302 94.3935 112.291 94.4241 112.269C94.4547 112.247 94.4781 112.216 94.491 112.18C94.5009 112.152 94.5043 112.123 94.501 112.094C94.4977 112.065 94.4878 112.037 94.472 112.012C94.4562 111.988 94.435 111.967 94.4101 111.953C94.3852 111.938 94.3573 111.93 94.3287 111.929H66.3519C66.3145 111.929 66.2781 111.94 66.2474 111.962C66.2168 111.984 66.1934 112.015 66.1805 112.051C66.1706 112.079 66.1672 112.108 66.1705 112.137C66.1738 112.166 66.1837 112.194 66.1995 112.219C66.2153 112.243 66.2365 112.263 66.2614 112.278C66.2863 112.293 66.3142 112.301 66.3428 112.302Z" fill="#C0E1E6"/>
<path d="M67.3552 117.624H95.3321C95.3695 117.625 95.4059 117.613 95.4366 117.591C95.4672 117.569 95.4905 117.538 95.5034 117.502C95.5133 117.475 95.5168 117.445 95.5135 117.416C95.5103 117.387 95.5004 117.359 95.4847 117.335C95.469 117.31 95.4479 117.29 95.4232 117.275C95.3984 117.261 95.3706 117.253 95.3421 117.251H67.3652C67.3279 117.251 67.2914 117.263 67.2608 117.284C67.2301 117.306 67.2068 117.337 67.1939 117.373C67.184 117.401 67.1806 117.43 67.1838 117.459C67.1871 117.488 67.1969 117.516 67.2126 117.541C67.2283 117.565 67.2494 117.585 67.2742 117.6C67.2989 117.615 67.3267 117.623 67.3552 117.624Z" fill="#C0E1E6"/>
<path d="M67.3552 110.435H95.3321C95.3695 110.435 95.4059 110.423 95.4366 110.401C95.4672 110.379 95.4905 110.348 95.5034 110.312C95.5133 110.285 95.5168 110.255 95.5135 110.226C95.5103 110.197 95.5004 110.169 95.4847 110.145C95.469 110.121 95.4479 110.1 95.4232 110.086C95.3984 110.071 95.3706 110.063 95.3421 110.061H67.3652C67.3279 110.061 67.2914 110.073 67.2608 110.095C67.2301 110.117 67.2068 110.148 67.1939 110.183C67.184 110.211 67.1806 110.24 67.1838 110.269C67.1871 110.298 67.1969 110.326 67.2126 110.351C67.2283 110.375 67.2494 110.396 67.2742 110.41C67.2989 110.425 67.3267 110.433 67.3552 110.435Z" fill="#C0E1E6"/>
<path d="M100.069 120.052H68.1462C67.3489 120.051 66.5597 119.888 65.8245 119.572C65.0892 119.256 64.4224 118.794 63.8629 118.212C63.3034 117.63 62.8623 116.94 62.5651 116.182C62.2679 115.424 62.1205 114.613 62.1316 113.796C62.1799 110.412 64.9384 107.727 68.2419 107.727H100.046C100.175 107.724 100.3 107.771 100.397 107.857C100.494 107.943 100.556 108.063 100.572 108.194C100.578 108.265 100.57 108.336 100.548 108.404C100.525 108.472 100.49 108.534 100.443 108.586C100.396 108.639 100.339 108.681 100.275 108.71C100.211 108.739 100.142 108.754 100.073 108.754H68.159C67.4525 108.755 66.7541 108.908 66.1096 109.205C65.465 109.501 64.8888 109.934 64.4187 110.474C63.9486 111.014 63.5951 111.65 63.3814 112.34C63.1677 113.03 63.0987 113.759 63.1787 114.478C63.4631 117.082 65.6611 119.025 68.2191 119.025H100.043C100.171 119.022 100.296 119.069 100.393 119.155C100.49 119.241 100.553 119.361 100.568 119.492C100.575 119.563 100.566 119.635 100.544 119.702C100.522 119.77 100.486 119.832 100.439 119.885C100.392 119.937 100.335 119.979 100.271 120.008C100.208 120.037 100.139 120.052 100.069 120.052Z" fill="#61B6CA"/>
<path d="M69.7474 104.085H48.3036C48.2307 104.085 48.1724 104.001 48.1724 103.899C48.1724 103.796 48.2307 103.712 48.3036 103.712H69.7474C69.8203 103.712 69.8786 103.795 69.8786 103.899C69.8786 104.002 69.8203 104.085 69.7474 104.085Z" fill="#C0E1E6"/>
<path d="M69.5323 105.859H48.0849C48.012 105.859 47.9537 105.775 47.9537 105.673C47.9537 105.57 48.012 105.486 48.0849 105.486H69.5323C69.6052 105.486 69.6644 105.569 69.6644 105.673C69.6644 105.776 69.6007 105.859 69.5323 105.859Z" fill="#C0E1E6"/>
<path d="M69.5323 102.218H48.0849C48.012 102.218 47.9537 102.134 47.9537 102.031C47.9537 101.928 48.012 101.844 48.0849 101.844H69.5323C69.6052 101.844 69.6644 101.927 69.6644 102.031C69.6644 102.135 69.6007 102.218 69.5323 102.218Z" fill="#C0E1E6"/>
<path d="M48.7146 98.9498H50.7869C52.2832 98.0506 52.871 96.0926 52.871 93.8142C52.871 91.5359 52.2832 89.576 50.7869 88.6787H48.741C48.6126 88.6813 48.4879 88.635 48.3909 88.5487C48.2939 88.4625 48.2316 88.3425 48.2161 88.2119C48.2096 88.1408 48.2177 88.0691 48.2398 88.0015C48.2619 87.9338 48.2976 87.8716 48.3445 87.8189C48.3914 87.7661 48.4486 87.724 48.5123 87.6952C48.576 87.6664 48.6449 87.6516 48.7146 87.6516H98.0405C101.343 87.6516 104.102 90.3389 104.146 93.7209C104.157 94.5377 104.01 95.3488 103.713 96.1069C103.416 96.865 102.975 97.555 102.415 98.137C101.856 98.7191 101.189 99.1814 100.453 99.4972C99.7181 99.8131 98.9289 99.9761 98.1316 99.9769H48.7392C48.6108 99.9795 48.486 99.9332 48.3891 99.8469C48.2921 99.7607 48.2298 99.6406 48.2143 99.51C48.2078 99.4388 48.2159 99.367 48.2381 99.2992C48.2604 99.2314 48.2962 99.1691 48.3433 99.1163C48.3904 99.0636 48.4478 99.0215 48.5117 98.9928C48.5757 98.9641 48.6448 98.9495 48.7146 98.9498Z" fill="#E587AB"/>
<path d="M50.1152 88.2118V88.7309C50.9399 89.2936 51.6161 90.0562 52.0838 90.9511C52.5515 91.8459 52.7962 92.8453 52.7962 93.8604C52.7962 94.8755 52.5515 95.8749 52.0838 96.7698C51.6161 97.6646 50.9399 98.4273 50.1152 98.9899V99.51H80.8789C83.7814 99.51 86.1362 96.9814 86.1362 93.859C86.143 92.3748 85.5922 90.9448 84.5979 89.8654C84.1202 89.3453 83.5441 88.9304 82.9046 88.6461C82.2652 88.3618 81.5759 88.214 80.8789 88.2118H50.1152Z" fill="#FCF3F8"/>
<path d="M49.933 88.2118V88.7309C50.7576 89.2936 51.4338 90.0562 51.9015 90.9511C52.3692 91.8459 52.614 92.8453 52.614 93.8604C52.614 94.8755 52.3692 95.8749 51.9015 96.7698C51.4338 97.6646 50.7576 98.4273 49.933 98.9899V99.51H80.6966C83.5991 99.51 85.9539 96.9814 85.9539 93.859C85.9607 92.3748 85.4099 90.9448 84.4156 89.8654C83.938 89.3453 83.3618 88.9304 82.7224 88.6461C82.083 88.3618 81.3937 88.214 80.6966 88.2118H49.933Z" fill="white"/>
<path d="M48.361 99.9769H80.2856C81.083 99.9761 81.8722 99.8131 82.6075 99.4973C83.3429 99.1814 84.0097 98.7191 84.5692 98.1371C85.1287 97.5551 85.5699 96.865 85.8671 96.1069C86.1642 95.3488 86.3114 94.5378 86.3002 93.7209C86.2528 90.337 83.4934 87.6516 80.1945 87.6516H48.3902C48.2616 87.6488 48.1366 87.695 48.0395 87.7813C47.9423 87.8675 47.8799 87.9877 47.8643 88.1185C47.8581 88.1896 47.8665 88.2612 47.8887 88.3288C47.911 88.3964 47.9468 88.4585 47.9937 88.5112C48.0407 88.5639 48.0978 88.606 48.1615 88.6348C48.2252 88.6637 48.2941 88.6786 48.3637 88.6787H80.2702C80.9767 88.6793 81.6752 88.8328 82.3198 89.1291C82.9645 89.4255 83.5408 89.858 84.011 90.3983C84.4813 90.9386 84.8348 91.5746 85.0486 92.2647C85.2623 92.9547 85.3314 93.6832 85.2513 94.4025C84.967 97.0067 82.768 98.9498 80.2109 98.9498H48.3902C48.2616 98.947 48.1366 98.9932 48.0395 99.0795C47.9423 99.1657 47.8799 99.2859 47.8643 99.4167C47.8582 99.4875 47.8664 99.5589 47.8885 99.6263C47.9106 99.6937 47.9461 99.7557 47.9928 99.8084C48.0395 99.861 48.0963 99.9032 48.1597 99.9322C48.223 99.9612 48.2916 99.9764 48.361 99.9769Z" fill="#E95F5D"/>
<path d="M54.4585 94.0009H82.4354C82.4727 94.001 82.5092 93.9893 82.5398 93.9674C82.5705 93.9455 82.5938 93.9145 82.6067 93.8786C82.6166 93.8512 82.6201 93.8217 82.6168 93.7927C82.6136 93.7636 82.6037 93.7357 82.588 93.7113C82.5723 93.6868 82.5512 93.6665 82.5265 93.652C82.5017 93.6374 82.4739 93.629 82.4454 93.6274H54.4685C54.4312 93.6274 54.3947 93.6391 54.3641 93.661C54.3334 93.6828 54.3101 93.7138 54.2972 93.7498C54.2873 93.7772 54.2838 93.8067 54.2871 93.8357C54.2903 93.8648 54.3002 93.8927 54.3159 93.9171C54.3316 93.9415 54.3527 93.9619 54.3775 93.9764C54.4022 93.991 54.43 93.9994 54.4585 94.0009Z" fill="#C0E1E6"/>
<path d="M54.1733 95.7751H82.1502C82.1875 95.7752 82.224 95.7635 82.2546 95.7416C82.2852 95.7197 82.3086 95.6887 82.3215 95.6528C82.3314 95.6253 82.3348 95.5959 82.3316 95.5668C82.3283 95.5378 82.3184 95.5099 82.3028 95.4854C82.2871 95.461 82.266 95.4407 82.2412 95.4261C82.2164 95.4116 82.1887 95.4032 82.1602 95.4016H54.1833C54.1459 95.4016 54.1095 95.4133 54.0788 95.4351C54.0482 95.457 54.0248 95.488 54.012 95.5239C54.0021 95.5514 53.9986 95.5808 54.0019 95.6099C54.0051 95.639 54.015 95.6668 54.0307 95.6913C54.0464 95.7157 54.0675 95.736 54.0922 95.7506C54.117 95.7652 54.1447 95.7736 54.1733 95.7751Z" fill="#C0E1E6"/>
<path d="M54.1733 92.1335H82.1502C82.1875 92.1336 82.224 92.1219 82.2546 92.1C82.2852 92.0781 82.3086 92.0471 82.3215 92.0112C82.3314 91.9837 82.3348 91.9543 82.3316 91.9252C82.3283 91.8962 82.3184 91.8683 82.3028 91.8438C82.2871 91.8194 82.266 91.7991 82.2412 91.7845C82.2164 91.77 82.1887 91.7616 82.1602 91.76H54.1833C54.1459 91.76 54.1095 91.7717 54.0788 91.7935C54.0482 91.8154 54.0248 91.8464 54.012 91.8823C54.0021 91.9098 53.9986 91.9392 54.0019 91.9683C54.0051 91.9974 54.015 92.0252 54.0307 92.0497C54.0464 92.0741 54.0675 92.0944 54.0922 92.109C54.117 92.1236 54.1447 92.132 54.1733 92.1335Z" fill="#C0E1E6"/>
<path d="M53.1572 97.4558H81.1341C81.1714 97.4558 81.2079 97.4441 81.2385 97.4222C81.2692 97.4004 81.2925 97.3694 81.3054 97.3334C81.3153 97.306 81.3187 97.2766 81.3155 97.2475C81.3122 97.2184 81.3024 97.1905 81.2867 97.1661C81.271 97.1417 81.2499 97.1213 81.2251 97.1068C81.2004 97.0922 81.1726 97.0838 81.1441 97.0823H53.1672C53.1298 97.0822 53.0934 97.0939 53.0627 97.1158C53.0321 97.1377 53.0088 97.1687 52.9959 97.2046C52.986 97.232 52.9825 97.2615 52.9858 97.2905C52.989 97.3196 52.9989 97.3475 53.0146 97.3719C53.0303 97.3964 53.0514 97.4167 53.0761 97.4312C53.1009 97.4458 53.1287 97.4542 53.1572 97.4558Z" fill="#C0E1E6"/>
<path d="M53.1572 90.3595H81.1341C81.1714 90.3595 81.2079 90.3478 81.2385 90.3259C81.2692 90.3041 81.2925 90.2731 81.3054 90.2371C81.3153 90.2097 81.3187 90.1803 81.3155 90.1512C81.3122 90.1221 81.3024 90.0942 81.2867 90.0698C81.271 90.0454 81.2499 90.025 81.2251 90.0105C81.2004 89.9959 81.1726 89.9875 81.1441 89.986H53.1672C53.1298 89.9859 53.0934 89.9976 53.0627 90.0195C53.0321 90.0414 53.0088 90.0724 52.9959 90.1083C52.986 90.1357 52.9825 90.1652 52.9858 90.1942C52.989 90.2233 52.9989 90.2512 53.0146 90.2756C53.0303 90.3001 53.0514 90.3204 53.0761 90.335C53.1009 90.3495 53.1287 90.3579 53.1572 90.3595Z" fill="#C0E1E6"/>
<path d="M73.1183 30.6621C73.1183 30.6621 71.0587 29.2101 70.6341 29.2465C70.2094 29.2829 71.2893 30.0813 71.4132 30.3539C71.5372 30.6266 70.0463 31.3885 72.3883 32.2606C74.7304 33.1327 73.1183 30.6621 73.1183 30.6621Z" fill="#ED9C81"/>
<path d="M84.7446 87.9588C84.6962 87.9587 84.6489 87.9446 84.608 87.9179C84.5672 87.8913 84.5346 87.8534 84.5141 87.8085L65.9719 47.3918V87.6974C65.9506 87.7678 65.9095 87.8302 65.8537 87.8767C65.7979 87.9232 65.73 87.9518 65.6584 87.9588C65.6255 87.9602 65.5927 87.9542 65.5623 87.9412C65.5319 87.9282 65.5046 87.9086 65.4824 87.8837C65.4601 87.8588 65.4435 87.8292 65.4336 87.797C65.4237 87.7648 65.4208 87.7308 65.4251 87.6974V46.2275C65.4207 46.1985 65.4219 46.1689 65.4287 46.1403C65.4355 46.1118 65.4477 46.0849 65.4646 46.0613C65.4815 46.0376 65.5028 46.0176 65.5273 46.0023C65.5518 45.9871 65.579 45.977 65.6073 45.9726C65.6638 45.9596 65.7228 45.9667 65.7748 45.9927C65.8268 46.0186 65.8686 46.0619 65.8935 46.1154L84.9752 87.5862C84.9936 87.6261 85.0019 87.6701 84.9993 87.7141C84.9967 87.7581 84.9833 87.8008 84.9603 87.8381C84.9373 87.8753 84.9054 87.906 84.8677 87.9273C84.83 87.9486 84.7877 87.9597 84.7446 87.9597V87.9588Z" fill="#020201"/>
<path d="M97.7726 87.9588C97.7241 87.9589 97.6767 87.9448 97.6358 87.9182C97.5949 87.8915 97.5624 87.8535 97.542 87.8084L79.0034 47.3918V87.6973C78.9405 87.842 78.8266 87.9588 78.6854 87.9588C78.6526 87.9604 78.6198 87.9546 78.5895 87.9416C78.5592 87.9287 78.5321 87.909 78.5102 87.8839C78.4883 87.8589 78.4721 87.8291 78.4628 87.7968C78.4536 87.7645 78.4515 87.7305 78.4566 87.6973V46.2274C78.4513 46.199 78.4515 46.1698 78.4574 46.1414C78.4632 46.1131 78.4745 46.0863 78.4907 46.0625C78.5068 46.0387 78.5275 46.0185 78.5514 46.0031C78.5752 45.9876 78.6019 45.9772 78.6298 45.9725C78.6862 45.9594 78.7454 45.9664 78.7974 45.9924C78.8494 46.0184 78.8912 46.0617 78.9159 46.1154L98.0022 87.5862C98.0166 87.6172 98.0248 87.6507 98.0265 87.6849C98.0281 87.7192 98.0232 87.7534 98.0119 87.7856C98.0007 87.8179 97.9833 87.8476 97.9608 87.873C97.9384 87.8983 97.9112 87.9189 97.881 87.9336C97.8471 87.95 97.8101 87.9586 97.7726 87.9588Z" fill="#020201"/>
<path d="M87.8166 66.3625H74.8032C74.7468 66.3633 74.6916 66.3457 74.6457 66.3121C74.5998 66.2784 74.5656 66.2307 74.5481 66.1757C74.5339 66.1348 74.5291 66.0911 74.5342 66.0481C74.5393 66.005 74.5541 65.9637 74.5775 65.9275C74.6008 65.8913 74.632 65.8611 74.6687 65.8394C74.7053 65.8176 74.7464 65.8049 74.7887 65.8022H87.8011C87.8577 65.8013 87.913 65.8189 87.9591 65.8525C88.0051 65.8861 88.0395 65.9339 88.0572 65.989C88.0714 66.0298 88.0761 66.0735 88.071 66.1166C88.0659 66.1597 88.0511 66.201 88.0278 66.2372C88.0045 66.2734 87.9732 66.3036 87.9366 66.3253C87.9 66.347 87.8589 66.3598 87.8166 66.3625Z" fill="#020201"/>
<path d="M81.895 54.0371H69.238C69.1815 54.038 69.1263 54.0203 69.0804 53.9867C69.0345 53.9531 69.0003 53.9054 68.9828 53.8504C68.9686 53.8095 68.9639 53.7658 68.969 53.7227C68.9741 53.6797 68.9889 53.6384 69.0122 53.6022C69.0355 53.566 69.0667 53.5358 69.1034 53.5141C69.14 53.4923 69.1811 53.4796 69.2234 53.4769H81.8804C81.9369 53.4761 81.9922 53.4938 82.0382 53.5274C82.0843 53.561 82.1187 53.6087 82.1365 53.6636C82.1507 53.7046 82.1554 53.7484 82.1502 53.7915C82.1451 53.8347 82.1302 53.876 82.1068 53.9122C82.0834 53.9485 82.052 53.9786 82.0153 54.0003C81.9785 54.022 81.9373 54.0346 81.895 54.0371Z" fill="#020201"/>
<path d="M90.7537 72.7119H77.7413C77.6847 72.7128 77.6294 72.6951 77.5833 72.6615C77.5373 72.628 77.5029 72.5801 77.4852 72.5251C77.471 72.4842 77.4663 72.4404 77.4714 72.3973C77.4766 72.3541 77.4915 72.3128 77.5149 72.2766C77.5383 72.2403 77.5696 72.2102 77.6064 72.1885C77.6432 72.1668 77.6843 72.1542 77.7267 72.1516H90.7391C90.7956 72.1508 90.8508 72.1684 90.8967 72.202C90.9426 72.2356 90.9768 72.2834 90.9943 72.3384C91.0085 72.3793 91.0132 72.423 91.0081 72.466C91.003 72.5091 90.9882 72.5504 90.9649 72.5866C90.9416 72.6228 90.9104 72.653 90.8737 72.6747C90.8371 72.6964 90.796 72.7092 90.7537 72.7119Z" fill="#020201"/>
<path d="M84.8631 60.1064H72.1213C72.0649 60.1073 72.0097 60.0896 71.9638 60.056C71.9179 60.0224 71.8836 59.9746 71.8661 59.9197C71.8519 59.8788 71.8472 59.8351 71.8523 59.792C71.8574 59.7489 71.8722 59.7077 71.8955 59.6715C71.9189 59.6352 71.9501 59.6051 71.9867 59.5833C72.0234 59.5616 72.0645 59.5489 72.1067 59.5462H84.8485C84.9049 59.5453 84.9601 59.563 85.006 59.5966C85.0519 59.6302 85.0862 59.678 85.1037 59.7329C85.1179 59.7738 85.1226 59.8175 85.1175 59.8606C85.1124 59.9037 85.0976 59.9449 85.0743 59.9811C85.0509 60.0174 85.0197 60.0475 84.9831 60.0693C84.9464 60.091 84.9053 60.1037 84.8631 60.1064Z" fill="#020201"/>
<path d="M79.2185 48.0613H66.5396C66.4831 48.0622 66.4277 48.0446 66.3816 48.011C66.3356 47.9774 66.3012 47.9296 66.2835 47.8745C66.2693 47.8336 66.2646 47.7898 66.2697 47.7467C66.2749 47.7035 66.2898 47.6622 66.3132 47.626C66.3366 47.5898 66.368 47.5596 66.4047 47.5379C66.4415 47.5162 66.4827 47.5036 66.525 47.5011H79.2039C79.2604 47.5003 79.3157 47.518 79.3617 47.5516C79.4078 47.5851 79.4422 47.6329 79.46 47.6878C79.4742 47.7288 79.4789 47.7725 79.4738 47.8157C79.4686 47.8588 79.4537 47.9001 79.4303 47.9364C79.4069 47.9726 79.3755 48.0027 79.3388 48.0244C79.302 48.0461 79.2608 48.0587 79.2185 48.0613Z" fill="#020201"/>
<path d="M93.5186 79.0612H80.7559C80.6993 79.0621 80.644 79.0445 80.5979 79.0109C80.5519 78.9773 80.5175 78.9295 80.4998 78.8744C80.4856 78.8335 80.4809 78.7897 80.486 78.7466C80.4912 78.7034 80.506 78.6621 80.5295 78.6259C80.5529 78.5896 80.5842 78.5595 80.621 78.5378C80.6578 78.5161 80.6989 78.5035 80.7413 78.5009H93.4994C93.5559 78.5001 93.6111 78.5178 93.657 78.5514C93.7029 78.585 93.7371 78.6327 93.7546 78.6877C93.7687 78.7282 93.7736 78.7715 93.7687 78.8143C93.7639 78.857 93.7495 78.8981 93.7266 78.9342C93.7038 78.9703 93.6732 79.0005 93.6371 79.0226C93.601 79.0446 93.5604 79.0578 93.5186 79.0612Z" fill="#020201"/>
<path d="M87.5897 29.6667L91.0554 29.7031L90.6006 25.6984L89.282 26.0354L87.7246 26.6629L87.6626 28.0411L87.5897 29.6667Z" fill="#ED9C81"/>
<path d="M87.0293 22.1147C87.0293 22.1147 86.0095 26.1624 86.847 26.8599C87.6845 27.5574 89.6401 26.1447 89.6401 26.1447L89.9919 22.6329L87.0293 22.1147Z" fill="#ED9C81"/>
<path d="M80.097 65.4287H75.9852C75.8485 65.5165 75.7565 65.3643 75.8257 65.242C75.9943 64.9451 76.3926 64.5053 77.2838 64.4418C77.4854 64.4338 77.6828 64.3802 77.8618 64.2848C78.0408 64.1893 78.1969 64.0545 78.3191 63.89C78.6307 63.4726 78.73 62.8843 78.6745 62.3642C78.5788 61.4669 80.1262 62.5706 80.0952 62.5706V65.4278L80.097 65.4287Z" fill="#ED9C81"/>
<path d="M80.2054 65.4287L76.0208 65.4941C75.9898 65.4936 75.9595 65.485 75.9326 65.4692C75.9058 65.4534 75.8833 65.4308 75.8674 65.4036C75.8514 65.3764 75.8425 65.3455 75.8414 65.3138C75.8403 65.2821 75.8472 65.2506 75.8613 65.2224C76.0299 64.9254 76.4281 64.4856 77.3194 64.4221C77.521 64.4141 77.7183 64.3605 77.8973 64.2651C78.0763 64.1697 78.2325 64.0349 78.3546 63.8703C78.5779 63.9459 78.772 64.0972 79.0526 64.3633C79.2796 64.5809 79.7717 64.4389 80.1863 64.255L80.2054 65.4287Z" fill="#E95F5D"/>
<path d="M84.782 42.4429C84.782 42.4429 76.0235 49.2256 75.669 50.4506C75.3145 51.6757 78.0611 63.5715 78.0611 63.5715L80.3439 63.0822C80.3439 63.0822 79.3442 52.3545 79.83 51.8671C80.3157 51.3797 89.1817 47.1714 90.3701 45.1508C90.7182 44.5539 90.94 43.8886 91.0208 43.1981C91.1017 42.5077 91.0399 41.8075 90.8394 41.1432L84.782 42.4429Z" fill="#1D313A"/>
<path d="M90.2124 72.525H86.0341C85.8974 72.5838 85.8054 72.4316 85.8746 72.3103C86.0432 72.0133 86.4415 71.5735 87.3327 71.51C87.5343 71.502 87.7317 71.4484 87.9107 71.353C88.0897 71.2576 88.2458 71.1228 88.3679 70.9582C88.6796 70.5408 88.7789 69.9526 88.7234 69.4325C88.6277 68.5361 90.175 69.6398 90.1195 69.6398L90.2106 71.3429L90.2124 72.525Z" fill="#ED9C81"/>
<path d="M90.2297 72.5251L86.045 72.5904C86.0141 72.59 85.9837 72.5814 85.9569 72.5656C85.9301 72.5497 85.9076 72.5271 85.8917 72.5C85.8757 72.4728 85.8668 72.4419 85.8657 72.4102C85.8646 72.3784 85.8715 72.347 85.8856 72.3187C86.0542 72.0218 86.4524 71.582 87.3436 71.5185C87.5452 71.5105 87.7426 71.4569 87.9216 71.3615C88.1006 71.2661 88.2568 71.1312 88.3789 70.9667C88.6021 71.0423 88.7962 71.1936 89.0769 71.4597C89.3038 71.6773 89.7959 71.5353 90.2106 71.3514L90.2297 72.5251Z" fill="#E95F5D"/>
<path d="M85.5384 45.5244C85.5384 45.5244 85.7461 55.9177 85.7917 57.3548C85.8373 58.7918 88.2805 70.187 88.2805 70.187H90.4794C90.4794 70.187 90.1058 58.1185 90.4794 56.9934C90.8531 55.8682 92.6511 45.6019 92.3512 42.5261C92.0514 39.4504 85.5384 45.5244 85.5384 45.5244Z" fill="#1D313A"/>
<path d="M88.7844 28.958C87.6864 28.9715 86.5992 29.1832 85.573 29.5836C84.3755 30.0589 83.1644 30.8442 83.2364 32.4782C83.3494 35.0254 84.2607 42.8501 84.2607 42.8501C84.2607 42.8501 90.3282 45.8035 93.0092 44.9305C93.0092 44.9305 93.689 33.735 93.6426 32.0851C93.5961 30.4352 92.6055 29.4053 90.7783 29.2148L88.7844 28.958Z" fill="#ED6C56"/>
<path d="M92.0961 29.563C92.0961 29.563 94.2759 30.1373 94.2322 32.9469C94.1884 35.7565 94.3998 40.4009 92.7012 40.2253C91.0025 40.0498 92.0961 29.563 92.0961 29.563Z" fill="#ED6C56"/>
<path d="M86.8916 20.9999C86.8971 21.3033 86.436 22.0102 87.0329 22.1148C87.6298 22.2193 88.0636 22.3398 88.2568 23.0812C88.45 23.8226 89.2282 23.4547 89.2282 24.1354C89.2282 24.816 88.6122 25.859 89.4041 26.3044C90.196 26.7498 90.2853 26.2503 90.6799 26.3044C91.0745 26.3586 91.4582 26.4725 91.7917 26.1588C92.1252 25.845 93.0675 25.6312 92.7941 24.5845C92.5207 23.5378 93.3199 22.3118 93.0156 21.7702C92.7112 21.2286 91.6814 20.8579 91.4591 20.3444C91.2367 19.8308 90.5414 19.6609 89.5125 19.8038C88.4837 19.9466 86.8643 19.3976 86.8916 20.9999Z" fill="#333147"/>
<path d="M87.2115 29.5771C87.2115 29.5771 87.4803 28.4762 87.6517 28.3819C87.823 28.2876 89.2847 28.1952 90.0857 28.1952C90.8868 28.1952 90.977 28.4417 91.0599 28.5556C91.1428 28.6695 91.5456 29.3418 91.7889 29.4399C92.184 29.6168 92.5628 29.8296 92.9208 30.0757C93.4083 30.3923 87.2115 29.5771 87.2115 29.5771Z" fill="#ED6C56"/>
<path d="M93.289 38.6922L93.1787 38.6745C93.4038 37.1572 93.4011 33.439 93.4011 33.4017H93.5122C93.5122 33.439 93.515 37.1656 93.289 38.6922Z" fill="white"/>
<path d="M86.538 48.1622L86.5016 48.0548C86.5317 48.0436 89.6128 46.9138 90.1714 45.9661L90.2625 46.0249C89.6875 47.0072 86.6647 48.1155 86.538 48.1622Z" fill="white"/>
<path d="M85.5712 29.5836C85.5712 29.5836 83.0195 30.678 82.0089 31.3885C81.2944 31.8899 79.7726 32.5267 78.9442 32.8573C78.7663 32.9279 78.5765 32.9616 78.3858 32.9565C78.1951 32.9514 78.0073 32.9075 77.8333 32.8274L73.1183 30.6621L72.3892 32.2606C72.3892 32.2606 77.1198 35.8088 78.3427 36.0245C79.5657 36.2402 82.6477 35.4092 84.0302 34.8966C85.4126 34.3839 86.7294 31.6612 86.7294 31.6612L85.5712 29.5836Z" fill="#ED6C56"/>
<path d="M84.0493 34.947L84.0083 34.8462C86.1362 33.9414 87.0475 32.9544 87.1541 31.439C87.186 30.987 87.0821 30.6285 86.8442 30.3727C86.4323 29.931 85.7507 29.9431 85.7443 29.9441V29.8358C85.7726 29.8358 86.4733 29.8199 86.9226 30.297C87.1832 30.5771 87.2972 30.9628 87.2634 31.4474C87.1514 32.989 86.1908 34.0394 84.0493 34.947Z" fill="white"/>
<path d="M116.519 64.1626C116.519 64.1626 115.721 63.8218 115.756 61.8647C115.791 59.9076 117.886 59.0635 119.444 59.4846C121.002 59.9057 122.616 60.9636 124.191 59.6891C125.766 58.4145 127.026 57.7852 128.418 58.2782C129.809 58.7712 130.996 58.4649 131.737 57.6853C132.478 56.9056 133.441 55.7244 134.684 56.6582C135.927 57.5919 134.578 61.085 133.262 61.9225C131.946 62.7601 130.711 62.0159 129.708 62.4025C128.706 62.7891 128.26 64.8741 126.24 65.2756C124.219 65.6771 125.024 65.2756 123.36 65.4278C121.696 65.58 120.79 67.581 118.712 66.2681C116.635 64.9553 116.519 64.1626 116.519 64.1626Z" fill="#164654"/>
<path d="M129.053 53.9942C129.59 55.0512 127.84 55.7683 127.452 56.3034C127.064 56.8384 126.227 56.0765 126.227 56.0765C126.227 56.0765 126.857 55.2015 127.802 54.8962C128.747 54.5909 128.949 53.7869 129.053 53.9942Z" fill="#ED9C81"/>
<path d="M111.233 53.251C110.808 54.4135 111.806 54.8683 112.015 55.4612C112.225 56.0541 113.214 55.8524 113.214 55.8524C113.214 55.8524 113.444 55.4602 112.68 54.6526C111.915 53.8449 111.717 53.3705 111.446 53.0932C111.174 52.8159 111.233 53.251 111.233 53.251Z" fill="#ED9C81"/>
<path d="M116.055 63.2895C115.599 63.1252 115.427 65.6649 115.799 66.805C116.171 67.9451 116.71 67.9815 116.71 67.9815C116.71 67.9815 116.993 70.2813 115.647 70.2225C114.301 70.1637 116.492 71.6847 116.492 71.6847C116.492 71.6847 119.366 72.0582 119.514 72.0423C119.663 72.0265 120.978 70.7099 121.107 70.4634C121.237 70.2169 120.517 69.6959 120.517 69.6959C120.517 69.6959 119.549 70.0087 119.14 68.9638C118.731 67.919 118.934 67.1972 118.989 67.0833C119.045 66.9694 119.325 66.2495 119.81 66.1729C120.294 66.0963 120.504 65.6481 120.678 65.2952C120.888 64.8703 120.302 64.6276 120.024 64.72C119.802 64.7938 119.88 64.8209 119.768 63.8712C119.656 62.9216 118.783 62.7704 117.854 63.0944C116.924 63.4184 116.373 63.4034 116.055 63.2895Z" fill="#ED9C81"/>
<path d="M116.128 78.6232C116.128 78.6232 116.556 80.8642 116.288 81.5103C116.02 82.1565 120.101 82.9501 120.101 82.9501L122.621 81.2564C122.621 81.2564 122.621 79.4132 122.621 78.0817C122.621 76.7502 116.128 78.6232 116.128 78.6232Z" fill="#ED9C81"/>
<path d="M114.515 95.7592C114.515 95.7592 114.26 99.5604 114.262 101.498C114.263 103.435 116.986 117.185 116.986 117.185L119.212 116.65C119.212 116.65 118.751 102.818 118.824 101.716C118.896 100.615 119.931 96.8124 119.931 96.8124L114.515 95.7592Z" fill="#ED9C81"/>
<path d="M120.486 95.7591C120.486 95.7591 120.751 100.205 122.308 102.295C123.866 104.386 130.629 113.306 130.629 113.306L132.258 111.784C132.258 111.784 126.015 100.124 125.903 99.5165C125.79 98.9086 125.747 93.323 125.747 93.323L121.45 93.9355L120.486 95.7591Z" fill="#ED9C81"/>
<path d="M119.266 116.601L119.863 119.197L119.153 119.368C119.153 119.368 118.905 118.494 118.626 118.635C118.347 118.776 117.499 119.89 116.503 120.253C115.508 120.616 115.435 120.51 115.435 120.51C115.435 120.51 116.001 119.735 116.507 119.121C117.013 118.508 116.963 117.16 116.963 117.16L119.266 116.601Z" fill="#E95F5D"/>
<path d="M132.326 111.752L134.005 113.79L133.448 114.271C133.448 114.271 132.84 113.608 132.653 113.863C132.467 114.118 132.203 115.504 131.476 116.291C130.749 117.078 130.637 117.016 130.637 117.016C130.637 117.016 130.799 116.062 130.979 115.28C131.16 114.497 130.524 113.313 130.524 113.313L132.326 111.752Z" fill="#E95F5D"/>
<path d="M113.177 55.8234L112.084 55.6039C112.084 55.6039 109.434 63.452 109.684 65.0636C109.852 66.1392 114.006 72.6969 114.268 73.9891C114.53 75.2814 114.57 78.3964 115.349 78.7381C116.128 79.0799 116.87 79.1919 118.02 79.2666C119.17 79.3413 120.389 79.0742 121.839 78.8445C123.289 78.6148 123.508 78.1965 123.431 76.5242C123.355 74.8519 123.538 71.8117 123.87 70.9751C124.203 70.1384 126.275 65.8395 126.604 64.6639C126.933 63.4884 127.411 56.4172 127.448 56.3033C127.485 56.1894 126.223 56.0764 126.223 56.0764C126.223 56.0764 124.492 63.4977 124.082 64.2111C123.763 64.7713 120.972 69.383 120.675 69.5334C120.529 69.609 119.855 69.9311 119.503 70.0217C119.006 70.1487 119.048 70.525 118.162 70.5119C116.41 70.4858 115.929 70.4036 115.428 70.0049C114.927 69.6062 112.678 65.1271 112.231 64.2727C111.785 63.4183 113.177 55.8234 113.177 55.8234Z" fill="#FAC14D"/>
<path d="M116.288 81.2638C117.723 81.304 121.064 81.8847 122.621 81.2563C123.708 81.7332 124.65 82.4996 125.349 83.4758C126.464 85.0706 129.139 88.8298 131.031 89.7393C132.924 90.6488 132.98 91.4471 132.147 92.3033C131.314 93.1596 129.924 94.985 127.81 95.1045C125.696 95.224 123.693 94.3109 122.081 95.7385C120.468 97.1662 118.931 98.8768 116.307 98.367C113.684 97.8572 112.625 97.1176 111.012 97.1195C109.399 97.1214 110.677 96.2073 111.731 93.9261C112.785 91.645 114.35 81.2087 116.288 81.2638Z" fill="#164654"/>
<g opacity="0.5">
<path opacity="0.5" d="M117.11 64.7132C117.231 64.2974 117 63.8603 116.594 63.7368C116.188 63.6134 115.761 63.8503 115.641 64.2661C115.52 64.6818 115.752 65.1189 116.157 65.2424C116.563 65.3659 116.99 65.1289 117.11 64.7132Z" fill="#E6E7FF"/>
<path opacity="0.5" d="M119.054 65.4779C119.285 65.1149 119.186 64.6283 118.832 64.3909C118.478 64.1536 118.003 64.2554 117.771 64.6184C117.539 64.9814 117.639 65.468 117.993 65.7054C118.347 65.9427 118.822 65.8409 119.054 65.4779Z" fill="#E6E7FF"/>
</g>
<path d="M115.975 65.2149C115.818 65.1238 115.694 64.9817 115.625 64.8109C115.555 64.6402 115.543 64.4505 115.59 64.2718C115.647 64.0586 115.783 63.877 115.97 63.7669C116.157 63.6567 116.379 63.6271 116.587 63.6845C116.653 63.7026 116.716 63.729 116.776 63.763C116.948 63.8632 117.078 64.0241 117.143 64.2158C117.207 64.4074 117.202 64.6166 117.127 64.8041C117.052 64.9917 116.912 65.1448 116.735 65.2349C116.558 65.3249 116.355 65.3457 116.163 65.2933C116.098 65.2748 116.034 65.2485 115.975 65.2149ZM116.729 63.8461C116.634 63.7908 116.527 63.7587 116.418 63.7521C116.308 63.7455 116.198 63.7646 116.097 63.808C115.996 63.8515 115.906 63.918 115.833 64.0026C115.761 64.0872 115.708 64.1876 115.68 64.2961C115.637 64.4551 115.647 64.6241 115.709 64.7764C115.771 64.9286 115.88 65.0554 116.02 65.1365C116.073 65.1664 116.129 65.1896 116.187 65.2056C116.357 65.2558 116.54 65.24 116.699 65.1612C116.858 65.0825 116.984 64.9463 117.052 64.7786C117.119 64.611 117.124 64.4237 117.066 64.2525C117.007 64.0813 116.889 63.9383 116.734 63.8507L116.729 63.8461Z" fill="#333147"/>
<path d="M118.013 65.7788C117.841 65.6786 117.711 65.5176 117.646 65.326C117.582 65.1344 117.588 64.9252 117.663 64.7377C117.738 64.5501 117.877 64.397 118.054 64.3069C118.231 64.2169 118.435 64.1961 118.626 64.2484C118.692 64.2669 118.755 64.2935 118.814 64.3278C118.986 64.428 119.117 64.589 119.181 64.7806C119.246 64.9722 119.24 65.1814 119.165 65.369C119.09 65.5565 118.951 65.7097 118.774 65.7997C118.596 65.8897 118.393 65.9105 118.202 65.8582C118.136 65.8398 118.073 65.8131 118.013 65.7788ZM118.769 64.4109C118.716 64.3803 118.66 64.3567 118.602 64.3409C118.433 64.2929 118.252 64.31 118.094 64.3892C117.936 64.4683 117.811 64.6039 117.744 64.7705C117.677 64.9371 117.671 65.1231 117.729 65.2935C117.786 65.464 117.902 65.607 118.055 65.6957C118.108 65.7256 118.164 65.7491 118.222 65.7657C118.392 65.816 118.574 65.8002 118.734 65.7214C118.893 65.6426 119.019 65.5064 119.087 65.3388C119.154 65.1712 119.159 64.9839 119.101 64.8127C119.042 64.6415 118.924 64.4985 118.769 64.4109Z" fill="#333147"/>
<path d="M117.14 64.734L117.091 64.6528C117.199 64.5878 117.327 64.5665 117.449 64.593C117.507 64.6104 117.561 64.6401 117.607 64.6802C117.652 64.7202 117.69 64.7698 117.715 64.8255L117.633 64.8713C117.613 64.8271 117.584 64.7876 117.549 64.7555C117.513 64.7233 117.471 64.6992 117.426 64.6845C117.328 64.6649 117.226 64.6825 117.14 64.734Z" fill="#333147"/>
<path d="M116.709 67.9815C116.709 67.9815 117.637 68.0021 118.335 67.4951C119.033 66.988 118.432 68.4746 116.734 68.4568L116.709 67.9815Z" fill="#E3957C"/>
<path d="M129.147 53.8972C133.931 48.996 133.931 41.0496 129.147 36.1484C124.364 31.2472 116.608 31.2472 111.825 36.1484C107.041 41.0496 107.041 48.996 111.825 53.8972C116.608 58.7984 124.364 58.7984 129.147 53.8972Z" fill="#8AB0BD"/>
<path d="M120.486 56.1343C126.475 56.1343 131.33 51.1596 131.33 45.0229C131.33 38.8863 126.475 33.9115 120.486 33.9115C114.497 33.9115 109.641 38.8863 109.641 45.0229C109.641 51.1596 114.497 56.1343 120.486 56.1343Z" fill="white"/>
<path d="M120.388 43.1227L122.397 44.5494L124.684 38.9713L120.388 43.1227Z" fill="#BAD3DB"/>
<path d="M118.715 45.5953L120.724 47.0221L116.428 51.1735L118.715 45.5953Z" fill="#BAD3DB"/>
<path d="M122.131 43.9649L121.905 46.458L127.77 45.7595L122.131 43.9649Z" fill="#BAD3DB"/>
<path d="M119.207 43.6858L118.981 46.1798L113.342 44.3842L119.207 43.6858Z" fill="#BAD3DB"/>
<path d="M120.096 46.9715L122.296 45.88L123.714 51.7532L120.096 46.9715Z" fill="#BAD3DB"/>
<path d="M118.816 44.2647L121.015 43.1722L117.396 38.3915L118.816 44.2647Z" fill="#BAD3DB"/>
<path d="M121.512 42.7745L122.194 46.5617L129.901 42.2637L121.512 42.7745Z" fill="#61B6CA"/>
<path d="M118.197 43.8249L119.348 47.3124L111.052 47.8101L118.197 43.8249Z" fill="#E95F5D"/>
<path d="M122.05 47.1185C123.176 46.2347 123.39 44.5826 122.528 43.4284C121.665 42.2741 120.053 42.0549 118.926 42.9386C117.8 43.8224 117.586 45.4745 118.448 46.6288C119.311 47.783 120.923 48.0023 122.05 47.1185Z" fill="white"/>
<path d="M120.806 46.8226C121.779 46.6419 122.425 45.6872 122.249 44.6901C122.073 43.693 121.141 43.0312 120.168 43.2118C119.195 43.3925 118.549 44.3472 118.725 45.3443C118.901 46.3414 119.833 47.0033 120.806 46.8226Z" fill="#BAD3DB"/>
<path d="M121.084 45.4469C121.002 45.5686 120.886 45.6627 120.752 45.7172C120.618 45.7716 120.471 45.784 120.329 45.7527C120.188 45.7215 120.059 45.648 119.959 45.5416C119.859 45.4352 119.792 45.3007 119.766 45.1551C119.74 45.0095 119.758 44.8594 119.815 44.7238C119.873 44.5882 119.969 44.4733 120.09 44.3935C120.212 44.3137 120.354 44.2728 120.498 44.2758C120.643 44.2788 120.783 44.3257 120.901 44.4104C121.059 44.5235 121.167 44.696 121.201 44.8902C121.235 45.0843 121.193 45.2845 121.084 45.4469Z" fill="#8AB0BD"/>
<path d="M124.808 37.7043L125.523 36.6492L125.662 36.7481L125.643 37.962L126.203 37.1338L126.334 37.2272L125.62 38.2832L125.48 38.1833L125.5 36.9694L124.938 37.7995L124.808 37.7043Z" fill="black"/>
<path d="M127.139 50.5403L127.863 49.4703L128.617 50.0062L128.532 50.1332L127.915 49.6953L127.693 50.0221L128.271 50.433L128.186 50.5581L127.609 50.1482L127.362 50.5123L128 50.967L127.915 51.0931L127.139 50.5403Z" fill="black"/>
<path d="M114.611 52.7971L114.749 52.8784C114.721 52.9278 114.705 52.9836 114.703 53.0408C114.704 53.0971 114.721 53.1518 114.751 53.1987C114.788 53.2559 114.835 53.3052 114.89 53.3434C114.937 53.3783 114.99 53.404 115.046 53.419C115.09 53.4318 115.136 53.4318 115.18 53.419C115.217 53.406 115.249 53.3811 115.271 53.348C115.293 53.3166 115.304 53.2784 115.302 53.2397C115.297 53.1926 115.279 53.1477 115.251 53.1099C115.23 53.0791 115.18 53.0166 115.1 52.9232C115.041 52.8592 114.988 52.7888 114.944 52.7131C114.914 52.6588 114.899 52.5972 114.9 52.5348C114.903 52.4774 114.921 52.422 114.953 52.3751C114.99 52.3214 115.041 52.2799 115.101 52.2556C115.166 52.23 115.237 52.2254 115.304 52.2425C115.382 52.2605 115.455 52.2941 115.52 52.3415C115.593 52.3904 115.655 52.4539 115.702 52.5282C115.743 52.5901 115.764 52.663 115.762 52.7374C115.761 52.8105 115.739 52.8816 115.7 52.9428L115.56 52.8588C115.579 52.8286 115.591 52.795 115.596 52.7598C115.602 52.7247 115.6 52.6888 115.592 52.6543C115.565 52.5785 115.513 52.5146 115.445 52.4731C115.385 52.4221 115.309 52.3932 115.23 52.391C115.204 52.3912 115.178 52.398 115.155 52.4107C115.131 52.4234 115.111 52.4416 115.096 52.4638C115.084 52.4814 115.075 52.5015 115.071 52.5228C115.067 52.544 115.068 52.566 115.073 52.5871C115.109 52.6719 115.163 52.7481 115.229 52.8111C115.297 52.8828 115.358 52.9607 115.412 53.0437C115.45 53.1048 115.471 53.1755 115.473 53.2481C115.472 53.3151 115.451 53.3802 115.413 53.4349C115.374 53.4918 115.32 53.5359 115.257 53.5619C115.188 53.5897 115.112 53.5965 115.04 53.5815C114.957 53.5655 114.879 53.5311 114.81 53.4806C114.728 53.4254 114.657 53.3536 114.602 53.2696C114.558 53.2 114.536 53.1188 114.538 53.0362C114.539 52.9509 114.564 52.8678 114.611 52.7971Z" fill="black"/>
<path d="M112.462 40.1142L112.908 38.848L113.05 38.9489L112.734 39.7621C112.701 39.848 112.667 39.9311 112.63 40.0124C112.734 39.919 112.794 39.8621 112.813 39.848L113.5 39.2673L113.666 39.3849L113.45 40.0329C113.401 40.1823 113.343 40.328 113.275 40.469C113.334 40.4111 113.404 40.3457 113.484 40.2729L114.113 39.7024L114.252 39.8014L113.24 40.6688L113.107 40.5754L113.439 39.6043C113.466 39.5228 113.483 39.4733 113.491 39.4559C113.446 39.497 113.408 39.5315 113.375 39.5595L112.602 40.2131L112.462 40.1142Z" fill="black"/>
<path d="M122.423 55.1325C122.399 55.1326 122.375 55.124 122.356 55.1081C122.337 55.0923 122.324 55.0702 122.319 55.0457L122.053 53.7739C122.048 53.7456 122.053 53.7161 122.068 53.6918C122.084 53.6675 122.108 53.6504 122.135 53.6441C122.149 53.6411 122.163 53.6409 122.177 53.6435C122.19 53.6461 122.204 53.6515 122.215 53.6593C122.227 53.6671 122.237 53.6772 122.245 53.6891C122.253 53.7009 122.258 53.7142 122.261 53.7282L122.527 55.0009C122.533 55.0291 122.527 55.0585 122.512 55.0826C122.497 55.1067 122.473 55.1237 122.445 55.1297L122.423 55.1325Z" fill="#8AB0BD"/>
<path d="M118.585 36.7472C118.56 36.7473 118.537 36.7388 118.518 36.7232C118.499 36.7076 118.486 36.6857 118.481 36.6613L118.216 35.3886C118.213 35.3747 118.213 35.3602 118.215 35.3462C118.218 35.3321 118.223 35.3187 118.231 35.3067C118.238 35.2947 118.248 35.2844 118.26 35.2764C118.271 35.2683 118.284 35.2627 118.298 35.2598C118.311 35.2565 118.325 35.2561 118.339 35.2585C118.353 35.2609 118.366 35.2662 118.378 35.2739C118.39 35.2817 118.4 35.2918 118.408 35.3037C118.415 35.3155 118.421 35.3288 118.423 35.3429L118.689 36.6156C118.692 36.6295 118.692 36.6439 118.69 36.658C118.687 36.672 118.682 36.6854 118.675 36.6974C118.667 36.7094 118.657 36.7198 118.646 36.7278C118.634 36.7359 118.621 36.7415 118.608 36.7444C118.6 36.7463 118.592 36.7472 118.585 36.7472Z" fill="#8AB0BD"/>
<path d="M128.823 44.035C128.798 44.0349 128.773 44.0254 128.754 44.0083C128.734 43.9912 128.721 43.9676 128.718 43.9417C128.715 43.9274 128.716 43.9129 128.72 43.899C128.723 43.885 128.729 43.8719 128.738 43.8604C128.746 43.849 128.757 43.8393 128.769 43.8321C128.781 43.8249 128.795 43.8202 128.809 43.8184L130.065 43.6317C130.079 43.6294 130.093 43.6301 130.107 43.6336C130.121 43.6371 130.134 43.6434 130.145 43.6522C130.156 43.6609 130.165 43.6718 130.172 43.6843C130.179 43.6969 130.184 43.7107 130.186 43.725C130.188 43.7393 130.187 43.7537 130.183 43.7676C130.18 43.7815 130.173 43.7946 130.165 43.806C130.157 43.8175 130.146 43.8271 130.134 43.8344C130.122 43.8416 130.108 43.8463 130.094 43.8483L128.839 44.035H128.823Z" fill="#8AB0BD"/>
<path d="M110.663 46.7559C110.637 46.7559 110.613 46.7465 110.593 46.7293C110.574 46.7122 110.562 46.6885 110.558 46.6625C110.556 46.6483 110.557 46.6337 110.56 46.6197C110.563 46.6057 110.57 46.5926 110.578 46.5811C110.587 46.5696 110.597 46.5599 110.609 46.5528C110.622 46.5456 110.635 46.541 110.649 46.5393L111.906 46.3526C111.92 46.3503 111.934 46.351 111.948 46.3545C111.961 46.358 111.974 46.3643 111.985 46.373C111.997 46.3818 112.006 46.3927 112.013 46.4052C112.02 46.4178 112.024 46.4316 112.026 46.4459C112.028 46.4602 112.027 46.4746 112.024 46.4885C112.02 46.5024 112.014 46.5155 112.006 46.5269C111.997 46.5384 111.986 46.548 111.974 46.5552C111.962 46.5625 111.949 46.5672 111.935 46.5692L110.678 46.7559H110.663Z" fill="#8AB0BD"/>
<path d="M118.452 55.1604C118.445 55.1614 118.438 55.1614 118.431 55.1604C118.403 55.1548 118.379 55.1381 118.363 55.1142C118.347 55.0902 118.342 55.0608 118.347 55.0325L118.596 53.757C118.598 53.7429 118.604 53.7295 118.611 53.7176C118.619 53.7056 118.629 53.6953 118.641 53.6873C118.652 53.6794 118.665 53.6738 118.679 53.671C118.693 53.6682 118.707 53.6683 118.721 53.6711C118.748 53.677 118.772 53.6936 118.788 53.7176C118.804 53.7415 118.81 53.7707 118.804 53.799L118.56 55.0726C118.555 55.0981 118.542 55.1209 118.522 55.137C118.502 55.153 118.477 55.1614 118.452 55.1604Z" fill="#8AB0BD"/>
<path d="M122.042 36.7183H122.022C122.008 36.7156 121.995 36.7101 121.984 36.7022C121.972 36.6943 121.962 36.6841 121.954 36.6722C121.946 36.6603 121.941 36.647 121.938 36.6329C121.936 36.6189 121.936 36.6044 121.938 36.5903L122.187 35.3139C122.19 35.2999 122.195 35.2867 122.203 35.2748C122.211 35.263 122.221 35.2528 122.232 35.2449C122.244 35.2371 122.257 35.2316 122.271 35.2288C122.284 35.2261 122.298 35.2261 122.312 35.229C122.326 35.2318 122.339 35.2373 122.35 35.2453C122.362 35.2532 122.372 35.2634 122.379 35.2753C122.387 35.2872 122.392 35.3005 122.395 35.3145C122.398 35.3285 122.398 35.3429 122.395 35.3569L122.147 36.6324C122.142 36.6568 122.129 36.6787 122.11 36.6943C122.09 36.71 122.067 36.7184 122.042 36.7183Z" fill="#8AB0BD"/>
<path d="M129.848 47.9091C129.838 47.9104 129.829 47.9104 129.819 47.9091L128.593 47.571C128.579 47.5674 128.567 47.561 128.555 47.5523C128.544 47.5435 128.535 47.5327 128.528 47.5202C128.521 47.5078 128.517 47.4941 128.515 47.4799C128.513 47.4657 128.514 47.4513 128.518 47.4375C128.525 47.4097 128.543 47.3861 128.568 47.3717C128.592 47.3574 128.621 47.3535 128.648 47.3609L129.875 47.698C129.9 47.7049 129.922 47.7208 129.936 47.7428C129.95 47.7648 129.956 47.7914 129.953 47.8177C129.95 47.8439 129.937 47.868 129.918 47.8855C129.898 47.903 129.873 47.9127 129.848 47.9128V47.9091Z" fill="#8AB0BD"/>
<path d="M112.122 43.0313C112.113 43.0327 112.104 43.0327 112.095 43.0313L110.868 42.6933C110.843 42.6839 110.822 42.6652 110.81 42.6409C110.798 42.6166 110.795 42.5885 110.802 42.5621C110.809 42.5357 110.825 42.513 110.848 42.4984C110.87 42.4838 110.897 42.4783 110.923 42.4832L112.149 42.8203C112.174 42.8271 112.196 42.843 112.21 42.865C112.225 42.887 112.231 42.9136 112.227 42.9399C112.224 42.9661 112.211 42.9903 112.192 43.0078C112.173 43.0252 112.148 43.0349 112.122 43.035V43.0313Z" fill="#8AB0BD"/>
<path d="M112.671 51.5329C112.649 51.5328 112.628 51.5257 112.61 51.5125C112.592 51.4993 112.578 51.4807 112.571 51.4592C112.564 51.4378 112.563 51.4145 112.569 51.3928C112.576 51.371 112.588 51.3518 112.606 51.3377L113.602 50.5319C113.613 50.5219 113.625 50.5142 113.639 50.5094C113.653 50.5046 113.668 50.5027 113.682 50.504C113.697 50.5052 113.711 50.5095 113.724 50.5165C113.737 50.5236 113.748 50.5333 113.757 50.545C113.766 50.5567 113.773 50.5702 113.776 50.5847C113.78 50.5991 113.781 50.6142 113.779 50.629C113.777 50.6438 113.772 50.658 113.764 50.6707C113.756 50.6834 113.746 50.6943 113.734 50.7028L112.738 51.5086C112.719 51.5241 112.696 51.5326 112.671 51.5329Z" fill="#8AB0BD"/>
<path d="M127.074 39.8762C127.052 39.8761 127.031 39.869 127.013 39.8559C126.995 39.8428 126.982 39.8244 126.974 39.8031C126.967 39.7818 126.966 39.7588 126.972 39.7371C126.978 39.7154 126.991 39.6961 127.008 39.682L128.005 38.8752C128.027 38.8573 128.055 38.8491 128.084 38.8525C128.112 38.8559 128.137 38.8706 128.155 38.8934C128.172 38.9162 128.18 38.9452 128.177 38.974C128.174 39.0028 128.159 39.0291 128.137 39.047L127.14 39.8528C127.121 39.868 127.098 39.8763 127.074 39.8762Z" fill="#8AB0BD"/>
<path d="M125.936 53.5806C125.918 53.5814 125.901 53.5775 125.885 53.5694C125.869 53.5612 125.855 53.549 125.845 53.5339L125.125 52.462C125.117 52.4503 125.112 52.4371 125.109 52.4231C125.106 52.4092 125.105 52.3948 125.108 52.3807C125.11 52.3667 125.115 52.3532 125.123 52.3412C125.13 52.3292 125.14 52.3188 125.152 52.3107C125.163 52.3025 125.176 52.2968 125.19 52.2938C125.204 52.2907 125.218 52.2905 125.232 52.2931C125.245 52.2957 125.259 52.3011 125.27 52.3089C125.282 52.3167 125.292 52.3269 125.3 52.3387L126.02 53.4107C126.036 53.4345 126.042 53.4637 126.037 53.4921C126.032 53.5204 126.016 53.5455 125.993 53.5619C125.976 53.5736 125.956 53.5801 125.936 53.5806Z" fill="#8AB0BD"/>
<path d="M115.526 38.0927C115.509 38.0934 115.491 38.0895 115.475 38.0814C115.459 38.0732 115.445 38.0611 115.435 38.046L114.715 36.9741C114.699 36.9503 114.693 36.9211 114.699 36.8927C114.704 36.8643 114.72 36.8392 114.743 36.8229C114.766 36.8065 114.795 36.8003 114.822 36.8055C114.85 36.8108 114.874 36.8271 114.89 36.8509L115.61 37.9228C115.618 37.9345 115.624 37.9478 115.627 37.9618C115.63 37.9758 115.63 37.9902 115.627 38.0043C115.625 38.0183 115.62 38.0317 115.612 38.0437C115.604 38.0557 115.595 38.066 115.583 38.0741C115.566 38.0858 115.547 38.0923 115.526 38.0927Z" fill="#8AB0BD"/>
<path d="M128.411 36.5306L125.607 34.539L126.27 33.5585C126.528 33.1775 126.923 32.917 127.368 32.8343C127.813 32.7517 128.273 32.8537 128.645 33.1178C128.829 33.2486 128.986 33.4152 129.107 33.6083C129.228 33.8013 129.311 34.0169 129.351 34.2427C129.391 34.4686 129.387 34.7003 129.34 34.9247C129.292 35.149 129.202 35.3615 129.075 35.5502L128.411 36.5306Z" fill="#8AB0BD"/>
<path d="M129.185 33.5415C129.41 33.2383 129.353 32.8053 129.057 32.5746C128.761 32.3438 128.339 32.4026 128.113 32.7058C127.888 33.0091 127.946 33.442 128.241 33.6728C128.537 33.9036 128.96 33.8448 129.185 33.5415Z" fill="#8AB0BD"/>
<path d="M49.1137 82.4712C49.3981 84.1416 49.3981 85.9568 47.1289 82.3265C44.8598 78.6961 43.1611 76.4439 42.5943 79.276C42.0275 82.108 41.6721 81.9632 40.8264 79.9417C39.9807 77.9202 38.1335 87.9905 37.9913 85.0857C37.8492 82.1808 37.3534 77.824 36.0776 81.1238C34.8018 84.4236 33.3091 89.0064 31.8956 86.4078C30.4822 83.8092 28.635 84.9409 28.2805 86.4078C27.926 87.8747 26.8635 83.0529 25.9421 85.1585C25.0208 87.264 22.3981 91.985 22.6113 89.5592C22.8246 87.1333 22.6113 85.2565 21.7055 86.8812C24.6818 81.5029 27.0366 75.4607 28.2796 76.6914C29.2912 77.6923 32.9045 84.3275 34.0208 83.0202C35.1371 81.713 40.3999 67.9871 41.9938 69.4232C42.8075 70.1553 46.9148 76.6942 50.7468 82.9306C49.8391 82.1789 48.9725 81.6374 49.1137 82.4712Z" fill="white"/>
<path d="M19.1047 91.6311C19.0837 91.7002 18.0676 93.8403 16.0864 98.593C14.067 103.44 15.4485 100.699 14.2976 97.1924C14.0242 96.3595 13.553 99.3708 13.0217 97.8563C12.4904 96.3418 11.9054 96.4296 11.4798 97.5603C11.0542 98.6911 10.204 100.841 10.2578 99.2065C10.2906 98.1953 9.97799 96.7704 9.5588 96.1831C10.337 94.9029 12.105 92.2427 12.3893 92.3146C13.0272 92.478 13.5047 93.6218 14.17 94.6573C15.0375 96.0094 15.8294 97.4268 16.317 96.7032C16.5567 96.3511 17.6575 94.2988 19.1047 91.6311Z" fill="white"/>
<path d="M50.7067 71.1768C50.6155 71.1245 50.5244 71.0703 50.426 71.0162C50.385 70.991 50.3467 70.9686 50.3093 70.9499C42.4858 66.3382 37.1137 57.8608 36.679 48.0641C37.2258 48.4376 37.5575 49.2191 37.5229 50.6169C37.4318 54.2333 43.1064 53.2202 43.6806 54.3864C44.2547 55.5526 45.3902 52.9858 46.8783 53.4713C48.3665 53.9569 47.7987 54.4648 46.8783 56.1353C45.9579 57.8057 48.5679 58.9729 47.7942 60.057C47.0205 61.141 48.5305 61.5789 51.0703 61.071C53.6101 60.563 51.9324 64.425 51.0703 66.96C50.2647 69.3345 51.895 71.7622 50.7067 71.1768Z" fill="#C0E1E6"/>
<g opacity="0.31">
<path opacity="0.31" d="M50.7067 71.1768C50.6155 71.1245 50.5244 71.0703 50.426 71.0162C50.385 70.991 50.3467 70.9686 50.3093 70.9499C42.4858 66.3382 37.1137 57.8608 36.679 48.0641C37.2258 48.4376 37.5575 49.2191 37.5229 50.6169C37.4318 54.2333 43.1064 53.2202 43.6806 54.3864C44.2547 55.5526 45.3902 52.9858 46.8783 53.4713C48.3665 53.9569 47.7987 54.4648 46.8783 56.1353C45.9579 57.8057 48.5679 58.9729 47.7942 60.057C47.0205 61.141 48.5305 61.5789 51.0703 61.071C53.6101 60.563 51.9324 64.425 51.0703 66.96C50.2647 69.3345 51.895 71.7622 50.7067 71.1768Z" fill="#61B6CA"/>
</g>
<path d="M50.7067 71.1767C50.6274 71.1366 50.5335 71.0833 50.426 71.0161C50.5199 71.0703 50.6119 71.1244 50.7067 71.1767Z" fill="#61B6CA"/>
<path d="M116.492 69.7229C116.609 69.9769 116.805 70.1838 117.049 70.3106C117.294 70.4375 117.572 70.4771 117.841 70.4232C118.834 70.2598 119.491 69.4895 119.491 69.4895C119.491 69.4895 120.428 69.4773 120.22 70.2579C120.011 71.0385 118.414 71.4484 117.668 70.6809C117.469 70.8759 117.217 71.0056 116.946 71.0531C116.674 71.1007 116.395 71.0641 116.143 70.948C115.24 70.5483 115.759 70.2551 115.759 70.2551C115.759 70.2551 116.404 69.9255 116.492 69.7229Z" fill="#F8FBE6"/>
</svg>
