<svg width="142" height="128" viewBox="0 0 142 128" fill="none" xmlns="http://www.w3.org/2000/svg">
<path opacity="0.42" d="M32.2222 124.548H109.783C127.069 112.702 138.371 93.1663 138.371 71.054C138.371 34.9157 108.209 0.424988 71.0049 0.424988C33.8008 0.424988 3.63922 34.9157 3.63922 71.054C3.6343 93.1663 14.9357 112.702 32.2222 124.548Z" fill="#FAFCFF"/>
<path opacity="0.43" d="M142 124.743C142 123.208 110.215 121.961 71 121.961C31.7845 121.961 0 123.208 0 124.743C0 126.278 31.7845 127.525 71 127.525C110.215 127.525 142 126.283 142 124.743Z" fill="#D3E3EB"/>
<path d="M47.8366 91.2693H44.6055V121.976H47.8366V91.2693Z" fill="#B0C4CB"/>
<path d="M47.8366 91.2693H44.6055V95.5861H47.8366V91.2693Z" fill="#91ADB7"/>
<path d="M60.2641 121.986H33.186C32.1533 121.986 31.3123 122.817 31.3123 123.849V124.807H62.1329V123.849C62.1378 122.817 61.2969 121.986 60.2641 121.986Z" fill="#B0C4CB"/>
<path d="M38.561 91.3036H60.9425C52.7984 88.3948 55.9508 61.0075 57.4557 50.6236C57.7606 48.5312 56.1229 46.6588 53.9984 46.6588H39.0873C36.0382 46.6588 33.4513 48.893 33.0333 51.8996C31.7251 61.3351 29.6645 80.8953 33.7464 88.4681C34.6956 90.2232 36.5545 91.3036 38.561 91.3036Z" fill="#B0C4CB"/>
<path d="M115.502 29.538H88.7242C87.3521 29.538 86.2406 30.6429 86.2406 32.0069V43.9992C86.2406 45.3632 87.3521 46.4681 88.7242 46.4681H90.593V49.3672C90.593 49.768 91.0749 49.9832 91.3749 49.7143L94.9945 46.4681H115.497C116.869 46.4681 117.981 45.3632 117.981 43.9992V32.0069C117.991 30.6478 116.879 29.538 115.502 29.538Z" fill="#82BBF1"/>
<path d="M96.701 38.1864C96.701 38.7877 96.2092 39.2766 95.6043 39.2766C94.9994 39.2766 94.5076 38.7877 94.5076 38.1864C94.5076 37.5851 94.9994 37.0962 95.6043 37.0962C96.2092 37.1011 96.701 37.5851 96.701 38.1864Z" fill="#476488"/>
<path d="M103.434 38.1864C103.434 38.7877 102.942 39.2766 102.337 39.2766C101.732 39.2766 101.24 38.7877 101.24 38.1864C101.24 37.5851 101.732 37.0962 102.337 37.0962C102.947 37.1011 103.434 37.5851 103.434 38.1864Z" fill="#476488"/>
<path d="M108.627 39.2766C109.233 39.2766 109.724 38.7885 109.724 38.1864C109.724 37.5843 109.233 37.0962 108.627 37.0962C108.021 37.0962 107.53 37.5843 107.53 38.1864C107.53 38.7885 108.021 39.2766 108.627 39.2766Z" fill="#476488"/>
<path d="M27.8305 61.7603C27.8305 58.827 25.7453 55.8839 23.1732 55.8839C20.6011 55.8839 18.5159 58.827 18.5159 61.7603C18.5159 64.6936 20.6011 67.0745 23.1732 67.0745C25.7453 67.0745 27.8305 64.6936 27.8305 61.7603Z" fill="#83B6EC"/>
<path opacity="0.25" d="M23.1732 55.8839C22.7601 55.8839 22.3618 55.967 21.9782 56.1088C23.9699 56.8372 25.4404 59.3012 25.4404 61.7603C25.4404 64.2243 23.9699 66.2874 21.9782 66.8936C22.3618 67.0109 22.7601 67.0745 23.1732 67.0745C25.7453 67.0745 27.8305 64.6936 27.8305 61.7603C27.8305 58.8221 25.7453 55.8839 23.1732 55.8839Z" fill="#476488"/>
<path d="M17.8669 65.2314L18.7029 72.7455C18.8062 73.6842 19.6078 74.3931 20.557 74.3931H25.3766C26.3257 74.3931 27.1273 73.6842 27.2306 72.7455L28.0667 65.2314C28.1109 64.8207 27.7913 64.4638 27.3782 64.4638H18.5652C18.1423 64.4638 17.8177 64.8207 17.8669 65.2314Z" fill="#D3E3EB"/>
<path d="M18.5551 65.5883H27.3681C27.6385 65.5883 27.8599 65.7496 27.9779 65.9745L28.0615 65.2314C28.1057 64.8207 27.7861 64.4638 27.373 64.4638H18.5601C18.1469 64.4638 17.8224 64.8207 17.8715 65.2314L17.9552 65.9745C18.0634 65.7496 18.2797 65.5883 18.5551 65.5883Z" fill="#B0C4CB"/>
<path d="M27.3683 64.4638H24.3143C24.7274 64.4638 25.052 64.8207 25.0028 65.2314L24.1668 72.7455C24.0635 73.6842 23.2619 74.3931 22.3127 74.3931H25.3667C26.3159 74.3931 27.1175 73.6842 27.2208 72.7455L28.0568 65.2314C28.1011 64.8207 27.7814 64.4638 27.3683 64.4638Z" fill="#B0C4CB"/>
<path d="M65.9591 117.444L65.6444 119.615L67.3066 121.727L71.5213 119.678L71.9786 117.694L66.7312 116.902L65.9591 117.444Z" fill="#E3BD78"/>
<path d="M69.3623 124.43L69.7951 123.892C69.8738 123.795 70.0263 123.795 70.1049 123.888L70.5426 124.396C70.7197 124.601 70.9803 124.719 71.2508 124.714L81.0424 124.548C81.2293 124.357 81.2784 124.029 81.0571 123.809C79.6211 122.367 71.8951 119.879 71.5115 119.669C71.1279 119.458 68.7623 121.282 65.6345 119.605C65.6345 119.605 65.128 122.04 65.0542 123.619C65.0247 124.264 65.5362 124.802 66.1854 124.792L68.6689 124.748C68.9443 124.758 69.1951 124.636 69.3623 124.43Z" fill="#2C3C4D"/>
<path d="M47.989 80.7535C47.989 80.7535 43.9219 85.2219 51.3676 90.0765C56.5905 93.484 60.7068 92.4427 63.987 94.5058C64.7542 94.9898 65.3394 95.7084 65.3935 96.6129L65.5607 117.503L65.9591 117.698C67.9312 118.671 70.2426 118.696 72.2393 117.767L75.2048 93.9338C75.313 92.2911 74.4179 90.9076 73.395 89.6121C67.7 82.4108 57.6183 79.9713 55.0708 79.5557C51.7512 79.0179 47.989 80.7535 47.989 80.7535Z" fill="#2C3C4D"/>
<path d="M49.7693 117.439L49.425 119.61L51.0578 121.746L55.297 119.752L55.7839 117.772L50.5463 116.911L49.7693 117.439Z" fill="#E3BD78"/>
<path d="M53.0741 124.474L53.5168 123.946C53.6004 123.849 53.7479 123.849 53.8266 123.946L54.2544 124.46C54.4266 124.67 54.6872 124.787 54.9577 124.787L64.7542 124.753C64.946 124.567 64.9952 124.24 64.7788 124.02C63.3624 122.563 55.6757 119.967 55.2921 119.752C54.9085 119.537 52.5233 121.331 49.4152 119.61C49.4152 119.61 48.8742 122.04 48.7808 123.619C48.7415 124.264 49.248 124.812 49.8972 124.807L52.3807 124.797C52.6512 124.797 52.902 124.675 53.0741 124.474Z" fill="#2C3C4D"/>
<path d="M35.6303 76.8571C35.6303 76.8571 30.7025 82.3179 37.8286 88.4827C42.8252 92.8094 47.3104 90.9565 50.4578 93.5965C51.1955 94.2173 51.707 95.0582 51.6332 96.0115L49.3808 117.263L49.548 117.371C51.5152 118.637 53.9987 118.808 56.1183 117.816L61.6903 95.4249C62.0395 93.7138 61.3018 92.1298 60.4117 90.6241C55.4692 82.2446 47.7038 77.2531 45.0825 76.4513C41.6744 75.41 35.6303 76.8571 35.6303 76.8571Z" fill="#2C3C4D"/>
<path d="M62.8116 93.9093C62.4379 93.7529 62.0543 93.6258 61.6658 93.5133C61.4592 92.516 60.9625 91.548 60.4166 90.6191C57.9675 86.4685 54.82 83.1392 51.9529 80.7535C53.7381 80.4504 54.6479 80.0739 55.1397 79.5753C56.1183 79.7317 58.0953 80.1766 60.4855 81.0175C62.9051 85.0459 62.8952 91.5823 62.8116 93.9093Z" fill="#1F2E40"/>
<path d="M48.8941 47.9738C48.8941 47.9738 41.7877 47.0303 38.837 52.5351C35.8862 58.04 31.4748 79.6144 35.3305 80.2695C37.037 80.558 41.591 81.6971 46.6368 81.3304C53.571 80.8269 55.0808 80.1913 55.5824 78.8811L59.9987 58.7733C60.102 56.0062 58.8627 53.3467 56.6447 51.6747C53.0989 49.0103 48.8941 47.9738 48.8941 47.9738Z" fill="#D3E3EB"/>
<path d="M59.9691 57.0084C59.9691 57.0084 60.0626 69.118 63.8887 69.8513C67.7198 70.5847 77.9146 70.3549 77.9146 70.3549V74.2073H56.0446L59.9691 57.0084Z" fill="#B0C4CB"/>
<path d="M54.6725 51.5134L55.5332 47.2307L49.9464 43.0019L48.8743 48.0521C48.8743 48.0472 50.6398 55.7569 54.6725 51.5134Z" fill="#D4904F"/>
<path d="M61.8034 39.0664C61.8034 39.0664 58.8821 40.4792 54.5986 37.8882C54.5986 37.8882 53.6052 39.6628 50.7332 41.2468C50.7332 41.2468 49.243 38.7633 48.3824 40.6259C48.1217 41.1881 47.9988 41.6966 47.989 42.1463C45.2989 38.6948 47.1972 34.1482 49.7053 31.694C52.0807 29.3669 57.2248 30.2909 60.4362 31.5767C63.8443 32.9406 64.4738 30.5696 64.4738 30.5696C68.7721 36.6024 61.8034 39.0664 61.8034 39.0664Z" fill="#2C3C4D"/>
<path d="M50.7283 41.2468C50.7283 41.2468 49.2382 38.7633 48.3775 40.6259C47.3349 42.8846 48.5103 44.3023 49.9218 44.3023C49.9218 44.3023 51.0431 50.1787 56.4725 49.7632C61.9019 49.3476 62.6887 40.6797 61.7986 39.0664C61.7986 39.0664 58.8724 40.4793 54.5938 37.8833C54.5938 37.8882 53.6004 39.6628 50.7283 41.2468Z" fill="#E3BD78"/>
<path d="M97.8027 54.9942H75.131C74.0147 54.9942 73.0507 55.7764 72.8294 56.8666L69.8098 71.5722H97.2814L100.109 57.8004C100.404 56.3484 99.2928 54.9942 97.8027 54.9942Z" fill="#D3E3EB"/>
<path d="M97.1928 71.5673H59.7281C59.1085 71.5673 58.6069 72.066 58.6069 72.682V73.0438C58.6069 73.6598 59.1085 74.1584 59.7281 74.1584H97.1928C97.8125 74.1584 98.3141 73.6598 98.3141 73.0438V72.682C98.3141 72.066 97.8125 71.5673 97.1928 71.5673Z" fill="#8BA6AF"/>
<path d="M97.1928 71.5673H69.5098C70.1295 71.5673 70.6311 72.066 70.6311 72.682V73.0438C70.6311 73.6598 70.1295 74.1584 69.5098 74.1584H97.1928C97.8124 74.1584 98.3141 73.6598 98.3141 73.0438V72.682C98.3141 72.066 97.8124 71.5673 97.1928 71.5673Z" fill="#B0C4CB"/>
<path d="M60.9379 70.7799C56.5265 70.2666 44.1432 69.0151 42.0186 68.7951C39.3433 68.5213 45.1563 57.7854 45.8005 54.1188C46.4448 50.4472 43.6317 50.3104 43.6317 50.3104C42.0432 50.1148 40.3072 50.3104 38.8318 52.5348C35.8122 57.0863 32.4435 70.3839 34.2188 73.6692C34.4254 74.0555 34.8336 74.2901 35.2762 74.2901H60.9379V70.7799Z" fill="#D3E3EB"/>
<path d="M60.9379 70.7803C60.9379 70.7803 44.994 69.6901 41.5564 69.2305C38.8909 68.8736 44.4481 57.8786 45.0924 54.2071C45.7366 50.5356 42.8793 50.692 42.8793 50.692C42.1613 50.604 41.1285 50.7018 40.3909 50.9267C41.458 50.2276 42.5744 50.1836 43.6367 50.3107C43.6367 50.3107 46.4497 50.4525 45.8055 54.1191C45.1612 57.7906 40.1745 68.2919 41.8613 68.7074C43.9317 69.211 56.5216 70.2719 60.9379 70.7803Z" fill="#B0C4CB"/>
<path d="M60.9379 74.3442H66.8837C67.3312 74.3442 67.5968 73.8553 67.3558 73.4789C66.8001 72.6282 65.9198 71.4256 65.2755 71.2251C64.8919 71.1029 62.0002 71.2105 60.9379 71.3229V74.3442Z" fill="#E3BD78"/>
<path opacity="0.67" d="M61.8035 39.0663C61.8035 39.0663 61.3166 39.2961 60.456 39.3988C60.3822 39.7997 60.2543 40.5672 60.1855 41.2957C60.0871 42.337 60.6084 45.5538 60.2838 45.5783C59.9593 45.6027 59.2855 45.5538 59.2855 45.5538C59.2855 45.5538 58.7888 50.208 54.1069 49.4649C54.0626 49.46 54.0282 49.4551 53.984 49.4453C54.6921 49.6996 55.5135 49.8267 56.4724 49.7533C61.9067 49.3476 62.6887 40.6748 61.8035 39.0663Z" fill="#D4904F"/>
<path d="M129.966 106.698C129.966 106.698 137.436 103.017 135.405 97.4341C133.374 91.8511 132.12 91.6115 136 88.4631C139.885 85.3147 145.501 77.4143 138.39 76.8228C131.279 76.2312 131.638 85.6129 125.722 86.9182C119.81 88.2284 116.584 112.819 129.966 106.698Z" fill="#83B6EC"/>
<path opacity="0.25" d="M124.089 107.256C125.525 107.916 127.453 107.852 129.966 106.703C129.966 106.703 137.436 103.022 135.405 97.4388C133.374 91.8558 132.12 91.6162 136 88.4678C139.885 85.3194 145.502 77.419 138.39 76.8274C137.692 76.7688 137.062 76.8128 136.497 76.9301C138.498 77.7563 140.49 79.3941 137.913 82.4301C133.63 87.4802 131.338 89.2647 131.835 92.5304C132.321 95.713 132.046 102.949 124.089 107.256Z" fill="#476488"/>
<path d="M117.297 106.522C117.297 106.522 110.727 106.283 111.081 101.595C111.44 96.9012 111.622 96.7203 107.496 95.239C100.207 92.6235 105.976 78.7099 111.917 87.456C116.038 93.5279 117.833 92.1639 120.523 92.6382C123.213 93.1124 129.071 108.6 117.297 106.522Z" fill="#83B6EC"/>
<path opacity="0.29" d="M120.523 92.6383C117.833 92.1641 116.043 93.5281 111.917 87.4561C108.809 82.8753 105.75 84.5081 104.579 87.4806C106.33 86.9477 108.986 86.6299 109.315 89.4556C109.743 93.1272 118.384 99.1551 118.207 106.65C118.32 106.659 118.433 106.669 118.541 106.679C119.8 103.384 121.458 99.1111 122.879 95.4689C122.127 93.8947 121.222 92.7605 120.523 92.6383Z" fill="#476488"/>
<path d="M118.822 106.312C118.822 106.312 110.668 98.3827 113.447 97.048C116.225 95.7134 121.694 100.079 118.645 95.3565C115.596 90.6339 112.05 83.281 116.26 84.4397C120.474 85.5983 120.779 86.8694 120.258 81.3695C119.584 74.2562 123.573 70.5896 127.34 72.9069C131.102 75.2242 124.113 90.9027 126.71 89.2112C129.307 87.5197 131.461 86.0921 131.997 88.1405C132.533 90.189 124.556 98.236 127.517 96.872C131.19 95.1805 131.731 98.2067 130.566 100.079C129.4 101.947 124.561 113.088 118.822 106.312Z" fill="#476488"/>
<path opacity="0.48" d="M130.566 100.079C131.731 98.2064 131.195 95.1802 127.517 96.8717C124.556 98.2357 132.538 90.1887 131.997 88.1403C131.456 86.0918 129.307 87.5145 126.71 89.2109C124.113 90.9024 131.102 75.2239 127.34 72.9066C125.589 71.8311 123.794 72.0609 122.441 73.3173C124.389 73.7915 125.948 75.3511 124.871 79.5555C122.579 88.4678 121.182 95.8939 125.368 93.7184C129.307 91.6651 120.789 101.125 120.705 107.94C125.589 110.712 129.528 101.741 130.566 100.079Z" fill="#2C3C4D"/>
<path d="M113.176 107.247L114.755 121.454C114.951 123.228 116.461 124.573 118.261 124.573H127.369C129.164 124.573 130.674 123.228 130.876 121.454L132.454 107.247C132.538 106.474 131.933 105.799 131.151 105.799H114.484C113.697 105.795 113.088 106.474 113.176 107.247Z" fill="#D3E3EB"/>
<path d="M131.146 105.794H125.368C126.149 105.794 126.759 106.469 126.671 107.241L125.092 121.448C124.895 123.223 123.386 124.567 121.586 124.567H127.364C129.159 124.567 130.669 123.223 130.871 121.448L132.449 107.241C132.538 106.473 131.928 105.794 131.146 105.794Z" fill="#B0C4CB"/>
<path d="M113.427 74.3002H15.752C14.6553 74.3002 13.7652 75.1851 13.7652 76.2753V76.9157C13.7652 78.0059 14.6553 78.8908 15.752 78.8908H113.432C114.528 78.8908 115.419 78.0059 115.419 76.9157V76.2753C115.414 75.1851 114.524 74.3002 113.427 74.3002Z" fill="#5D8AC8"/>
<path d="M113.427 74.3002H15.752C14.6553 74.3002 13.7652 75.1851 13.7652 76.2753V76.9157C13.7652 77.1259 13.8095 77.3215 13.8685 77.5122C14.1242 76.7153 14.8668 76.1384 15.752 76.1384H113.432C114.317 76.1384 115.06 76.7202 115.315 77.5122C115.374 77.3215 115.419 77.1259 115.419 76.9157V76.2753C115.414 75.1851 114.524 74.3002 113.427 74.3002Z" fill="#4772A6"/>
<path d="M46.6218 124.641H43.3563L20.6454 78.9103H23.9109L46.6218 124.641Z" fill="#476488"/>
<path d="M10.6816 124.641H13.9422L36.6581 78.9103H33.3926L10.6816 124.641Z" fill="#476488"/>
<path d="M116.943 124.641H113.678L90.9666 78.9103H94.2321L116.943 124.641Z" fill="#476488"/>
<path d="M80.9981 124.641H84.2636L106.974 78.9103H103.709L80.9981 124.641Z" fill="#476488"/>
<path d="M24.8109 80.7192L23.9109 78.9103H20.6454L21.5454 80.7192H24.8109Z" fill="#293951"/>
<path d="M35.7581 80.7192L36.6581 78.9103H33.3926L32.4926 80.7192H35.7581Z" fill="#293951"/>
<path d="M95.1272 80.7192L94.2321 78.9103H90.9666L91.8666 80.7192H95.1272Z" fill="#293951"/>
<path d="M106.075 80.7192L106.974 78.9103H103.709L102.809 80.7192H106.075Z" fill="#293951"/>
</svg>
