<svg width="276" height="210" viewBox="0 0 276 210" fill="none" xmlns="http://www.w3.org/2000/svg">
<g filter="url(#filter0_d)">
<path d="M87.8752 55.005H64.9282V151.166H87.8752V55.005Z" fill="url(#paint0_linear)"/>
<path d="M140.898 55.005H82.8112V151.166H140.898V55.005Z" fill="url(#paint1_linear)"/>
<path d="M84.2262 55.005H81.3963V151.166H84.2262V55.005Z" fill="#99C6FF"/>
<path d="M77.8175 55.005H74.9876V151.166H77.8175V55.005Z" fill="#99C6FF"/>
<path d="M71.4088 55.005H68.5789V151.166H71.4088V55.005Z" fill="#99C6FF"/>
<path d="M94.1434 68.6936C97.3406 68.6936 99.9324 65.9897 99.9324 62.6541C99.9324 59.3186 97.3406 56.6146 94.1434 56.6146C90.9462 56.6146 88.3543 59.3186 88.3543 62.6541C88.3543 65.9897 90.9462 68.6936 94.1434 68.6936Z" fill="url(#paint2_linear)"/>
<path d="M113.753 68.6936C116.95 68.6936 119.542 65.9897 119.542 62.6541C119.542 59.3186 116.95 56.6146 113.753 56.6146C110.555 56.6146 107.964 59.3186 107.964 62.6541C107.964 65.9897 110.555 68.6936 113.753 68.6936Z" fill="url(#paint3_linear)"/>
<path d="M139.151 62.6541C139.151 65.9896 136.559 68.6936 133.362 68.6936C130.165 68.6936 127.573 65.9896 127.573 62.6541C127.573 59.3187 130.165 56.6146 133.362 56.6146C136.559 56.6146 139.151 59.3187 139.151 62.6541Z" fill="url(#paint4_linear)"/>
<path d="M123.836 43.2727C117.362 43.2727 112.02 48.4242 111.378 55.0052H117.226C117.825 51.7663 120.559 49.3122 123.836 49.3122C127.551 49.3122 130.572 52.4644 130.572 56.3397V62.091C130.572 63.7587 131.869 65.1099 133.466 65.1099C135.064 65.1099 136.36 63.7571 136.36 62.091V56.3397C136.36 49.1323 130.741 43.2727 123.836 43.2727Z" fill="url(#paint5_linear)"/>
<path d="M104.227 43.2727C97.7526 43.2727 92.4107 48.4242 91.7687 55.0052H97.6168C98.2157 51.7663 100.95 49.3122 104.227 49.3122C107.941 49.3122 110.963 52.4644 110.963 56.3397V62.091C110.963 63.7587 112.26 65.1099 113.857 65.1099C115.455 65.1099 116.75 63.7571 116.75 62.091V56.3397C116.75 49.1323 111.132 43.2727 104.227 43.2727Z" fill="url(#paint6_linear)"/>
<path d="M84.6158 43.2727C78.1417 43.2727 72.7998 48.4242 72.1578 55.0052H78.0059C78.6048 51.7663 81.3388 49.3122 84.6158 49.3122C88.3304 49.3122 91.3519 52.4644 91.3519 56.3397V62.091C91.3519 63.7587 92.6486 65.1099 94.2456 65.1099C95.8442 65.1099 97.1394 63.7571 97.1394 62.091V56.3397C97.141 49.1323 91.5228 43.2727 84.6158 43.2727Z" fill="url(#paint7_linear)"/>
<path d="M133.217 86.0806C133.217 87.7367 131.93 89.0795 130.342 89.0795H94.6417C93.0543 89.0795 91.7671 87.7367 91.7671 86.0806C91.7671 84.4245 93.0543 83.0817 94.6417 83.0817H130.342C131.93 83.0817 133.217 84.4245 133.217 86.0806Z" fill="url(#paint8_linear)"/>
<path d="M133.217 96.6336C133.217 98.2896 131.93 99.6325 130.342 99.6325H94.6417C93.0543 99.6325 91.7671 98.2896 91.7671 96.6336C91.7671 94.9775 93.0543 93.6346 94.6417 93.6346H130.342C131.93 93.6346 133.217 94.9758 133.217 96.6336Z" fill="url(#paint9_linear)"/>
<path d="M182.77 180.952L166.239 174.124L197.492 91.7734L214.022 98.601L182.77 180.952Z" fill="url(#paint10_linear)"/>
<path opacity="0.5" d="M200.357 92.9516L169.107 175.304L170.804 176.005L202.054 93.6525L200.357 92.9516Z" fill="white"/>
<path opacity="0.5" d="M204.924 94.8344L173.665 177.187L175.362 177.888L206.621 95.5356L204.924 94.8344Z" fill="white"/>
<path opacity="0.5" d="M209.456 96.7097L178.205 179.062L179.902 179.763L211.153 97.4107L209.456 96.7097Z" fill="white"/>
<path d="M164.842 177.799L163.224 182.063C162.574 183.776 163.377 185.713 165.019 186.391L175.607 190.765C177.249 191.443 179.106 190.605 179.756 188.892L181.374 184.629L164.842 177.799Z" fill="url(#paint11_linear)"/>
<path d="M181.374 184.629L164.843 177.799L166.239 174.124L182.77 180.952L181.374 184.629Z" fill="url(#paint12_linear)"/>
<path opacity="0.5" d="M165.707 175.521L165.396 176.34L181.927 183.168L182.238 182.348L165.707 175.521Z" fill="white"/>
<path d="M214.038 98.6043L197.492 91.7701L206.116 83.9296L212.106 78.4799L212.897 86.7302L214.038 98.6043Z" fill="#DFE9FF"/>
<path d="M212.897 86.7302C211.681 86.7936 210.424 86.5903 209.217 86.0921C208.01 85.594 206.961 84.8443 206.116 83.9296L212.106 78.4799L212.897 86.7302Z" fill="url(#paint13_linear)"/>
<path d="M45.3445 103.719C45.3445 106.827 42.9299 109.347 39.9499 109.347C36.97 109.347 34.5553 106.828 34.5553 103.719C34.5553 100.61 36.97 98.0913 39.9499 98.0913C42.9299 98.0913 45.3445 100.612 45.3445 103.719Z" fill="url(#paint14_linear)"/>
<path d="M48.8355 168.558V158.033C42.521 158.033 37.4027 152.693 37.4027 146.106C37.4027 139.518 42.521 134.178 48.8355 134.178V123.654C36.9508 123.654 27.3162 133.705 27.3162 146.104C27.3146 158.506 36.9492 168.558 48.8355 168.558Z" fill="url(#paint15_linear)"/>
<path d="M27 42.6228V53.4539C33.4981 53.4539 38.7665 58.9503 38.7665 65.7295C38.7665 72.5088 33.4981 78.0052 27 78.0052V88.8363C39.2329 88.8363 49.1485 78.49 49.1485 65.7295C49.1501 52.9691 39.2329 42.6228 27 42.6228Z" fill="url(#paint16_linear)"/>
<path d="M199.271 61.6409C202.784 61.6409 205.632 58.6699 205.632 55.005C205.632 51.34 202.784 48.369 199.271 48.369C195.758 48.369 192.91 51.34 192.91 55.005C192.91 58.6699 195.758 61.6409 199.271 61.6409Z" fill="url(#paint17_linear)"/>
<path d="M237.153 41C229.74 41 223.729 47.2694 223.729 55.005C223.729 62.7389 229.738 69.01 237.153 69.01C244.566 69.01 250.577 62.7406 250.577 55.005C250.577 47.2694 244.568 41 237.153 41ZM237.153 62.5673C233.149 62.5673 229.904 59.1818 229.904 55.005C229.904 50.8282 233.149 47.4427 237.153 47.4427C241.157 47.4427 244.402 50.8282 244.402 55.005C244.403 59.1818 241.157 62.5673 237.153 62.5673Z" fill="url(#paint18_linear)"/>
<path d="M225.96 78.2635V89.2113C232.528 89.2113 237.854 94.766 237.854 101.62C237.854 108.473 232.53 114.029 225.96 114.029V124.977C238.325 124.977 248.348 114.519 248.348 101.62C248.348 88.7215 238.325 78.2635 225.96 78.2635Z" fill="url(#paint19_linear)"/>
<path d="M237.153 157.23C241.875 157.23 245.703 153.237 245.703 148.31C245.703 143.384 241.875 139.39 237.153 139.39C232.431 139.39 228.603 143.384 228.603 148.31C228.603 153.237 232.431 157.23 237.153 157.23Z" fill="url(#paint20_linear)"/>
<path d="M112.842 102.7L136.46 112.238L143.717 92.6833L120.098 83.145L112.842 102.7Z" fill="url(#paint21_linear)"/>
<path d="M179.662 116.64L153.653 186.732L102.077 165.901C95.9928 163.443 92.9601 156.283 95.3156 149.936L117.054 91.3557L179.662 116.64Z" fill="url(#paint22_linear)"/>
<path d="M124.397 97.3717L174.764 117.714L182.429 97.0552L132.062 76.7141L122.3 85.1011L124.397 97.3717Z" fill="#DDECFF"/>
<path d="M125.045 80.434L124.388 82.2037L179.658 104.524L180.314 102.754L125.045 80.434Z" fill="#99C6FF"/>
<path d="M123.557 84.442L122.901 86.2118L178.17 108.532L178.827 106.762L123.557 84.442Z" fill="#99C6FF"/>
<path d="M122.069 88.4517L121.413 90.2214L176.682 112.541L177.339 110.772L122.069 88.4517Z" fill="#99C6FF"/>
<path d="M126.113 101.12L177.693 121.951L179.663 116.64L128.084 95.8073C124.809 94.4845 123.175 90.6275 124.443 87.2104L125.32 84.8496C126.588 81.4325 130.285 79.7281 133.56 81.0509L185.139 101.882L187.11 96.5704L135.531 75.7395C129.448 73.282 122.582 76.4476 120.227 82.7936L119.35 85.1545C116.998 91.5005 120.031 98.663 126.113 101.12Z" fill="url(#paint23_linear)"/>
<path d="M153.958 98.7628L160.281 101.317L162.283 95.9172L155.963 93.3647L153.958 98.7628Z" fill="url(#paint24_linear)"/>
<path d="M136.928 94.4595L142.259 96.612L145.057 89.0714L139.726 86.9188L136.928 94.4595Z" fill="url(#paint25_linear)"/>
<g opacity="0.4">
<path opacity="0.4" d="M117.371 120.165C118.25 120.52 119.237 120.065 119.577 119.149C119.917 118.233 119.481 117.203 118.603 116.848C117.724 116.493 116.737 116.948 116.397 117.864C116.057 118.781 116.493 119.812 117.371 120.165Z" fill="#372779"/>
<path opacity="0.4" d="M117.188 123.534C117.434 122.873 117.118 122.128 116.484 121.873C115.85 121.616 115.137 121.946 114.891 122.608C114.645 123.269 114.96 124.012 115.596 124.269C116.23 124.525 116.942 124.195 117.188 123.534Z" fill="#372779"/>
<path opacity="0.4" d="M118.828 122.396C118.507 123.261 118.919 124.234 119.748 124.569C120.577 124.904 121.509 124.474 121.83 123.609C122.151 122.744 121.739 121.771 120.91 121.436C120.082 121.102 119.149 121.531 118.828 122.396Z" fill="#372779"/>
<path opacity="0.4" d="M121.255 118.186C121.096 118.619 121.3 119.104 121.715 119.272C122.131 119.439 122.597 119.224 122.757 118.792C122.916 118.359 122.712 117.873 122.297 117.706C121.881 117.538 121.415 117.753 121.255 118.186Z" fill="#372779"/>
<path opacity="0.4" d="M118.103 126.13C117.884 126.041 117.637 126.155 117.552 126.385C117.467 126.613 117.576 126.871 117.796 126.959C118.015 127.048 118.263 126.934 118.347 126.706C118.432 126.475 118.323 126.218 118.103 126.13Z" fill="#372779"/>
<path opacity="0.4" d="M114.62 127.583C115.303 127.857 116.07 127.504 116.335 126.791C116.599 126.078 116.26 125.278 115.578 125.002C114.895 124.725 114.128 125.08 113.863 125.792C113.598 126.506 113.936 127.306 114.62 127.583Z" fill="#372779"/>
<path opacity="0.4" d="M117.009 130.72C117.207 130.185 116.953 129.585 116.44 129.378C115.928 129.172 115.353 129.437 115.155 129.972C114.957 130.506 115.211 131.106 115.723 131.313C116.236 131.519 116.811 131.254 117.009 130.72Z" fill="#372779"/>
<path opacity="0.4" d="M120.292 129.397C120.565 128.659 120.214 127.829 119.508 127.544C118.801 127.259 118.005 127.626 117.732 128.362C117.459 129.1 117.811 129.93 118.517 130.215C119.224 130.502 120.019 130.135 120.292 129.397Z" fill="#372779"/>
<path opacity="0.4" d="M110.68 121.06C110.477 121.608 110.738 122.226 111.265 122.438C111.79 122.649 112.383 122.378 112.585 121.828C112.79 121.28 112.528 120.661 112.002 120.45C111.475 120.238 110.885 120.512 110.68 121.06Z" fill="#372779"/>
<path opacity="0.4" d="M120.85 126.391C120.746 126.671 120.879 126.986 121.147 127.094C121.415 127.203 121.717 127.064 121.821 126.785C121.925 126.505 121.792 126.19 121.524 126.081C121.255 125.972 120.954 126.111 120.85 126.391Z" fill="#372779"/>
<path opacity="0.4" d="M127.086 137.226C126.818 137.117 126.516 137.256 126.412 137.535C126.308 137.815 126.441 138.13 126.709 138.239C126.977 138.347 127.279 138.209 127.383 137.929C127.487 137.649 127.354 137.334 127.086 137.226Z" fill="#372779"/>
<path opacity="0.4" d="M123.394 122.546C124.052 122.813 124.793 122.471 125.048 121.783C125.304 121.097 124.976 120.323 124.317 120.057C123.659 119.79 122.918 120.132 122.662 120.82C122.408 121.506 122.736 122.279 123.394 122.546Z" fill="#372779"/>
<path opacity="0.4" d="M126.366 132.326C126.621 131.639 126.294 130.866 125.634 130.6C124.976 130.333 124.235 130.675 123.98 131.363C123.724 132.049 124.052 132.822 124.711 133.087C125.369 133.354 126.11 133.014 126.366 132.326Z" fill="#372779"/>
<path opacity="0.4" d="M125.411 117.109C126.045 117.366 126.757 117.036 127.003 116.375C127.249 115.713 126.933 114.97 126.299 114.714C125.665 114.457 124.952 114.787 124.706 115.448C124.462 116.11 124.777 116.853 125.411 117.109Z" fill="#372779"/>
<path opacity="0.4" d="M133.838 114.516C134.472 114.772 135.184 114.442 135.43 113.781C135.676 113.12 135.36 112.376 134.726 112.12C134.092 111.863 133.38 112.193 133.134 112.855C132.888 113.516 133.204 114.259 133.838 114.516Z" fill="#372779"/>
<path opacity="0.4" d="M121.279 116.342C121.889 116.588 122.574 116.272 122.811 115.635C122.873 115.469 122.895 115.295 122.887 115.129C122.974 115.144 123.062 115.097 123.095 115.009C123.133 114.907 123.084 114.792 122.987 114.754C122.927 114.73 122.867 114.742 122.817 114.775C122.705 114.451 122.469 114.174 122.135 114.039C121.525 113.792 120.84 114.109 120.604 114.745C120.366 115.38 120.669 116.095 121.279 116.342Z" fill="#372779"/>
<path opacity="0.4" d="M119.2 133.299C119.417 132.714 119.138 132.056 118.577 131.829C118.017 131.603 117.386 131.894 117.169 132.479C116.952 133.064 117.231 133.722 117.792 133.948C118.352 134.175 118.983 133.885 119.2 133.299Z" fill="#372779"/>
<path opacity="0.4" d="M120.428 136.285C120.645 135.7 120.366 135.042 119.805 134.815C119.245 134.589 118.614 134.88 118.397 135.465C118.18 136.05 118.459 136.708 119.02 136.934C119.58 137.161 120.211 136.869 120.428 136.285Z" fill="#372779"/>
<path opacity="0.4" d="M125.04 135.075C124.48 134.848 123.849 135.14 123.632 135.725C123.415 136.309 123.694 136.967 124.255 137.194C124.815 137.421 125.446 137.129 125.663 136.544C125.88 135.959 125.601 135.301 125.04 135.075Z" fill="#372779"/>
<path opacity="0.4" d="M111.696 129.112C112.566 129.463 113.545 129.012 113.882 128.104C114.219 127.196 113.786 126.174 112.916 125.823C112.046 125.471 111.067 125.923 110.73 126.831C110.393 127.739 110.824 128.76 111.696 129.112Z" fill="#372779"/>
<path opacity="0.4" d="M122.044 133.707C121.581 133.52 121.061 133.76 120.88 134.244C120.701 134.727 120.931 135.27 121.394 135.458C121.857 135.645 122.378 135.405 122.559 134.922C122.739 134.437 122.507 133.894 122.044 133.707Z" fill="#372779"/>
<path opacity="0.4" d="M122.701 130.158C122.383 130.03 122.027 130.195 121.904 130.525C121.781 130.855 121.939 131.228 122.255 131.356C122.573 131.484 122.929 131.319 123.052 130.99C123.176 130.658 123.018 130.286 122.701 130.158Z" fill="#372779"/>
<path opacity="0.4" d="M114.459 134.721C114.818 133.755 114.356 132.667 113.43 132.294C112.504 131.919 111.461 132.401 111.103 133.367C110.744 134.333 111.206 135.421 112.132 135.794C113.058 136.168 114.099 135.688 114.459 134.721Z" fill="#372779"/>
<path opacity="0.4" d="M123.105 125.925C122.945 126.358 123.149 126.845 123.565 127.011C123.98 127.178 124.446 126.965 124.606 126.531C124.766 126.098 124.561 125.612 124.146 125.445C123.731 125.277 123.264 125.492 123.105 125.925Z" fill="#372779"/>
<path opacity="0.4" d="M108.687 133.964C108.925 133.321 108.62 132.598 108.004 132.348C107.387 132.099 106.694 132.418 106.455 133.062C106.217 133.705 106.522 134.429 107.14 134.678C107.755 134.927 108.448 134.608 108.687 133.964Z" fill="#372779"/>
<path opacity="0.4" d="M114.435 115.014C114.673 114.371 114.368 113.647 113.751 113.398C113.135 113.149 112.442 113.468 112.202 114.111C111.964 114.754 112.269 115.477 112.887 115.727C113.502 115.977 114.197 115.657 114.435 115.014Z" fill="#372779"/>
<path opacity="0.4" d="M124.191 169.311C123.574 169.063 122.881 169.381 122.642 170.024C122.404 170.667 122.709 171.39 123.325 171.64C123.941 171.888 124.635 171.57 124.874 170.927C125.114 170.284 124.807 169.559 124.191 169.311Z" fill="#372779"/>
<path opacity="0.4" d="M144.48 176.718C143.682 176.397 142.784 176.81 142.476 177.641C142.168 178.474 142.564 179.411 143.361 179.732C144.159 180.054 145.057 179.641 145.365 178.809C145.675 177.976 145.277 177.04 144.48 176.718Z" fill="#372779"/>
<path opacity="0.4" d="M127.854 114.494C128.098 114.592 128.371 114.466 128.467 114.212C128.562 113.958 128.44 113.673 128.197 113.574C127.953 113.476 127.68 113.603 127.584 113.856C127.488 114.109 127.61 114.396 127.854 114.494Z" fill="#372779"/>
<path opacity="0.4" d="M124.767 123.152C125.646 123.507 126.632 123.053 126.973 122.136C127.313 121.22 126.877 120.19 125.998 119.835C125.12 119.48 124.133 119.935 123.793 120.852C123.453 121.768 123.889 122.798 124.767 123.152Z" fill="#372779"/>
<path opacity="0.4" d="M124.584 126.521C124.829 125.86 124.513 125.117 123.879 124.86C123.245 124.603 122.531 124.933 122.287 125.595C122.041 126.256 122.356 126.999 122.991 127.256C123.625 127.512 124.338 127.183 124.584 126.521Z" fill="#372779"/>
<path opacity="0.4" d="M126.224 125.383C125.903 126.248 126.315 127.221 127.143 127.556C127.972 127.891 128.905 127.461 129.226 126.596C129.547 125.732 129.135 124.759 128.306 124.424C127.477 124.089 126.545 124.519 126.224 125.383Z" fill="#372779"/>
<path opacity="0.4" d="M128.651 121.172C128.49 121.605 128.696 122.09 129.111 122.258C129.526 122.425 129.991 122.21 130.152 121.778C130.313 121.345 130.107 120.858 129.692 120.692C129.277 120.525 128.811 120.74 128.651 121.172Z" fill="#372779"/>
<path opacity="0.4" d="M125.499 129.117C125.28 129.029 125.032 129.142 124.948 129.372C124.863 129.6 124.972 129.858 125.192 129.947C125.412 130.035 125.658 129.922 125.743 129.693C125.828 129.462 125.719 129.205 125.499 129.117Z" fill="#372779"/>
<path opacity="0.4" d="M122.016 130.57C122.699 130.846 123.466 130.492 123.731 129.78C123.996 129.067 123.656 128.267 122.974 127.991C122.29 127.714 121.524 128.069 121.259 128.781C120.993 129.492 121.332 130.293 122.016 130.57Z" fill="#372779"/>
<path opacity="0.4" d="M124.405 133.707C124.603 133.172 124.349 132.572 123.836 132.366C123.324 132.159 122.749 132.424 122.551 132.959C122.353 133.494 122.606 134.093 123.119 134.3C123.632 134.506 124.207 134.24 124.405 133.707Z" fill="#372779"/>
<path opacity="0.4" d="M127.688 132.384C127.961 131.646 127.61 130.816 126.904 130.531C126.196 130.247 125.401 130.613 125.128 131.349C124.855 132.088 125.206 132.917 125.912 133.202C126.62 133.489 127.415 133.122 127.688 132.384Z" fill="#372779"/>
<path opacity="0.4" d="M117.776 128.857C117.638 129.225 117.814 129.64 118.168 129.783C118.521 129.927 118.919 129.743 119.056 129.374C119.194 129.005 119.018 128.591 118.663 128.447C118.311 128.306 117.913 128.489 117.776 128.857Z" fill="#372779"/>
<path opacity="0.4" d="M128.245 129.378C128.142 129.658 128.274 129.973 128.542 130.082C128.811 130.19 129.113 130.052 129.216 129.772C129.32 129.492 129.188 129.177 128.919 129.069C128.651 128.959 128.349 129.099 128.245 129.378Z" fill="#372779"/>
<path opacity="0.4" d="M134.482 140.213C134.213 140.105 133.911 140.243 133.808 140.523C133.704 140.803 133.836 141.118 134.105 141.226C134.373 141.334 134.675 141.196 134.779 140.916C134.882 140.636 134.75 140.321 134.482 140.213Z" fill="#372779"/>
<path opacity="0.4" d="M130.789 125.532C131.447 125.798 132.188 125.457 132.444 124.768C132.699 124.082 132.372 123.309 131.712 123.044C131.054 122.778 130.313 123.119 130.059 123.807C129.804 124.494 130.131 125.267 130.789 125.532Z" fill="#372779"/>
<path opacity="0.4" d="M133.761 135.313C134.017 134.627 133.689 133.854 133.03 133.587C132.372 133.321 131.631 133.662 131.375 134.35C131.12 135.037 131.447 135.81 132.107 136.076C132.765 136.341 133.506 136 133.761 135.313Z" fill="#372779"/>
<path opacity="0.4" d="M132.806 120.097C133.44 120.354 134.153 120.024 134.399 119.362C134.644 118.701 134.328 117.958 133.694 117.701C133.06 117.445 132.348 117.775 132.102 118.436C131.858 119.096 132.172 119.84 132.806 120.097Z" fill="#372779"/>
<path opacity="0.4" d="M128.675 119.327C129.285 119.574 129.97 119.257 130.206 118.621C130.269 118.454 130.291 118.281 130.283 118.114C130.369 118.129 130.457 118.082 130.491 117.994C130.529 117.893 130.48 117.778 130.382 117.739C130.323 117.716 130.262 117.728 130.213 117.761C130.101 117.436 129.865 117.159 129.531 117.025C128.921 116.778 128.236 117.094 127.999 117.731C127.762 118.366 128.065 119.082 128.675 119.327Z" fill="#372779"/>
<path opacity="0.4" d="M126.596 136.286C126.813 135.701 126.535 135.043 125.973 134.817C125.412 134.59 124.782 134.882 124.564 135.466C124.347 136.051 124.627 136.709 125.187 136.936C125.748 137.162 126.379 136.871 126.596 136.286Z" fill="#372779"/>
<path opacity="0.4" d="M127.824 139.272C128.041 138.687 127.763 138.029 127.201 137.802C126.64 137.576 126.01 137.867 125.792 138.452C125.575 139.037 125.855 139.695 126.415 139.921C126.976 140.148 127.607 139.856 127.824 139.272Z" fill="#372779"/>
<path opacity="0.4" d="M132.436 138.062C131.875 137.835 131.245 138.127 131.027 138.712C130.81 139.296 131.09 139.954 131.65 140.181C132.211 140.408 132.842 140.116 133.059 139.531C133.276 138.947 132.996 138.288 132.436 138.062Z" fill="#372779"/>
<path opacity="0.4" d="M118.459 134.272C119.044 134.508 119.703 134.205 119.928 133.594C120.155 132.984 119.864 132.296 119.278 132.061C118.694 131.824 118.034 132.128 117.809 132.739C117.582 133.349 117.873 134.035 118.459 134.272Z" fill="#372779"/>
<path opacity="0.4" d="M129.44 136.695C128.977 136.508 128.456 136.748 128.276 137.231C128.097 137.714 128.327 138.257 128.79 138.446C129.253 138.632 129.774 138.392 129.954 137.909C130.135 137.424 129.903 136.881 129.44 136.695Z" fill="#372779"/>
<path opacity="0.4" d="M130.098 133.145C129.782 133.017 129.424 133.182 129.301 133.512C129.178 133.844 129.336 134.215 129.652 134.343C129.97 134.472 130.326 134.307 130.449 133.977C130.572 133.645 130.414 133.274 130.098 133.145Z" fill="#372779"/>
<path opacity="0.4" d="M121.854 137.709C122.214 136.743 121.752 135.655 120.826 135.282C119.899 134.907 118.857 135.388 118.499 136.355C118.14 137.321 118.601 138.409 119.527 138.782C120.454 139.155 121.495 138.675 121.854 137.709Z" fill="#372779"/>
<path opacity="0.4" d="M112.379 131.869C112.635 131.183 112.307 130.41 111.648 130.143C110.99 129.877 110.249 130.218 109.993 130.906C109.738 131.593 110.065 132.366 110.725 132.632C111.384 132.897 112.124 132.556 112.379 131.869Z" fill="#372779"/>
<path opacity="0.4" d="M105.215 132.842C105.433 132.258 105.153 131.599 104.593 131.373C104.032 131.146 103.401 131.438 103.184 132.023C102.967 132.607 103.246 133.266 103.807 133.492C104.367 133.719 104.998 133.427 105.215 132.842Z" fill="#372779"/>
<path opacity="0.4" d="M106.442 135.828C106.659 135.243 106.38 134.585 105.819 134.358C105.258 134.132 104.628 134.423 104.41 135.008C104.193 135.593 104.473 136.251 105.033 136.478C105.595 136.704 106.225 136.413 106.442 135.828Z" fill="#372779"/>
<path opacity="0.4" d="M108.06 133.249C107.596 133.062 107.076 133.302 106.895 133.785C106.716 134.268 106.946 134.812 107.41 135C107.873 135.186 108.393 134.947 108.574 134.463C108.753 133.98 108.523 133.437 108.06 133.249Z" fill="#372779"/>
<path opacity="0.4" d="M108.716 129.7C108.4 129.572 108.042 129.737 107.919 130.067C107.796 130.396 107.954 130.77 108.27 130.898C108.587 131.026 108.944 130.861 109.067 130.531C109.19 130.2 109.034 129.828 108.716 129.7Z" fill="#372779"/>
<path opacity="0.4" d="M108.029 130.112C108.713 130.386 109.479 130.033 109.744 129.32C110.008 128.607 109.669 127.807 108.987 127.531C108.304 127.256 107.537 127.609 107.272 128.321C107.007 129.035 107.347 129.837 108.029 130.112Z" fill="#372779"/>
<path opacity="0.4" d="M110.42 133.249C110.618 132.714 110.364 132.114 109.851 131.908C109.339 131.701 108.764 131.966 108.566 132.501C108.368 133.036 108.622 133.635 109.134 133.842C109.645 134.048 110.222 133.784 110.42 133.249Z" fill="#372779"/>
<path opacity="0.4" d="M104.473 133.814C105.059 134.05 105.717 133.747 105.944 133.136C106.17 132.526 105.88 131.838 105.294 131.603C104.709 131.366 104.05 131.669 103.824 132.281C103.596 132.891 103.888 133.577 104.473 133.814Z" fill="#372779"/>
<path opacity="0.4" d="M107.868 137.251C108.227 136.284 107.766 135.197 106.84 134.823C105.913 134.448 104.87 134.93 104.511 135.896C104.152 136.863 104.613 137.951 105.54 138.324C106.467 138.699 107.51 138.217 107.868 137.251Z" fill="#372779"/>
<path opacity="0.4" d="M130.5 128.912C130.339 129.345 130.545 129.832 130.96 129.998C131.375 130.166 131.842 129.952 132.001 129.518C132.161 129.085 131.957 128.599 131.541 128.432C131.126 128.264 130.662 128.479 130.5 128.912Z" fill="#372779"/>
<path opacity="0.4" d="M116.436 137.532C116.597 137.099 116.391 136.613 115.976 136.446C115.561 136.279 115.094 136.493 114.935 136.926C114.775 137.359 114.979 137.846 115.394 138.012C115.81 138.18 116.274 137.965 116.436 137.532Z" fill="#372779"/>
<path opacity="0.4" d="M120.3 124.792C120.46 124.359 120.256 123.872 119.84 123.706C119.425 123.539 118.959 123.752 118.799 124.185C118.64 124.619 118.844 125.105 119.259 125.272C119.674 125.44 120.139 125.225 120.3 124.792Z" fill="#372779"/>
<path opacity="0.4" d="M123.514 109.535C124.392 109.89 125.379 109.435 125.719 108.519C126.059 107.603 125.623 106.573 124.745 106.218C123.866 105.863 122.88 106.318 122.539 107.235C122.199 108.151 122.635 109.181 123.514 109.535Z" fill="#372779"/>
<path opacity="0.4" d="M123.33 112.905C123.576 112.243 123.26 111.5 122.626 111.243C121.992 110.987 121.279 111.317 121.033 111.978C120.787 112.64 121.104 113.383 121.738 113.639C122.372 113.894 123.084 113.566 123.33 112.905Z" fill="#372779"/>
<path opacity="0.4" d="M161.705 113.864C161.568 114.232 161.744 114.645 162.097 114.789C162.449 114.93 162.846 114.749 162.983 114.381C163.12 114.012 162.945 113.599 162.592 113.456C162.239 113.314 161.841 113.496 161.705 113.864Z" fill="#372779"/>
<path opacity="0.4" d="M142.784 108.526C142.625 108.959 142.829 109.444 143.244 109.612C143.659 109.779 144.124 109.564 144.285 109.132C144.447 108.699 144.241 108.213 143.826 108.046C143.41 107.878 142.946 108.093 142.784 108.526Z" fill="#372779"/>
<path opacity="0.4" d="M124.245 115.498C124.026 115.41 123.779 115.523 123.694 115.753C123.609 115.982 123.718 116.24 123.938 116.328C124.157 116.416 124.405 116.303 124.489 116.073C124.574 115.845 124.465 115.588 124.245 115.498Z" fill="#372779"/>
<path opacity="0.4" d="M120.762 116.953C121.445 117.23 122.212 116.875 122.477 116.163C122.74 115.45 122.402 114.65 121.718 114.374C121.035 114.097 120.268 114.452 120.003 115.164C119.74 115.875 120.078 116.676 120.762 116.953Z" fill="#372779"/>
<path opacity="0.4" d="M116.822 110.43C116.618 110.978 116.88 111.596 117.407 111.808C117.932 112.021 118.525 111.748 118.727 111.2C118.93 110.652 118.67 110.034 118.144 109.822C117.617 109.609 117.027 109.882 116.822 110.43Z" fill="#372779"/>
<path opacity="0.4" d="M126.992 115.76C126.888 116.04 127.02 116.355 127.289 116.463C127.557 116.572 127.859 116.433 127.963 116.154C128.066 115.874 127.934 115.559 127.666 115.45C127.397 115.342 127.096 115.482 126.992 115.76Z" fill="#372779"/>
<path opacity="0.4" d="M164.585 118.495C165.243 118.762 165.984 118.42 166.239 117.732C166.495 117.046 166.167 116.273 165.508 116.008C164.85 115.741 164.109 116.083 163.853 116.771C163.599 117.457 163.927 118.229 164.585 118.495Z" fill="#372779"/>
<path opacity="0.4" d="M146.941 107.45C147.575 107.706 148.287 107.376 148.533 106.715C148.779 106.054 148.465 105.31 147.829 105.054C147.195 104.797 146.483 105.127 146.237 105.789C145.991 106.45 146.307 107.193 146.941 107.45Z" fill="#372779"/>
<path opacity="0.4" d="M142.808 106.682C143.418 106.928 144.103 106.612 144.34 105.975C144.402 105.809 144.424 105.636 144.416 105.469C144.503 105.484 144.59 105.437 144.624 105.349C144.662 105.247 144.613 105.132 144.515 105.094C144.456 105.071 144.396 105.082 144.346 105.116C144.234 104.791 143.998 104.514 143.664 104.379C143.054 104.133 142.369 104.449 142.133 105.086C141.896 105.721 142.198 106.435 142.808 106.682Z" fill="#372779"/>
<path opacity="0.4" d="M129.247 115.294C129.087 115.727 129.291 116.212 129.707 116.38C130.122 116.546 130.588 116.332 130.748 115.9C130.909 115.467 130.703 114.98 130.288 114.814C129.873 114.647 129.406 114.862 129.247 115.294Z" fill="#372779"/>
<path opacity="0.4" d="M129.061 111.208C129.299 110.565 128.994 109.842 128.378 109.592C127.761 109.344 127.068 109.662 126.829 110.305C126.591 110.948 126.896 111.672 127.514 111.921C128.129 112.171 128.823 111.851 129.061 111.208Z" fill="#372779"/>
<path opacity="0.4" d="M139.488 105.002C139.726 104.359 139.421 103.636 138.805 103.386C138.188 103.138 137.495 103.456 137.256 104.099C137.018 104.742 137.323 105.465 137.939 105.715C138.557 105.965 139.25 105.645 139.488 105.002Z" fill="#372779"/>
<path opacity="0.4" d="M129.515 144.283C130.393 144.638 131.38 144.183 131.72 143.267C132.061 142.351 131.625 141.321 130.746 140.966C129.868 140.611 128.881 141.066 128.541 141.982C128.202 142.899 128.638 143.928 129.515 144.283Z" fill="#372779"/>
<path opacity="0.4" d="M130.725 115.892C130.971 115.23 130.655 114.486 130.021 114.231C129.387 113.974 128.675 114.304 128.429 114.965C128.183 115.627 128.498 116.37 129.133 116.626C129.767 116.881 130.479 116.553 130.725 115.892Z" fill="#372779"/>
<path opacity="0.4" d="M157.095 111.551C156.774 112.416 157.186 113.389 158.015 113.724C158.844 114.059 159.776 113.629 160.097 112.764C160.418 111.9 160.006 110.927 159.177 110.592C158.348 110.255 157.416 110.685 157.095 111.551Z" fill="#372779"/>
<path opacity="0.4" d="M135.797 109.094C135.476 109.959 135.889 110.932 136.717 111.267C137.546 111.602 138.479 111.172 138.8 110.307C139.121 109.442 138.709 108.469 137.88 108.134C137.051 107.8 136.118 108.229 135.797 109.094Z" fill="#372779"/>
<path opacity="0.4" d="M150.18 111.513C150.02 111.947 150.225 112.433 150.64 112.6C151.055 112.768 151.521 112.551 151.681 112.12C151.841 111.687 151.636 111.2 151.221 111.033C150.808 110.865 150.341 111.08 150.18 111.513Z" fill="#372779"/>
<path opacity="0.4" d="M131.641 118.486C131.422 118.397 131.174 118.511 131.09 118.739C131.005 118.967 131.114 119.226 131.334 119.314C131.553 119.402 131.8 119.289 131.885 119.059C131.97 118.832 131.861 118.574 131.641 118.486Z" fill="#372779"/>
<path opacity="0.4" d="M128.157 119.94C128.841 120.215 129.608 119.862 129.873 119.149C130.138 118.436 129.798 117.636 129.116 117.359C128.432 117.084 127.666 117.438 127.401 118.149C127.135 118.862 127.474 119.664 128.157 119.94Z" fill="#372779"/>
<path opacity="0.4" d="M128.392 106.58C129.076 106.856 129.842 106.502 130.107 105.79C130.373 105.077 130.032 104.277 129.35 104.001C128.667 103.724 127.9 104.079 127.635 104.791C127.37 105.504 127.71 106.305 128.392 106.58Z" fill="#372779"/>
<path opacity="0.4" d="M134.387 118.747C134.284 119.027 134.416 119.342 134.684 119.45C134.953 119.559 135.254 119.42 135.358 119.141C135.462 118.861 135.33 118.546 135.061 118.438C134.793 118.329 134.491 118.467 134.387 118.747Z" fill="#372779"/>
<path opacity="0.4" d="M152.32 115.873C152.978 116.14 153.719 115.798 153.974 115.11C154.23 114.424 153.902 113.651 153.243 113.384C152.585 113.118 151.844 113.459 151.588 114.147C151.335 114.834 151.66 115.607 152.32 115.873Z" fill="#372779"/>
<path opacity="0.4" d="M130.467 107.285C130.146 108.149 130.558 109.122 131.387 109.457C132.215 109.792 133.148 109.362 133.469 108.497C133.79 107.633 133.378 106.66 132.549 106.325C131.72 105.99 130.788 106.42 130.467 107.285Z" fill="#372779"/>
<path opacity="0.4" d="M132.893 103.075C132.733 103.508 132.937 103.993 133.352 104.161C133.768 104.327 134.234 104.113 134.394 103.681C134.553 103.248 134.349 102.761 133.934 102.595C133.52 102.427 133.054 102.641 132.893 103.075Z" fill="#372779"/>
<path opacity="0.4" d="M135.032 107.435C135.69 107.702 136.431 107.36 136.687 106.672C136.942 105.985 136.615 105.212 135.956 104.946C135.298 104.679 134.557 105.021 134.301 105.709C134.047 106.397 134.375 107.168 135.032 107.435Z" fill="#372779"/>
<path opacity="0.4" d="M154.337 110.437C154.971 110.694 155.683 110.364 155.929 109.702C156.175 109.041 155.859 108.298 155.225 108.041C154.591 107.785 153.879 108.114 153.633 108.776C153.388 109.437 153.703 110.18 154.337 110.437Z" fill="#372779"/>
<path opacity="0.4" d="M150.204 109.669C150.814 109.915 151.499 109.599 151.735 108.962C151.798 108.796 151.82 108.623 151.812 108.454C151.898 108.469 151.986 108.423 152.02 108.334C152.058 108.233 152.008 108.118 151.911 108.079C151.852 108.056 151.791 108.068 151.742 108.101C151.63 107.776 151.394 107.5 151.06 107.365C150.45 107.118 149.765 107.435 149.528 108.071C149.292 108.708 149.595 109.422 150.204 109.669Z" fill="#372779"/>
<path opacity="0.4" d="M136.642 118.281C136.483 118.714 136.687 119.2 137.102 119.367C137.517 119.534 137.984 119.32 138.143 118.887C138.303 118.454 138.099 117.968 137.684 117.801C137.268 117.634 136.804 117.849 136.642 118.281Z" fill="#372779"/>
<path opacity="0.4" d="M126.442 114.162C126.602 113.729 126.396 113.243 125.982 113.076C125.567 112.909 125.101 113.123 124.941 113.556C124.78 113.989 124.986 114.475 125.401 114.642C125.816 114.809 126.281 114.594 126.442 114.162Z" fill="#372779"/>
<path opacity="0.4" d="M135.25 117.481C135.494 117.579 135.767 117.453 135.863 117.2C135.957 116.945 135.836 116.66 135.593 116.561C135.349 116.463 135.076 116.59 134.98 116.843C134.884 117.096 135.005 117.383 135.25 117.481Z" fill="#372779"/>
<path opacity="0.4" d="M122.394 96.8551C123.028 97.1116 123.74 96.7818 123.986 96.1203C124.232 95.4589 123.916 94.7158 123.282 94.4593C122.648 94.2027 121.936 94.5326 121.69 95.194C121.445 95.8554 121.76 96.5985 122.394 96.8551Z" fill="#372779"/>
<path opacity="0.4" d="M121.364 102.436C121.998 102.693 122.71 102.363 122.956 101.702C123.202 101.04 122.886 100.297 122.252 100.041C121.618 99.784 120.906 100.114 120.66 100.775C120.415 101.437 120.73 102.18 121.364 102.436Z" fill="#372779"/>
<path opacity="0.4" d="M117.231 101.668C117.841 101.915 118.526 101.598 118.762 100.962C118.825 100.795 118.847 100.622 118.839 100.455C118.925 100.47 119.013 100.424 119.045 100.335C119.083 100.234 119.034 100.119 118.937 100.081C118.877 100.057 118.817 100.069 118.767 100.102C118.655 99.7774 118.419 99.5008 118.085 99.3658C117.475 99.1193 116.79 99.4358 116.554 100.072C116.319 100.707 116.623 101.422 117.231 101.668Z" fill="#372779"/>
<path opacity="0.4" d="M117.804 97.6348C117.643 98.068 117.849 98.5545 118.264 98.7211C118.68 98.8877 119.146 98.6744 119.306 98.2412C119.465 97.8081 119.261 97.3216 118.846 97.155C118.43 96.9867 117.964 97.2016 117.804 97.6348Z" fill="#372779"/>
<path opacity="0.4" d="M119.283 98.2313C119.529 97.5699 119.213 96.8251 118.579 96.5702C117.945 96.3136 117.231 96.6435 116.987 97.305C116.741 97.9664 117.055 98.7095 117.691 98.966C118.323 99.2226 119.037 98.8927 119.283 98.2313Z" fill="#372779"/>
<path opacity="0.4" d="M120.198 100.827C119.979 100.739 119.732 100.852 119.647 101.082C119.563 101.31 119.671 101.569 119.892 101.657C120.11 101.745 120.358 101.632 120.442 101.404C120.527 101.172 120.419 100.916 120.198 100.827Z" fill="#372779"/>
<path opacity="0.4" d="M116.714 102.28C117.397 102.555 118.164 102.202 118.429 101.49C118.694 100.777 118.354 99.9775 117.672 99.7009C116.988 99.4243 116.222 99.7792 115.957 100.491C115.692 101.202 116.032 102.003 116.714 102.28Z" fill="#372779"/>
<path opacity="0.4" d="M122.945 101.089C122.841 101.369 122.974 101.683 123.242 101.792C123.51 101.9 123.812 101.762 123.916 101.482C124.02 101.202 123.887 100.887 123.619 100.779C123.351 100.669 123.049 100.809 122.945 101.089Z" fill="#372779"/>
<path opacity="0.4" d="M125.2 100.622C125.039 101.055 125.245 101.542 125.66 101.708C126.075 101.875 126.541 101.662 126.701 101.229C126.861 100.795 126.656 100.309 126.241 100.142C125.826 99.974 125.36 100.189 125.2 100.622Z" fill="#372779"/>
<path opacity="0.4" d="M123.807 99.8207C124.052 99.919 124.325 99.7924 124.421 99.5392C124.516 99.2859 124.393 98.9994 124.151 98.8994C123.906 98.8011 123.633 98.9277 123.537 99.181C123.442 99.4359 123.563 99.7224 123.807 99.8207Z" fill="#372779"/>
<path opacity="0.4" d="M112.057 112.505C112.935 112.859 113.922 112.405 114.262 111.488C114.602 110.572 114.166 109.542 113.288 109.187C112.41 108.832 111.423 109.287 111.083 110.204C110.742 111.12 111.178 112.15 112.057 112.505Z" fill="#372779"/>
<path opacity="0.4" d="M111.873 115.873C112.119 115.212 111.803 114.469 111.169 114.212C110.535 113.956 109.823 114.286 109.577 114.947C109.331 115.608 109.647 116.352 110.281 116.608C110.915 116.863 111.627 116.535 111.873 115.873Z" fill="#372779"/>
<path opacity="0.4" d="M113.513 114.735C113.192 115.6 113.604 116.573 114.433 116.908C115.262 117.243 116.194 116.813 116.515 115.948C116.836 115.084 116.424 114.111 115.596 113.776C114.767 113.441 113.834 113.871 113.513 114.735Z" fill="#372779"/>
<path opacity="0.4" d="M115.941 110.524C115.781 110.957 115.985 111.443 116.401 111.61C116.816 111.778 117.282 111.562 117.442 111.13C117.602 110.697 117.397 110.211 116.982 110.044C116.567 109.877 116.1 110.091 115.941 110.524Z" fill="#372779"/>
<path opacity="0.4" d="M112.788 118.467C112.569 118.379 112.322 118.492 112.237 118.722C112.153 118.951 112.261 119.209 112.482 119.297C112.7 119.385 112.948 119.272 113.032 119.042C113.117 118.814 113.009 118.557 112.788 118.467Z" fill="#372779"/>
<path opacity="0.4" d="M109.305 119.922C109.989 120.199 110.755 119.844 111.02 119.132C111.285 118.419 110.945 117.619 110.263 117.343C109.58 117.066 108.813 117.421 108.548 118.133C108.283 118.844 108.622 119.645 109.305 119.922Z" fill="#372779"/>
<path opacity="0.4" d="M111.694 123.059C111.892 122.524 111.638 121.925 111.126 121.718C110.613 121.511 110.038 121.776 109.84 122.311C109.642 122.846 109.896 123.446 110.409 123.652C110.921 123.859 111.496 123.592 111.694 123.059Z" fill="#372779"/>
<path opacity="0.4" d="M114.978 121.736C115.251 120.998 114.899 120.169 114.194 119.884C113.486 119.599 112.691 119.965 112.418 120.702C112.145 121.44 112.496 122.27 113.202 122.554C113.909 122.841 114.705 122.474 114.978 121.736Z" fill="#372779"/>
<path opacity="0.4" d="M115.535 118.729C115.431 119.009 115.564 119.324 115.832 119.432C116.1 119.54 116.402 119.402 116.506 119.122C116.61 118.842 116.477 118.527 116.209 118.419C115.941 118.311 115.639 118.449 115.535 118.729Z" fill="#372779"/>
<path opacity="0.4" d="M121.771 129.565C121.503 129.457 121.201 129.595 121.097 129.875C120.993 130.155 121.126 130.47 121.394 130.578C121.663 130.686 121.964 130.548 122.068 130.268C122.172 129.987 122.039 129.673 121.771 129.565Z" fill="#372779"/>
<path opacity="0.4" d="M118.079 114.884C118.737 115.15 119.478 114.809 119.732 114.121C119.987 113.434 119.66 112.661 119.002 112.395C118.344 112.128 117.603 112.47 117.348 113.158C117.094 113.846 117.421 114.617 118.079 114.884Z" fill="#372779"/>
<path opacity="0.4" d="M121.051 124.665C121.307 123.979 120.979 123.206 120.32 122.939C119.662 122.673 118.921 123.014 118.665 123.702C118.41 124.389 118.737 125.162 119.397 125.428C120.054 125.693 120.795 125.352 121.051 124.665Z" fill="#372779"/>
<path opacity="0.4" d="M120.096 109.447C120.73 109.704 121.442 109.374 121.688 108.712C121.934 108.051 121.618 107.308 120.984 107.051C120.35 106.795 119.636 107.125 119.392 107.786C119.147 108.447 119.462 109.192 120.096 109.447Z" fill="#372779"/>
<path opacity="0.4" d="M128.523 106.853C129.157 107.11 129.869 106.78 130.115 106.119C130.361 105.457 130.047 104.714 129.411 104.458C128.777 104.201 128.065 104.531 127.819 105.192C127.573 105.854 127.889 106.598 128.523 106.853Z" fill="#372779"/>
<path opacity="0.4" d="M115.965 108.679C116.575 108.926 117.26 108.609 117.496 107.973C117.558 107.806 117.581 107.633 117.573 107.466C117.659 107.481 117.747 107.435 117.78 107.346C117.819 107.245 117.769 107.13 117.672 107.092C117.613 107.068 117.552 107.08 117.502 107.113C117.391 106.788 117.154 106.512 116.821 106.377C116.211 106.13 115.525 106.447 115.289 107.083C115.051 107.718 115.355 108.433 115.965 108.679Z" fill="#372779"/>
<path opacity="0.4" d="M113.885 125.638C114.102 125.053 113.823 124.395 113.262 124.169C112.702 123.942 112.071 124.234 111.854 124.818C111.637 125.403 111.916 126.061 112.477 126.288C113.037 126.514 113.668 126.223 113.885 125.638Z" fill="#372779"/>
<path opacity="0.4" d="M115.113 128.624C115.331 128.039 115.051 127.381 114.491 127.154C113.93 126.928 113.299 127.219 113.082 127.804C112.865 128.389 113.144 129.047 113.705 129.273C114.265 129.5 114.896 129.208 115.113 128.624Z" fill="#372779"/>
<path opacity="0.4" d="M119.725 127.414C119.165 127.188 118.534 127.479 118.317 128.064C118.1 128.649 118.378 129.307 118.94 129.533C119.5 129.76 120.131 129.468 120.348 128.884C120.565 128.299 120.286 127.641 119.725 127.414Z" fill="#372779"/>
<path opacity="0.4" d="M101.579 140.741C102.449 141.093 103.428 140.641 103.765 139.733C104.102 138.825 103.669 137.804 102.799 137.452C101.929 137.101 100.95 137.552 100.613 138.46C100.276 139.368 100.709 140.39 101.579 140.741Z" fill="#372779"/>
<path opacity="0.4" d="M116.73 126.045C116.266 125.858 115.746 126.098 115.565 126.581C115.386 127.064 115.616 127.607 116.08 127.796C116.543 127.982 117.063 127.742 117.244 127.259C117.424 126.776 117.193 126.233 116.73 126.045Z" fill="#372779"/>
<path opacity="0.4" d="M117.386 122.496C117.07 122.367 116.712 122.532 116.589 122.862C116.466 123.194 116.624 123.565 116.94 123.694C117.257 123.822 117.614 123.657 117.737 123.327C117.862 122.997 117.704 122.624 117.386 122.496Z" fill="#372779"/>
<path opacity="0.4" d="M109.144 127.059C109.503 126.093 109.042 125.005 108.115 124.632C107.189 124.257 106.146 124.739 105.789 125.705C105.429 126.671 105.891 127.759 106.817 128.132C107.743 128.507 108.785 128.027 109.144 127.059Z" fill="#372779"/>
<path opacity="0.4" d="M117.79 118.262C117.63 118.696 117.835 119.182 118.25 119.349C118.665 119.515 119.13 119.302 119.291 118.869C119.452 118.436 119.246 117.949 118.831 117.783C118.416 117.616 117.951 117.831 117.79 118.262Z" fill="#372779"/>
<path opacity="0.4" d="M122.539 106.833C122.784 106.932 123.057 106.805 123.151 106.552C123.245 106.297 123.124 106.012 122.881 105.912C122.637 105.814 122.364 105.94 122.268 106.194C122.174 106.448 122.295 106.733 122.539 106.833Z" fill="#372779"/>
<path opacity="0.4" d="M119.452 115.492C120.331 115.847 121.318 115.392 121.658 114.476C121.998 113.559 121.562 112.53 120.684 112.175C119.805 111.82 118.818 112.275 118.478 113.191C118.138 114.107 118.574 115.137 119.452 115.492Z" fill="#372779"/>
<path opacity="0.4" d="M119.269 118.861C119.515 118.199 119.198 117.456 118.564 117.2C117.93 116.943 117.218 117.273 116.972 117.934C116.726 118.596 117.041 119.339 117.677 119.595C118.311 119.85 119.023 119.522 119.269 118.861Z" fill="#372779"/>
<path opacity="0.4" d="M120.91 117.723C120.589 118.588 121.001 119.56 121.83 119.895C122.659 120.23 123.592 119.8 123.913 118.936C124.234 118.071 123.822 117.098 122.993 116.763C122.162 116.427 121.231 116.856 120.91 117.723Z" fill="#372779"/>
<path opacity="0.4" d="M123.336 113.511C123.175 113.944 123.381 114.431 123.796 114.597C124.211 114.764 124.678 114.551 124.837 114.117C124.997 113.684 124.793 113.198 124.378 113.031C123.962 112.863 123.496 113.078 123.336 113.511Z" fill="#372779"/>
<path opacity="0.4" d="M120.184 121.455C119.965 121.367 119.717 121.48 119.633 121.71C119.548 121.938 119.657 122.196 119.877 122.285C120.096 122.373 120.343 122.26 120.428 122.03C120.513 121.801 120.404 121.543 120.184 121.455Z" fill="#372779"/>
<path opacity="0.4" d="M116.701 122.907C117.384 123.184 118.151 122.829 118.416 122.118C118.679 121.405 118.341 120.605 117.659 120.328C116.975 120.052 116.209 120.407 115.944 121.118C115.679 121.831 116.017 122.633 116.701 122.907Z" fill="#372779"/>
<path opacity="0.4" d="M119.09 126.045C119.288 125.51 119.034 124.91 118.521 124.704C118.009 124.497 117.434 124.762 117.236 125.297C117.038 125.832 117.292 126.431 117.804 126.638C118.317 126.844 118.892 126.58 119.09 126.045Z" fill="#372779"/>
<path opacity="0.4" d="M122.373 124.723C122.646 123.985 122.295 123.156 121.589 122.871C120.882 122.586 120.086 122.952 119.813 123.689C119.54 124.427 119.892 125.257 120.597 125.542C121.305 125.826 122.1 125.46 122.373 124.723Z" fill="#372779"/>
<path opacity="0.4" d="M112.461 121.197C112.323 121.565 112.499 121.98 112.854 122.123C113.207 122.266 113.604 122.083 113.742 121.713C113.879 121.345 113.703 120.93 113.349 120.787C112.996 120.643 112.598 120.827 112.461 121.197Z" fill="#372779"/>
<path opacity="0.4" d="M122.931 121.716C122.827 121.996 122.959 122.311 123.228 122.419C123.496 122.528 123.798 122.389 123.902 122.109C124.005 121.829 123.873 121.515 123.605 121.406C123.336 121.298 123.034 121.436 122.931 121.716Z" fill="#372779"/>
<path opacity="0.4" d="M125.475 117.871C126.133 118.138 126.874 117.796 127.129 117.108C127.385 116.422 127.057 115.649 126.398 115.382C125.74 115.115 124.999 115.457 124.743 116.145C124.489 116.833 124.817 117.605 125.475 117.871Z" fill="#372779"/>
<path opacity="0.4" d="M128.447 127.652C128.702 126.966 128.375 126.193 127.715 125.928C127.057 125.661 126.316 126.003 126.062 126.691C125.807 127.377 126.134 128.151 126.794 128.417C127.45 128.68 128.191 128.339 128.447 127.652Z" fill="#372779"/>
<path opacity="0.4" d="M130.979 103.098C130.658 103.963 131.07 104.936 131.899 105.27C132.728 105.605 133.661 105.175 133.982 104.311C134.303 103.446 133.891 102.473 133.062 102.138C132.233 101.803 131.3 102.233 130.979 103.098Z" fill="#372779"/>
<path opacity="0.4" d="M135.545 103.246C136.203 103.513 136.944 103.171 137.2 102.483C137.455 101.797 137.128 101.024 136.468 100.757C135.81 100.491 135.069 100.832 134.814 101.52C134.56 102.208 134.887 102.981 135.545 103.246Z" fill="#372779"/>
<path opacity="0.4" d="M135.256 106.626C135.096 107.06 135.301 107.544 135.716 107.713C136.131 107.881 136.598 107.664 136.757 107.233C136.919 106.8 136.713 106.313 136.297 106.147C135.882 105.978 135.416 106.193 135.256 106.626Z" fill="#372779"/>
<path opacity="0.4" d="M133.201 105.367C133.456 104.681 133.129 103.908 132.469 103.641C131.811 103.374 131.07 103.716 130.815 104.404C130.559 105.091 130.887 105.864 131.546 106.13C132.206 106.395 132.947 106.054 133.201 105.367Z" fill="#372779"/>
<path opacity="0.4" d="M127.492 112.435C128.126 112.691 128.838 112.361 129.084 111.7C129.33 111.039 129.015 110.296 128.38 110.039C127.746 109.782 127.033 110.112 126.787 110.774C126.543 111.435 126.858 112.18 127.492 112.435Z" fill="#372779"/>
<path opacity="0.4" d="M123.36 111.666C123.97 111.913 124.655 111.596 124.892 110.96C124.954 110.793 124.976 110.62 124.968 110.452C125.055 110.467 125.142 110.42 125.176 110.332C125.214 110.23 125.165 110.115 125.067 110.077C125.008 110.054 124.948 110.065 124.898 110.099C124.786 109.774 124.55 109.497 124.216 109.362C123.606 109.116 122.921 109.432 122.685 110.069C122.447 110.705 122.75 111.42 123.36 111.666Z" fill="#372779"/>
<path opacity="0.4" d="M121.281 128.626C121.498 128.041 121.219 127.383 120.658 127.156C120.098 126.929 119.467 127.221 119.25 127.806C119.032 128.391 119.312 129.049 119.872 129.275C120.433 129.5 121.064 129.21 121.281 128.626Z" fill="#372779"/>
<path opacity="0.4" d="M122.509 131.611C122.726 131.026 122.447 130.368 121.886 130.142C121.326 129.915 120.695 130.205 120.478 130.792C120.26 131.376 120.54 132.034 121.1 132.261C121.661 132.486 122.292 132.196 122.509 131.611Z" fill="#372779"/>
<path opacity="0.4" d="M127.121 130.401C126.561 130.175 125.93 130.466 125.713 131.051C125.495 131.636 125.775 132.294 126.335 132.521C126.896 132.747 127.527 132.456 127.744 131.871C127.961 131.286 127.682 130.628 127.121 130.401Z" fill="#372779"/>
<path opacity="0.4" d="M113.144 126.609C113.729 126.846 114.388 126.543 114.614 125.931C114.84 125.32 114.55 124.633 113.964 124.397C113.379 124.16 112.72 124.463 112.494 125.075C112.268 125.686 112.558 126.373 113.144 126.609Z" fill="#372779"/>
<path opacity="0.4" d="M124.125 129.032C123.662 128.845 123.141 129.085 122.961 129.569C122.782 130.052 123.012 130.595 123.475 130.783C123.938 130.97 124.459 130.73 124.639 130.247C124.82 129.763 124.59 129.22 124.125 129.032Z" fill="#372779"/>
<path opacity="0.4" d="M124.783 125.483C124.465 125.355 124.109 125.52 123.986 125.85C123.863 126.18 124.021 126.553 124.338 126.681C124.655 126.809 125.011 126.644 125.134 126.315C125.257 125.983 125.099 125.612 124.783 125.483Z" fill="#372779"/>
<path opacity="0.4" d="M116.539 130.047C116.899 129.08 116.437 127.992 115.511 127.619C114.585 127.244 113.542 127.726 113.183 128.692C112.823 129.658 113.285 130.746 114.211 131.12C115.139 131.495 116.18 131.015 116.539 130.047Z" fill="#372779"/>
<path opacity="0.4" d="M102.264 143.497C102.52 142.81 102.192 142.037 101.533 141.772C100.875 141.506 100.134 141.847 99.8782 142.536C99.6227 143.222 99.9501 143.995 100.61 144.262C101.268 144.525 102.009 144.185 102.264 143.497Z" fill="#372779"/>
<path opacity="0.4" d="M125.186 121.25C125.026 121.683 125.23 122.168 125.646 122.336C126.061 122.503 126.527 122.288 126.687 121.856C126.848 121.423 126.642 120.937 126.227 120.77C125.812 120.603 125.347 120.818 125.186 121.25Z" fill="#372779"/>
<path opacity="0.4" d="M111.121 129.872C111.281 129.439 111.076 128.952 110.661 128.786C110.246 128.619 109.78 128.834 109.62 129.265C109.46 129.699 109.665 130.185 110.08 130.352C110.495 130.518 110.96 130.305 111.121 129.872Z" fill="#372779"/>
<path opacity="0.4" d="M114.986 117.129C115.145 116.696 114.941 116.21 114.526 116.043C114.11 115.877 113.644 116.091 113.484 116.523C113.323 116.956 113.531 117.443 113.944 117.609C114.36 117.777 114.824 117.563 114.986 117.129Z" fill="#372779"/>
<path opacity="0.4" d="M118.199 101.875C119.077 102.23 120.064 101.775 120.404 100.859C120.744 99.9424 120.308 98.9127 119.43 98.5579C118.552 98.203 117.565 98.6578 117.225 99.5742C116.884 100.49 117.32 101.52 118.199 101.875Z" fill="#372779"/>
<path opacity="0.4" d="M118.015 105.244C118.261 104.582 117.945 103.838 117.311 103.583C116.677 103.326 115.965 103.656 115.719 104.318C115.473 104.979 115.789 105.722 116.423 105.979C117.057 106.234 117.769 105.905 118.015 105.244Z" fill="#372779"/>
<path opacity="0.4" d="M118.93 107.838C118.711 107.75 118.464 107.863 118.379 108.091C118.295 108.319 118.403 108.578 118.624 108.666C118.842 108.754 119.09 108.641 119.175 108.411C119.259 108.185 119.151 107.926 118.93 107.838Z" fill="#372779"/>
<path opacity="0.4" d="M115.447 109.291C116.131 109.566 116.897 109.212 117.162 108.499C117.427 107.786 117.087 106.987 116.405 106.71C115.722 106.433 114.955 106.788 114.69 107.5C114.425 108.215 114.764 109.016 115.447 109.291Z" fill="#372779"/>
<path opacity="0.4" d="M121.677 108.099C121.573 108.379 121.706 108.694 121.974 108.802C122.242 108.911 122.544 108.772 122.648 108.493C122.752 108.213 122.619 107.898 122.351 107.789C122.083 107.681 121.781 107.819 121.677 108.099Z" fill="#372779"/>
<path opacity="0.4" d="M123.932 107.633C123.772 108.066 123.977 108.553 124.392 108.719C124.807 108.886 125.272 108.673 125.433 108.24C125.593 107.806 125.388 107.32 124.973 107.153C124.558 106.985 124.093 107.2 123.932 107.633Z" fill="#372779"/>
<path opacity="0.4" d="M123.747 103.548C123.985 102.905 123.68 102.182 123.063 101.932C122.447 101.684 121.754 102.002 121.514 102.647C121.276 103.29 121.581 104.013 122.199 104.263C122.814 104.511 123.509 104.191 123.747 103.548Z" fill="#372779"/>
<path opacity="0.4" d="M124.2 136.623C125.079 136.978 126.065 136.523 126.406 135.606C126.746 134.69 126.31 133.66 125.431 133.306C124.553 132.951 123.566 133.405 123.226 134.322C122.888 135.238 123.323 136.268 124.2 136.623Z" fill="#372779"/>
<path opacity="0.4" d="M125.411 108.231C125.657 107.57 125.34 106.827 124.706 106.57C124.072 106.313 123.36 106.643 123.114 107.305C122.868 107.966 123.183 108.709 123.819 108.966C124.453 109.221 125.165 108.892 125.411 108.231Z" fill="#372779"/>
<path opacity="0.4" d="M126.406 105.3C126.652 104.639 126.335 103.896 125.701 103.639C125.067 103.383 124.355 103.713 124.109 104.374C123.863 105.035 124.179 105.779 124.813 106.035C125.447 106.29 126.16 105.962 126.406 105.3Z" fill="#372779"/>
<path opacity="0.4" d="M133.593 102.125C133.641 101.198 132.96 100.407 132.072 100.358C131.184 100.308 130.426 101.019 130.378 101.945C130.331 102.871 131.012 103.662 131.9 103.712C132.788 103.761 133.546 103.051 133.593 102.125Z" fill="#372779"/>
<path opacity="0.4" d="M126.326 110.825C126.107 110.737 125.859 110.85 125.775 111.08C125.69 111.308 125.799 111.567 126.019 111.655C126.238 111.743 126.485 111.63 126.57 111.402C126.655 111.172 126.546 110.913 126.326 110.825Z" fill="#372779"/>
<path opacity="0.4" d="M122.843 112.278C123.526 112.555 124.293 112.2 124.558 111.488C124.821 110.775 124.483 109.976 123.801 109.699C123.117 109.422 122.351 109.777 122.086 110.489C121.821 111.202 122.159 112.003 122.843 112.278Z" fill="#372779"/>
<path opacity="0.4" d="M129.073 111.087C128.969 111.367 129.101 111.682 129.37 111.79C129.638 111.898 129.94 111.76 130.044 111.48C130.147 111.2 130.015 110.885 129.746 110.777C129.478 110.667 129.176 110.807 129.073 111.087Z" fill="#372779"/>
<path opacity="0.4" d="M125.152 99.6243C124.831 100.489 125.243 101.462 126.072 101.797C126.901 102.132 127.833 101.702 128.154 100.837C128.475 99.9725 128.063 98.9995 127.234 98.6646C126.406 98.3297 125.473 98.7596 125.152 99.6243Z" fill="#372779"/>
<path opacity="0.4" d="M131.328 110.62C131.168 111.053 131.372 111.54 131.787 111.706C132.203 111.873 132.669 111.66 132.829 111.227C132.988 110.793 132.784 110.307 132.369 110.14C131.954 109.972 131.489 110.187 131.328 110.62Z" fill="#372779"/>
<path opacity="0.4" d="M121.128 106.5C121.287 106.067 121.083 105.58 120.668 105.414C120.252 105.247 119.786 105.46 119.626 105.894C119.465 106.327 119.673 106.813 120.086 106.98C120.502 107.148 120.966 106.933 121.128 106.5Z" fill="#372779"/>
<path opacity="0.4" d="M129.935 109.819C130.179 109.917 130.452 109.79 130.548 109.537C130.642 109.282 130.521 108.997 130.278 108.897C130.034 108.799 129.761 108.926 129.667 109.179C129.569 109.436 129.691 109.72 129.935 109.819Z" fill="#372779"/>
<path opacity="0.4" d="M101.905 147.147C102.231 147.279 102.598 147.111 102.724 146.769C102.85 146.429 102.689 146.046 102.362 145.914C102.036 145.783 101.668 145.951 101.542 146.292C101.416 146.632 101.577 147.016 101.905 147.147Z" fill="#372779"/>
<path opacity="0.4" d="M104.5 149.921C103.92 149.686 103.267 149.988 103.042 150.593C102.817 151.198 103.106 151.879 103.685 152.114C104.265 152.349 104.918 152.047 105.143 151.442C105.369 150.836 105.08 150.156 104.5 149.921Z" fill="#372779"/>
<path opacity="0.4" d="M114.575 163.065C113.813 162.757 112.957 163.151 112.662 163.946C112.367 164.741 112.745 165.634 113.507 165.942C114.269 166.25 115.125 165.855 115.42 165.061C115.715 164.266 115.337 163.371 114.575 163.065Z" fill="#372779"/>
<path opacity="0.4" d="M118.775 166.808C118.013 166.5 117.158 166.895 116.862 167.69C116.567 168.484 116.945 169.377 117.707 169.686C118.469 169.994 119.325 169.599 119.62 168.804C119.915 168.01 119.537 167.117 118.775 166.808Z" fill="#372779"/>
<path opacity="0.4" d="M128.111 170.894C127.349 170.586 126.493 170.98 126.198 171.775C125.903 172.57 126.281 173.463 127.043 173.771C127.805 174.079 128.661 173.685 128.956 172.89C129.251 172.095 128.873 171.202 128.111 170.894Z" fill="#372779"/>
<path opacity="0.4" d="M104.035 159.516C102.983 159.091 101.801 159.636 101.394 160.734C100.987 161.832 101.509 163.065 102.561 163.49C103.614 163.914 104.795 163.37 105.203 162.272C105.61 161.175 105.088 159.941 104.035 159.516Z" fill="#372779"/>
<path opacity="0.4" d="M103.604 154.983C103.449 155.399 103.647 155.867 104.046 156.029C104.446 156.191 104.894 155.984 105.048 155.568C105.203 155.151 105.005 154.683 104.605 154.523C104.206 154.36 103.757 154.566 103.604 154.983Z" fill="#372779"/>
<path opacity="0.4" d="M107.566 155.717C106.996 155.528 106.386 155.854 106.204 156.449C106.022 157.044 106.335 157.68 106.905 157.87C107.475 158.06 108.085 157.733 108.267 157.139C108.451 156.546 108.136 155.909 107.566 155.717Z" fill="#372779"/>
<path opacity="0.4" d="M101.309 150.379C101.646 149.471 101.213 148.45 100.343 148.098C99.4726 147.747 98.4936 148.198 98.1567 149.106C97.8197 150.014 98.2525 151.036 99.1228 151.387C99.9932 151.739 100.972 151.287 101.309 150.379Z" fill="#372779"/>
<path opacity="0.4" d="M109.529 163.231C108.839 162.953 108.064 163.31 107.798 164.029C107.531 164.749 107.873 165.557 108.563 165.835C109.252 166.114 110.027 165.757 110.294 165.037C110.56 164.319 110.219 163.51 109.529 163.231Z" fill="#372779"/>
<path opacity="0.4" d="M109.974 160.812C109.503 160.622 108.973 160.866 108.789 161.359C108.607 161.85 108.84 162.403 109.313 162.595C109.784 162.785 110.315 162.542 110.498 162.049C110.68 161.555 110.445 161.002 109.974 160.812Z" fill="#372779"/>
<path opacity="0.4" d="M100.741 153.536C99.3624 152.98 97.8118 153.695 97.2784 155.133C96.745 156.57 97.4301 158.188 98.8083 158.745C100.186 159.301 101.737 158.586 102.271 157.148C102.804 155.711 102.119 154.095 100.741 153.536Z" fill="#372779"/>
</g>
<path d="M143.251 177.618L106.779 162.888C103.377 161.514 101.681 157.51 102.997 153.96L120.757 106.097C122.075 102.548 125.914 100.779 129.315 102.152L165.787 116.881C169.189 118.256 170.885 122.261 169.569 125.81L151.809 173.673C150.49 177.223 146.652 178.993 143.251 177.618ZM128.718 103.763C126.166 102.733 123.288 104.059 122.3 106.722L104.538 154.583C103.55 157.245 104.822 160.248 107.374 161.279L143.846 176.01C146.398 177.042 149.276 175.714 150.264 173.051L168.025 125.188C169.011 122.526 167.74 119.524 165.188 118.493L128.718 103.763Z" fill="#DDECFF"/>
</g>
<defs>
<filter id="filter0_d" x="23" y="41" width="231.577" height="158" filterUnits="userSpaceOnUse" color-interpolation-filters="sRGB">
<feFlood flood-opacity="0" result="BackgroundImageFix"/>
<feColorMatrix in="SourceAlpha" type="matrix" values="0 0 0 0 0 0 0 0 0 0 0 0 0 0 0 0 0 0 127 0" result="hardAlpha"/>
<feOffset dy="4"/>
<feGaussianBlur stdDeviation="2"/>
<feComposite in2="hardAlpha" operator="out"/>
<feColorMatrix type="matrix" values="0 0 0 0 0 0 0 0 0 0 0 0 0 0 0 0 0 0 0.25 0"/>
<feBlend mode="normal" in2="BackgroundImageFix" result="effect1_dropShadow"/>
<feBlend mode="normal" in="SourceGraphic" in2="effect1_dropShadow" result="shape"/>
</filter>
<linearGradient id="paint0_linear" x1="87.8758" y1="103.084" x2="64.9287" y2="103.084" gradientUnits="userSpaceOnUse">
<stop stop-color="#99C6FF"/>
<stop offset="1" stop-color="#DDECFF"/>
</linearGradient>
<linearGradient id="paint1_linear" x1="140.899" y1="103.084" x2="82.8109" y2="103.084" gradientUnits="userSpaceOnUse">
<stop stop-color="#46C89C"/>
<stop offset="1" stop-color="#33A47E"/>
</linearGradient>
<linearGradient id="paint2_linear" x1="88.3547" y1="62.6537" x2="99.9315" y2="62.6537" gradientUnits="userSpaceOnUse">
<stop stop-color="#99C6FF"/>
<stop offset="1" stop-color="#DDECFF"/>
</linearGradient>
<linearGradient id="paint3_linear" x1="107.964" y1="62.6537" x2="119.541" y2="62.6537" gradientUnits="userSpaceOnUse">
<stop stop-color="#99C6FF"/>
<stop offset="1" stop-color="#DDECFF"/>
</linearGradient>
<linearGradient id="paint4_linear" x1="127.574" y1="62.6537" x2="139.151" y2="62.6537" gradientUnits="userSpaceOnUse">
<stop stop-color="#99C6FF"/>
<stop offset="1" stop-color="#DDECFF"/>
</linearGradient>
<linearGradient id="paint5_linear" x1="111.377" y1="54.1905" x2="136.36" y2="54.1905" gradientUnits="userSpaceOnUse">
<stop stop-color="#6042CE"/>
<stop offset="1" stop-color="#30226D"/>
</linearGradient>
<linearGradient id="paint6_linear" x1="91.7676" y1="54.1905" x2="116.75" y2="54.1905" gradientUnits="userSpaceOnUse">
<stop stop-color="#6042CE"/>
<stop offset="1" stop-color="#30226D"/>
</linearGradient>
<linearGradient id="paint7_linear" x1="72.158" y1="54.1905" x2="97.1408" y2="54.1905" gradientUnits="userSpaceOnUse">
<stop stop-color="#6042CE"/>
<stop offset="1" stop-color="#30226D"/>
</linearGradient>
<linearGradient id="paint8_linear" x1="91.7676" y1="86.0799" x2="133.217" y2="86.0799" gradientUnits="userSpaceOnUse">
<stop stop-color="#99C6FF"/>
<stop offset="1" stop-color="#DDECFF"/>
</linearGradient>
<linearGradient id="paint9_linear" x1="91.7676" y1="96.6328" x2="133.217" y2="96.6328" gradientUnits="userSpaceOnUse">
<stop stop-color="#99C6FF"/>
<stop offset="1" stop-color="#DDECFF"/>
</linearGradient>
<linearGradient id="paint10_linear" x1="198.397" y1="139.777" x2="181.68" y2="133.433" gradientUnits="userSpaceOnUse">
<stop stop-color="#FF7033"/>
<stop offset="1" stop-color="#DE243C"/>
</linearGradient>
<linearGradient id="paint11_linear" x1="163.445" y1="181.482" x2="180.161" y2="187.825" gradientUnits="userSpaceOnUse">
<stop stop-color="#46C89C"/>
<stop offset="1" stop-color="#33A47E"/>
</linearGradient>
<linearGradient id="paint12_linear" x1="165.541" y1="175.962" x2="182.256" y2="182.305" gradientUnits="userSpaceOnUse">
<stop stop-color="#30226D"/>
<stop offset="1" stop-color="#6042CE"/>
</linearGradient>
<linearGradient id="paint13_linear" x1="207.271" y1="80.8851" x2="214.128" y2="83.4871" gradientUnits="userSpaceOnUse">
<stop stop-color="#30226D"/>
<stop offset="1" stop-color="#6042CE"/>
</linearGradient>
<linearGradient id="paint14_linear" x1="34.5562" y1="103.719" x2="45.3444" y2="103.719" gradientUnits="userSpaceOnUse">
<stop stop-color="#4492FE"/>
<stop offset="1" stop-color="#4C59DD"/>
</linearGradient>
<linearGradient id="paint15_linear" x1="48.8351" y1="146.106" x2="27.3152" y2="146.106" gradientUnits="userSpaceOnUse">
<stop stop-color="#4492FE"/>
<stop offset="1" stop-color="#4C59DD"/>
</linearGradient>
<linearGradient id="paint16_linear" x1="27.0005" y1="65.7309" x2="49.1498" y2="65.7309" gradientUnits="userSpaceOnUse">
<stop stop-color="#FD7626"/>
<stop offset="0.2527" stop-color="#FA951B"/>
<stop offset="1" stop-color="#F6B30F"/>
</linearGradient>
<linearGradient id="paint17_linear" x1="192.91" y1="55.0042" x2="205.633" y2="55.0042" gradientUnits="userSpaceOnUse">
<stop stop-color="#4492FE"/>
<stop offset="1" stop-color="#4C59DD"/>
</linearGradient>
<linearGradient id="paint18_linear" x1="223.73" y1="55.0042" x2="250.578" y2="55.0042" gradientUnits="userSpaceOnUse">
<stop stop-color="#FF7033"/>
<stop offset="1" stop-color="#DE243C"/>
</linearGradient>
<linearGradient id="paint19_linear" x1="225.96" y1="101.62" x2="248.348" y2="101.62" gradientUnits="userSpaceOnUse">
<stop stop-color="#FD7626"/>
<stop offset="0.2527" stop-color="#FA951B"/>
<stop offset="1" stop-color="#F6B30F"/>
</linearGradient>
<linearGradient id="paint20_linear" x1="228.603" y1="148.31" x2="245.705" y2="148.31" gradientUnits="userSpaceOnUse">
<stop stop-color="#4492FE"/>
<stop offset="1" stop-color="#4C59DD"/>
</linearGradient>
<linearGradient id="paint21_linear" x1="140.089" y1="102.46" x2="116.217" y2="93.603" gradientUnits="userSpaceOnUse">
<stop stop-color="#30226D"/>
<stop offset="1" stop-color="#6042CE"/>
</linearGradient>
<linearGradient id="paint22_linear" x1="104.048" y1="126.401" x2="167.329" y2="149.88" gradientUnits="userSpaceOnUse">
<stop stop-color="#392982"/>
<stop offset="1" stop-color="#6042CE"/>
</linearGradient>
<linearGradient id="paint23_linear" x1="182.402" y1="109.26" x2="119.12" y2="85.7804" gradientUnits="userSpaceOnUse">
<stop stop-color="#6042CE"/>
<stop offset="0.7043" stop-color="#30226D"/>
</linearGradient>
<linearGradient id="paint24_linear" x1="161.282" y1="98.6168" x2="154.892" y2="96.246" gradientUnits="userSpaceOnUse">
<stop stop-color="#FA7728"/>
<stop offset="1" stop-color="#C15541"/>
</linearGradient>
<linearGradient id="paint25_linear" x1="143.658" y1="92.8421" x2="138.27" y2="90.8433" gradientUnits="userSpaceOnUse">
<stop stop-color="#FA7728"/>
<stop offset="1" stop-color="#C15541"/>
</linearGradient>
</defs>
</svg>
