<?xml version="1.0" encoding="utf-8"?>
<!-- Generator: Adobe Illustrator 24.3.0, SVG Export Plug-In . SVG Version: 6.00 Build 0)  -->
<svg version="1.1" xmlns="http://www.w3.org/2000/svg" xmlns:xlink="http://www.w3.org/1999/xlink" x="0px" y="0px"
	 viewBox="0 0 320 285" style="enable-background:new 0 0 320 285;" xml:space="preserve">
<style type="text/css">
	.st0{fill:#52697C;}
	.st1{opacity:0.42;fill:#82BBF1;}
	.st2{opacity:0.43;fill:#D3E3EB;}
	.st3{fill:#B0C4CB;}
	.st4{fill:#91ADB7;}
	.st5{fill:#82BBF1;}
	.st6{fill:#476488;}
	.st7{fill:#83B6EC;}
	.st8{opacity:0.25;fill:#476488;}
	.st9{fill:#D3E3EB;}
	.st10{fill:#E3BD78;}
	.st11{fill:#2C3C4D;}
	.st12{fill:#1F2E40;}
	.st13{fill:#D4904F;}
	.st14{fill:#8BA6AF;}
	.st15{opacity:0.67;fill:#D4904F;}
	.st16{opacity:0.29;fill:#476488;}
	.st17{opacity:0.48;fill:#2C3C4D;}
	.st18{fill:#5D8AC8;}
	.st19{fill:#4772A6;}
	.st20{fill:#293951;}
	.st21{fill:none;}
</style>
<g id="BACKGROUND">
</g>
<g id="OBJECTS">
	<path class="st0" d="M187-610"/>
	<g>
		<path class="st1" d="M80.75,265.84h157.71c35.15-24.23,58.13-64.19,58.13-109.42c0-73.92-61.33-144.47-136.98-144.47
			c-75.65,0-136.98,70.55-136.98,144.47C22.62,201.65,45.6,241.61,80.75,265.84z"/>
		<path class="st2" d="M303.97,266.25c0-3.14-64.63-5.69-144.37-5.69s-144.37,2.55-144.37,5.69c0,3.14,64.63,5.69,144.37,5.69
			S303.97,269.39,303.97,266.25z"/>
		<g>
			<rect x="105.93" y="197.78" class="st3" width="6.57" height="62.81"/>
			<rect x="105.93" y="197.78" class="st4" width="6.57" height="8.83"/>
			<path class="st3" d="M137.77,260.61H82.71c-2.1,0-3.81,1.7-3.81,3.81v1.96h62.67v-1.96
				C141.58,262.31,139.87,260.61,137.77,260.61z"/>
			<path class="st3" d="M93.64,197.84h45.51c-16.56-5.95-10.15-61.97-7.09-83.21c0.62-4.28-2.71-8.11-7.03-8.11l-30.32,0
				c-6.2,0-11.46,4.57-12.31,10.72c-2.66,19.3-6.85,59.31,1.45,74.8C85.78,195.63,89.56,197.84,93.64,197.84z"/>
		</g>
		<g>
			<path class="st5" d="M250.09,71.51h-54.45c-2.79,0-5.05,2.26-5.05,5.05v24.53c0,2.79,2.26,5.05,5.05,5.05h3.8v5.93
				c0,0.82,0.98,1.26,1.59,0.71l7.36-6.64h41.69c2.79,0,5.05-2.26,5.05-5.05V76.56C255.15,73.77,252.89,71.51,250.09,71.51z"/>
			<g>
				<path class="st6" d="M211.86,89.2c0,1.23-1,2.23-2.23,2.23c-1.23,0-2.23-1-2.23-2.23c0-1.23,1-2.23,2.23-2.23
					C210.86,86.97,211.86,87.97,211.86,89.2z"/>
				<path class="st6" d="M225.55,89.2c0,1.23-1,2.23-2.23,2.23c-1.23,0-2.23-1-2.23-2.23c0-1.23,1-2.23,2.23-2.23
					C224.56,86.97,225.55,87.97,225.55,89.2z"/>
				<circle class="st6" cx="236.11" cy="89.2" r="2.23"/>
			</g>
		</g>
		<g>
			<g>
				<path class="st7" d="M71.82,137.41c0-6-4.24-12.02-9.47-12.02c-5.23,0-9.47,6.02-9.47,12.02c0,6,4.24,10.87,9.47,10.87
					C67.58,148.28,71.82,143.42,71.82,137.41z"/>
				<path class="st8" d="M62.35,125.39c-0.84,0-1.65,0.17-2.43,0.46c4.05,1.49,7.04,6.53,7.04,11.56c0,5.04-2.99,9.26-7.04,10.5
					c0.78,0.24,1.59,0.38,2.43,0.38c5.23,0,9.47-4.87,9.47-10.87C71.82,131.41,67.58,125.39,62.35,125.39z"/>
			</g>
			<g>
				<path class="st9" d="M51.56,144.52l1.7,15.37c0.21,1.92,1.84,3.37,3.77,3.37h9.8c1.93,0,3.56-1.45,3.77-3.37l1.7-15.37
					c0.09-0.84-0.56-1.57-1.4-1.57H52.96C52.12,142.95,51.46,143.68,51.56,144.52z"/>
				<path class="st3" d="M52.96,145.24h17.92c0.55,0,1,0.33,1.24,0.79l0.17-1.52c0.09-0.84-0.56-1.57-1.4-1.57H52.96
					c-0.84,0-1.5,0.73-1.4,1.57l0.17,1.52C51.96,145.58,52.4,145.24,52.96,145.24z"/>
				<path class="st3" d="M70.88,142.95h-6.21c0.84,0,1.5,0.73,1.4,1.57l-1.7,15.37c-0.21,1.92-1.84,3.37-3.77,3.37h6.21
					c1.93,0,3.56-1.45,3.77-3.37l1.7-15.37C72.37,143.68,71.72,142.95,70.88,142.95z"/>
			</g>
		</g>
		<g>
			<g>
				<g>
					<polygon class="st10" points="149.35,251.31 148.71,255.75 152.09,260.08 160.66,255.88 161.59,251.82 150.92,250.21 					"/>
					<path class="st11" d="M156.27,265.61l0.88-1.1c0.16-0.2,0.47-0.2,0.63-0.01l0.89,1.04c0.36,0.42,0.89,0.66,1.44,0.65
						l19.91-0.34c0.38-0.39,0.48-1.06,0.03-1.51c-2.92-2.95-18.63-8.04-19.41-8.47c-0.78-0.43-5.59,3.3-11.95-0.13
						c0,0-1.03,4.98-1.18,8.21c-0.06,1.32,0.98,2.42,2.3,2.4l5.05-0.09C155.42,266.27,155.93,266.03,156.27,265.61z"/>
					<path class="st11" d="M112.81,176.27c0,0-8.27,9.14,6.87,19.07c10.62,6.97,18.99,4.84,25.66,9.06
						c1.56,0.99,2.75,2.46,2.86,4.31l0.34,42.73l0.81,0.4c4.01,1.99,8.71,2.04,12.77,0.14l0,0l6.03-48.75
						c0.22-3.36-1.6-6.19-3.68-8.84c-11.58-14.73-32.08-19.72-37.26-20.57C120.46,172.72,112.81,176.27,112.81,176.27z"/>
				</g>
				<g>
					<polygon class="st10" points="116.43,251.31 115.73,255.74 119.04,260.11 127.67,256.03 128.66,251.98 118.01,250.23 					"/>
					<path class="st11" d="M123.15,265.69l0.9-1.08c0.17-0.2,0.47-0.2,0.63,0l0.87,1.05c0.35,0.43,0.88,0.67,1.43,0.67l19.92-0.07
						c0.39-0.38,0.49-1.05,0.05-1.5c-2.88-2.98-18.51-8.29-19.29-8.73c-0.78-0.44-5.63,3.23-11.95-0.29c0,0-1.1,4.97-1.29,8.2
						c-0.08,1.32,0.95,2.44,2.27,2.43l5.05-0.02C122.29,266.35,122.8,266.11,123.15,265.69z"/>
					<path class="st11" d="M87.68,168.3c0,0-10.02,11.17,4.47,23.78c10.16,8.85,19.28,5.06,25.68,10.46
						c1.5,1.27,2.54,2.99,2.39,4.94l-4.57,43.46l0.34,0.22c4,2.59,9.05,2.94,13.36,0.91l0,0l11.33-45.8c0.71-3.5-0.79-6.74-2.6-9.82
						c-10.05-17.14-25.84-27.35-31.17-28.99C99.97,165.34,87.68,168.3,87.68,168.3z"/>
				</g>
				<path class="st12" d="M142.95,203.18c-0.76-0.32-1.54-0.58-2.33-0.81c-0.42-2.04-1.43-4.02-2.54-5.92
					c-4.98-8.49-11.38-15.3-17.21-20.18c3.63-0.62,5.48-1.39,6.48-2.41c1.99,0.32,6.01,1.23,10.87,2.95
					C143.14,185.05,143.12,198.42,142.95,203.18z"/>
			</g>
			<path class="st9" d="M114.65,109.21c0,0-14.45-1.93-20.45,9.33c-6,11.26-14.97,55.39-7.13,56.73c3.47,0.59,12.73,2.92,22.99,2.17
				c14.1-1.03,17.17-2.33,18.19-5.01l8.98-41.13c0.21-5.66-2.31-11.1-6.82-14.52C123.2,111.33,114.65,109.21,114.65,109.21z"/>
			<path class="st3" d="M137.17,127.69c0,0,0.19,24.77,7.97,26.27c7.79,1.5,28.52,1.03,28.52,1.03v7.88h-44.47L137.17,127.69z"/>
			<path class="st13" d="M126.4,116.46l1.75-8.76l-11.36-8.65l-2.18,10.33C114.61,109.37,118.2,125.14,126.4,116.46z"/>
			<path class="st11" d="M140.9,91c0,0-5.94,2.89-14.65-2.41c0,0-2.02,3.63-7.86,6.87c0,0-3.03-5.08-4.78-1.27
				c-0.53,1.15-0.78,2.19-0.8,3.11c-5.47-7.06-1.61-16.36,3.49-21.38c4.83-4.76,15.28-2.87,21.82-0.24
				c6.93,2.79,8.21-2.06,8.21-2.06C155.07,85.95,140.9,91,140.9,91z"/>
			<path class="st10" d="M118.38,95.46c0,0-3.03-5.08-4.78-1.27c-2.12,4.62,0.27,7.52,3.14,7.52c0,0,2.28,12.02,13.32,11.17
				c11.04-0.85,12.64-18.58,10.83-21.88c0,0-5.95,2.89-14.65-2.42C126.24,88.58,124.22,92.22,118.38,95.46z"/>
			<g>
				<path class="st9" d="M214.1,123.57h-46.1c-2.27,0-4.23,1.6-4.68,3.83l-6.14,30.08h55.86l5.75-28.17
					C219.39,126.34,217.13,123.57,214.1,123.57z"/>
				<path class="st14" d="M212.86,157.48h-76.18c-1.26,0-2.28,1.02-2.28,2.28v0.74c0,1.26,1.02,2.28,2.28,2.28h76.18
					c1.26,0,2.28-1.02,2.28-2.28v-0.74C215.14,158.5,214.12,157.48,212.86,157.48z"/>
				<path class="st3" d="M212.86,157.48h-56.29c1.26,0,2.28,1.02,2.28,2.28v0.74c0,1.26-1.02,2.28-2.28,2.28h56.29
					c1.26,0,2.28-1.02,2.28-2.28v-0.74C215.14,158.5,214.12,157.48,212.86,157.48z"/>
			</g>
			<path class="st9" d="M139.14,155.87c-8.97-1.05-34.15-3.61-38.47-4.06c-5.44-0.56,6.38-22.52,7.69-30.02
				c1.31-7.51-4.41-7.79-4.41-7.79c-3.23-0.4-6.76,0-9.76,4.55c-6.14,9.31-12.99,36.51-9.38,43.23c0.42,0.79,1.25,1.27,2.15,1.27
				h52.18V155.87z"/>
			<path class="st3" d="M139.14,155.87c0,0-32.42-2.23-39.41-3.17c-5.42-0.73,5.88-23.22,7.19-30.73c1.31-7.51-4.5-7.19-4.5-7.19
				c-1.46-0.18-3.56,0.03-5.06,0.48c2.17-1.43,4.44-1.52,6.6-1.26c0,0,5.72,0.29,4.41,7.79c-1.31,7.51-11.45,28.99-8.02,29.84
				C104.56,152.66,130.16,154.82,139.14,155.87z"/>
			<path class="st10" d="M139.14,163.16h12.09c0.91,0,1.45-1,0.96-1.77c-1.13-1.74-2.92-4.2-4.23-4.61
				c-0.78-0.25-6.66-0.03-8.82,0.2V163.16z"/>
			<path class="st15" d="M140.9,91c0,0-0.99,0.47-2.74,0.68c-0.15,0.82-0.41,2.39-0.55,3.88c-0.2,2.13,0.86,8.71,0.2,8.76
				c-0.66,0.05-2.03-0.05-2.03-0.05s-1.01,9.52-10.53,8c-0.09-0.01-0.16-0.02-0.25-0.04c1.44,0.52,3.11,0.78,5.06,0.63
				C141.11,112.02,142.7,94.29,140.9,91z"/>
		</g>
		<g>
			<g>
				<path class="st7" d="M279.5,229.34c0,0,15.19-7.53,11.06-18.95c-4.13-11.42-6.68-11.91,1.21-18.35
					c7.9-6.44,19.32-22.6,4.86-23.81c-14.46-1.21-13.73,17.98-25.76,20.65C258.85,191.55,252.29,241.85,279.5,229.34z"/>
				<path class="st8" d="M267.55,230.47c2.92,1.35,6.84,1.22,11.95-1.13c0,0,15.19-7.53,11.06-18.95
					c-4.13-11.42-6.68-11.91,1.21-18.35c7.9-6.44,19.32-22.6,4.86-23.81c-1.42-0.12-2.7-0.03-3.85,0.21
					c4.07,1.69,8.12,5.04,2.88,11.25c-8.71,10.33-13.37,13.98-12.36,20.66C284.29,206.86,283.73,221.66,267.55,230.47z"/>
			</g>
			<g>
				<path class="st7" d="M253.74,228.97c0,0-13.36-0.49-12.64-10.08c0.73-9.6,1.1-9.97-7.29-13c-14.82-5.35-3.09-33.81,8.99-15.92
					c8.38,12.42,12.03,9.63,17.5,10.6C265.77,201.55,277.68,233.23,253.74,228.97z"/>
				<path class="st16" d="M260.3,200.58c-5.47-0.97-9.11,1.82-17.5-10.6c-6.32-9.37-12.54-6.03-14.92,0.05
					c3.56-1.09,8.96-1.74,9.63,4.04c0.87,7.51,18.44,19.84,18.08,35.17c0.23,0.02,0.46,0.04,0.68,0.06
					c2.56-6.74,5.93-15.48,8.82-22.93C263.56,203.14,261.72,200.83,260.3,200.58z"/>
			</g>
			<g>
				<path class="st6" d="M256.84,228.55c0,0-16.58-16.22-10.93-18.95c5.65-2.73,16.77,6.2,10.57-3.46
					c-6.2-9.66-13.41-24.7-4.85-22.33c8.57,2.37,9.19,4.97,8.13-6.28c-1.37-14.55,6.74-22.05,14.4-17.31
					c7.65,4.74-6.56,36.81-1.28,33.35c5.29-3.46,9.66-6.38,10.75-2.19c1.09,4.19-15.13,20.65-9.11,17.86
					c7.47-3.46,8.57,2.73,6.2,6.56C278.35,219.62,268.51,242.4,256.84,228.55z"/>
				<path class="st17" d="M280.72,215.79c2.37-3.83,1.28-10.02-6.2-6.56c-6.02,2.79,10.21-13.67,9.11-17.86
					c-1.09-4.19-5.47-1.28-10.75,2.19c-5.28,3.46,8.93-28.61,1.28-33.35c-3.56-2.2-7.21-1.73-9.96,0.84
					c3.96,0.97,7.13,4.16,4.94,12.76c-4.66,18.23-7.5,33.42,1.01,28.97c8.01-4.2-9.31,15.15-9.48,29.09
					C270.6,237.55,278.61,219.19,280.72,215.79z"/>
			</g>
			<g>
				<path class="st9" d="M245.36,230.45l3.21,29.06c0.4,3.63,3.47,6.38,7.13,6.38h18.52c3.65,0,6.72-2.75,7.13-6.38l3.21-29.06
					c0.17-1.58-1.06-2.96-2.65-2.96h-33.89C246.42,227.49,245.18,228.87,245.36,230.45z"/>
				<path class="st3" d="M281.9,227.49h-11.75c1.59,0,2.83,1.38,2.65,2.96l-3.21,29.06c-0.4,3.63-3.47,6.38-7.13,6.38h11.75
					c3.65,0,6.72-2.75,7.13-6.38l3.21-29.06C284.73,228.87,283.49,227.49,281.9,227.49z"/>
			</g>
		</g>
		<g>
			<g>
				<path class="st18" d="M245.87,163.06H47.26c-2.23,0-4.04,1.81-4.04,4.04v1.31c0,2.23,1.81,4.04,4.04,4.04h198.62
					c2.23,0,4.04-1.81,4.04-4.04v-1.31C249.91,164.87,248.1,163.06,245.87,163.06z"/>
				<path class="st19" d="M245.87,163.06H47.26c-2.23,0-4.04,1.81-4.04,4.04v1.31c0,0.43,0.08,0.83,0.21,1.22
					c0.52-1.63,2.03-2.81,3.83-2.81h198.62c1.8,0,3.31,1.19,3.83,2.81c0.12-0.39,0.21-0.79,0.21-1.22v-1.31
					C249.91,164.87,248.1,163.06,245.87,163.06z"/>
			</g>
			<g>
				<g>
					<g>
						<polygon class="st6" points="110.03,266.03 103.39,266.03 57.21,172.49 63.85,172.49 						"/>
					</g>
				</g>
				<g>
					<g>
						<polygon class="st6" points="36.95,266.03 43.58,266.03 89.77,172.49 83.13,172.49 						"/>
					</g>
				</g>
				<g>
					<g>
						<polygon class="st6" points="253.02,266.03 246.38,266.03 200.2,172.49 206.84,172.49 						"/>
					</g>
				</g>
				<g>
					<g>
						<polygon class="st6" points="179.93,266.03 186.57,266.03 232.75,172.49 226.11,172.49 						"/>
					</g>
				</g>
				<g>
					<g>
						<polygon class="st20" points="65.68,176.2 63.85,172.49 57.21,172.49 59.04,176.2 						"/>
					</g>
				</g>
				<g>
					<g>
						<polygon class="st20" points="87.94,176.2 89.77,172.49 83.13,172.49 81.3,176.2 						"/>
					</g>
				</g>
				<g>
					<g>
						<polygon class="st20" points="208.66,176.2 206.84,172.49 200.2,172.49 202.03,176.2 						"/>
					</g>
				</g>
				<g>
					<g>
						<polygon class="st20" points="230.92,176.2 232.75,172.49 226.11,172.49 224.28,176.2 						"/>
					</g>
				</g>
			</g>
		</g>
	</g>
	<rect x="-368.83" y="-251.04" class="st21" width="626.65" height="383.84"/>
</g>
<g id="DESIGNED_BY_FREEPIK">
</g>
</svg>
