<svg width="562" height="443" viewBox="0 0 562 443" fill="none" xmlns="http://www.w3.org/2000/svg">
<path d="M208.384 380.743C208.384 380.743 192.906 155.821 58.7054 99.5908C58.7054 99.5908 53.5461 200.092 91.6141 243.16C129.682 286.229 91.6141 243.16 91.6141 243.16C91.6141 243.16 52.2634 222.822 10.9743 228.809C10.9743 228.809 57.4655 390.139 200.645 386.73C217.42 386.333 200.645 386.73 200.645 386.73L208.384 380.743Z" fill="#7DBCC8"/>
<path d="M379.141 378.047C379.141 378.047 354.199 189.322 471.61 79.2527C471.61 79.2527 481.929 152.24 454.835 226.417C427.741 300.593 454.835 226.417 454.835 226.417C454.835 226.417 487.088 186.93 518.058 179.754C518.058 179.754 516.177 357.339 416.126 391.514C407.959 394.302 416.126 391.514 416.126 391.514L379.141 378.047Z" fill="#7DBCC8"/>
<path opacity="0.74" d="M280.643 443C435.638 443 561.286 423.783 561.286 400.077C561.286 376.371 435.638 357.154 280.643 357.154C125.648 357.154 0 376.371 0 400.077C0 423.783 125.648 443 280.643 443Z" fill="#B9EAF5"/>
<path opacity="0.74" d="M99.9944 38.5764C96.5311 36.5809 76.7631 191.714 192.891 251.539C192.906 251.539 181.29 85.2391 99.9944 38.5764Z" fill="#B9EAF5"/>
<path opacity="0.74" d="M441.21 0.0938278C439.314 -3.69892 321.134 108.075 388.847 229.615C388.847 229.615 485.52 89.0054 441.21 0.0938278Z" fill="#B9EAF5"/>
<path opacity="0.74" d="M147.74 261.106C147.74 261.106 140.001 210.862 39.3508 190.524C39.3508 190.524 49.6695 279.053 150.319 295.81L147.74 261.106Z" fill="#B9EAF5"/>
<path opacity="0.74" d="M477.724 368.969C477.724 368.969 529.318 351.987 530.914 256.494C530.914 256.494 439.357 283.387 441.552 378.18L477.724 368.969Z" fill="#B9EAF5"/>
<path d="M163.232 299.391C163.232 299.391 70.3353 296.999 10.9743 334.081C10.9743 334.081 103.871 395.095 200.645 386.717L163.232 299.391Z" fill="#7DBCC8"/>
<path d="M397.669 403.473H163.617C150.576 403.473 140.001 393.668 140.001 381.576V52.1219C140.001 40.0301 150.576 30.2244 163.617 30.2244H397.669C410.71 30.2244 421.285 40.0301 421.285 52.1219V381.576C421.285 393.668 410.71 403.473 397.669 403.473Z" fill="#363962"/>
<path d="M399.408 63.3945H160.866V363.841H399.408V63.3945Z" fill="#D5F2F9"/>
<path opacity="0.11" d="M362.095 176.966L325.039 244.958H367.155L335.871 313.782H367.924L347.144 363.696H160.866V176.596L362.095 176.966Z" fill="black"/>
<path d="M252.651 47.0209C252.651 49.1882 250.742 50.9458 248.39 50.9458C246.053 50.9458 244.157 49.1749 244.157 46.9944C244.157 44.8272 246.067 43.0695 248.418 43.0695C250.77 43.0695 252.666 44.8404 252.651 47.0209Z" fill="white"/>
<path d="M311.499 49.3071L261.146 49.1882C259.706 49.1882 258.538 48.1045 258.552 46.7698C258.552 45.4351 259.72 44.3647 261.16 44.3647L311.528 44.4836C312.967 44.4836 314.136 45.5672 314.122 46.902C314.107 48.2367 312.939 49.3071 311.499 49.3071Z" fill="white"/>
<path d="M290.52 382.99C290.534 377.677 285.902 373.356 280.173 373.343C274.443 373.33 269.783 377.625 269.768 382.937C269.754 388.25 274.386 392.571 280.116 392.584C285.845 392.597 290.506 388.302 290.52 382.99Z" fill="white"/>
<path d="M367.155 174.164H186.278V179.344H367.155V174.164Z" fill="#FFC866"/>
<path d="M367.155 179.358L375.008 171.415V166.222L367.155 174.164V179.358Z" fill="#E8AC4B"/>
<path d="M375.008 166.222H194.131L186.278 174.164H367.155L375.008 166.222Z" fill="#F7E69B"/>
<path d="M367.155 245.962H186.278V251.142H367.155V245.962Z" fill="#FFC866"/>
<path d="M367.155 251.142L375.008 243.2V238.02L367.155 245.962V251.142Z" fill="#E8AC4B"/>
<path d="M375.008 238.02H194.131L186.278 245.962H367.155L375.008 238.02Z" fill="#F7E69B"/>
<path d="M337.367 140.73L338.75 133.184C338.75 133.184 338.878 132.219 339.591 132.087C340.56 131.902 340.702 133.488 340.702 133.488L343.866 146.624L337.367 140.73Z" fill="#4A3E53"/>
<path d="M352.233 137.65L347.971 131.281C347.971 131.281 347.472 130.448 346.86 130.594C346.047 130.779 346.603 132.285 346.603 132.285L349.767 145.421L352.233 137.65Z" fill="#4A3E53"/>
<path d="M337.895 140.796L340.289 135.325C340.289 135.325 343.467 136.805 347.173 133.897L351.791 137.915L348.057 144.945L343.795 144.8L337.895 140.796Z" fill="white"/>
<path d="M359.529 167.186C359.529 167.186 357.406 170.08 352.588 171.085C348.113 172.01 344.522 170.305 344.522 170.305L337.381 140.73C337.381 140.73 340.631 142.514 345.448 141.509C350.28 140.505 352.389 137.611 352.389 137.611L359.529 167.186Z" fill="#A198A9"/>
<path d="M298.116 128.109L302.307 121.026C302.307 121.026 302.777 120.114 303.746 120.127C305.086 120.154 304.758 121.726 304.758 121.726V135.179L298.116 128.109Z" fill="#A75050"/>
<path d="M322.16 128.109L317.97 121.026C317.97 121.026 317.499 120.114 316.53 120.127C315.191 120.154 315.518 121.726 315.518 121.726V135.179L322.16 128.109Z" fill="#A75050"/>
<path d="M298.914 128.281L304.63 123.418C304.63 123.418 308.962 125.506 315.761 123.418L321.376 128.281L313.024 134.386L306.511 133.382L298.914 128.281Z" fill="white"/>
<path d="M322.416 169.182C322.416 169.182 318.083 171.574 310.273 171.574C303.047 171.574 298.13 169.182 298.13 169.182V128.109C298.13 128.109 302.463 130.501 310.273 130.501C318.083 130.501 322.416 128.109 322.416 128.109V169.182Z" fill="#DF6A6A"/>
<path d="M318.825 163.803C318.825 163.803 315.476 165.006 310.145 165.006C304.815 165.006 301.466 163.803 301.466 163.803V143.465C301.466 143.465 304.815 144.668 310.145 144.668C316.188 144.668 318.825 143.465 318.825 143.465V163.803Z" fill="#A75050"/>
<path d="M322.645 128.109L325.296 121.026C325.296 121.026 325.595 120.114 326.208 120.127C327.049 120.154 326.849 121.726 326.849 121.726V135.179L322.645 128.109Z" fill="#4A3E53"/>
<path d="M337.866 128.109L335.215 121.026C335.215 121.026 334.916 120.114 334.303 120.127C333.462 120.154 333.662 121.726 333.662 121.726V135.179L337.866 128.109Z" fill="#4A3E53"/>
<path d="M323.144 128.281L326.764 123.418C326.764 123.418 329.514 125.506 333.818 123.418L337.367 128.281L332.08 134.386L327.961 133.382L323.144 128.281Z" fill="white"/>
<path d="M338.023 169.182C338.023 169.182 335.201 171.574 330.141 171.574C325.452 171.574 322.26 169.182 322.26 169.182V128.109C322.26 128.109 325.082 130.501 330.141 130.501C335.215 130.501 338.023 128.109 338.023 128.109V169.182Z" fill="#63536F"/>
<path d="M334.916 163.803C334.916 163.803 332.978 164.504 330.241 164.504C327.519 164.504 326.037 163.803 326.037 163.803V143.465C326.037 143.465 327.519 144.364 330.241 144.364C333.334 144.364 334.916 143.465 334.916 143.465V163.803Z" fill="#4A3E53"/>
<path d="M280.059 128.109L283.18 121.026C283.18 121.026 283.536 120.114 284.249 120.127C285.246 120.154 285.004 121.726 285.004 121.726V135.179L280.059 128.109Z" fill="#5E8D96"/>
<path d="M297.931 128.109L294.81 121.026C294.81 121.026 294.454 120.114 293.741 120.127C292.743 120.154 292.986 121.726 292.986 121.726V135.179L297.931 128.109Z" fill="#5E8D96"/>
<path d="M280.643 128.281L284.89 123.418C284.89 123.418 288.111 125.506 293.171 123.418L297.347 128.281L291.133 134.386L286.301 133.382L280.643 128.281Z" fill="white"/>
<path d="M298.116 169.182C298.116 169.182 294.895 171.574 289.08 171.574C283.707 171.574 280.044 169.182 280.044 169.182V128.109C280.044 128.109 283.265 130.501 289.08 130.501C294.895 130.501 298.116 128.109 298.116 128.109V169.182Z" fill="#7DBCC8"/>
<path d="M293.627 164.702C293.627 164.702 291.689 165.402 288.952 165.402C286.23 165.402 284.748 164.702 284.748 164.702V144.364C284.748 144.364 286.23 145.262 288.952 145.262C292.045 145.262 293.627 144.364 293.627 144.364V164.702Z" fill="#D5F2F9"/>
<path d="M222.422 199.894L225.543 192.811C225.543 192.811 225.899 191.899 226.612 191.912C227.61 191.938 227.367 193.511 227.367 193.511V206.964L222.422 199.894Z" fill="#5E8D96"/>
<path d="M240.295 199.894L237.173 192.811C237.173 192.811 236.817 191.899 236.104 191.912C235.107 191.938 235.349 193.511 235.349 193.511V206.964L240.295 199.894Z" fill="#5E8D96"/>
<path d="M223.006 200.066L227.254 195.203C227.254 195.203 230.475 197.291 235.534 195.203L239.71 200.066L233.496 206.171L228.65 205.167L223.006 200.066Z" fill="white"/>
<path d="M240.48 240.967C240.48 240.967 237.259 243.358 231.444 243.358C226.071 243.358 222.408 240.967 222.408 240.967V199.894C222.408 199.894 225.629 202.286 231.444 202.286C237.245 202.286 240.48 199.894 240.48 199.894V240.967Z" fill="#7DBCC8"/>
<path d="M236.005 236.487C236.005 236.487 234.066 237.187 231.33 237.187C228.608 237.187 227.125 236.487 227.125 236.487V216.148C227.125 216.148 228.608 217.047 231.33 217.047C234.423 217.047 236.005 216.148 236.005 216.148V236.487Z" fill="#D5F2F9"/>
<path d="M256.4 199.894L259.606 192.811C259.606 192.811 259.963 191.899 260.704 191.912C261.716 191.938 261.473 193.511 261.473 193.511V206.964L256.4 199.894Z" fill="#A75050"/>
<path d="M274.757 199.894L271.55 192.811C271.55 192.811 271.194 191.899 270.453 191.912C269.441 191.938 269.683 193.511 269.683 193.511V206.964L274.757 199.894Z" fill="#A75050"/>
<path d="M256.998 200.066L261.36 195.203C261.36 195.203 264.666 197.291 269.868 195.203L274.158 200.066L267.773 206.171L262.799 205.167L256.998 200.066Z" fill="white"/>
<path d="M274.942 240.98C274.942 240.98 271.636 243.372 265.664 243.372C260.148 243.372 256.385 240.98 256.385 240.98V199.907C256.385 199.907 259.692 202.299 265.664 202.299C271.636 202.299 274.942 199.907 274.942 199.907V240.98Z" fill="#DF6A6A"/>
<path d="M272.206 235.588C272.206 235.588 269.654 236.791 265.578 236.791C261.502 236.791 258.951 235.588 258.951 235.588V215.25C258.951 215.25 261.502 216.452 265.578 216.452C270.196 216.452 272.206 215.25 272.206 215.25V235.588Z" fill="#A75050"/>
<path d="M240.922 199.894L243.573 192.811C243.573 192.811 243.872 191.899 244.485 191.912C245.326 191.938 245.126 193.511 245.126 193.511V206.964L240.922 199.894Z" fill="#4A3E53"/>
<path d="M256.143 199.894L253.492 192.811C253.492 192.811 253.193 191.899 252.58 191.912C251.739 191.938 251.939 193.511 251.939 193.511V206.964L256.143 199.894Z" fill="#4A3E53"/>
<path d="M241.421 200.066L245.041 195.203C245.041 195.203 247.791 197.291 252.096 195.203L255.644 200.066L250.357 206.171L246.238 205.167L241.421 200.066Z" fill="white"/>
<path d="M256.314 240.98C256.314 240.98 253.492 243.372 248.433 243.372C243.744 243.372 240.551 240.98 240.551 240.98V199.907C240.551 199.907 243.373 202.299 248.433 202.299C253.492 202.299 256.314 199.907 256.314 199.907V240.98Z" fill="#63536F"/>
<path d="M253.207 235.588C253.207 235.588 251.269 236.288 248.532 236.288C245.81 236.288 244.328 235.588 244.328 235.588V215.25C244.328 215.25 245.81 216.149 248.532 216.149C251.625 216.149 253.207 215.25 253.207 215.25V235.588Z" fill="#4A3E53"/>
<path d="M323.357 199.894L327.376 192.811C327.376 192.811 327.833 191.899 328.759 191.912C330.027 191.938 329.728 193.511 329.728 193.511V206.964L323.357 199.894Z" fill="#A75050"/>
<path d="M346.36 199.894L342.341 192.811C342.341 192.811 341.885 191.899 340.959 191.912C339.676 191.938 339.99 193.511 339.99 193.511V206.964L346.36 199.894Z" fill="#A75050"/>
<path d="M324.113 200.066L329.586 195.203C329.586 195.203 333.733 197.291 340.246 195.203L345.619 200.066L337.624 206.171L331.396 205.167L324.113 200.066Z" fill="white"/>
<path d="M346.617 240.98C346.617 240.98 342.47 243.372 334.987 243.372C328.061 243.372 323.357 240.98 323.357 240.98V199.907C323.357 199.907 327.505 202.299 334.987 202.299C342.455 202.299 346.617 199.907 346.617 199.907V240.98Z" fill="#DF6A6A"/>
<path d="M343.168 235.588C343.168 235.588 339.976 236.791 334.859 236.791C329.757 236.791 326.55 235.588 326.55 235.588V215.25C326.55 215.25 329.742 216.452 334.859 216.452C340.645 216.452 343.168 215.25 343.168 215.25V235.588Z" fill="#A75050"/>
<path d="M304.245 199.894L307.58 192.811C307.58 192.811 307.95 191.899 308.734 191.912C309.789 191.938 309.532 193.511 309.532 193.511V206.964L304.245 199.894Z" fill="#4A3E53"/>
<path d="M323.329 199.894L319.994 192.811C319.994 192.811 319.623 191.899 318.839 191.912C317.784 191.938 318.041 193.511 318.041 193.511V206.964L323.329 199.894Z" fill="#4A3E53"/>
<path d="M304.872 200.066L309.418 195.203C309.418 195.203 312.868 197.291 318.255 195.203L322.702 200.066L316.074 206.171L310.915 205.167L304.872 200.066Z" fill="white"/>
<path d="M323.528 240.98C323.528 240.98 319.994 243.372 313.651 243.372C307.765 243.372 303.775 240.98 303.775 240.98V199.907C303.775 199.907 307.309 202.299 313.651 202.299C320.008 202.299 323.528 199.907 323.528 199.907V240.98Z" fill="#63536F"/>
<path d="M319.637 235.588C319.637 235.588 317.2 236.288 313.78 236.288C310.359 236.288 308.506 235.588 308.506 235.588V215.25C308.506 215.25 310.359 216.149 313.78 216.149C317.656 216.149 319.637 215.25 319.637 215.25V235.588Z" fill="#4A3E53"/>
<path d="M274.942 205.563L278.063 198.797C278.063 198.797 278.405 197.938 279.332 197.832C280.6 197.7 280.5 199.127 280.5 199.127L282.168 211.074L274.942 205.563Z" fill="#5E8D96"/>
<path d="M297.888 202.814L293.014 197.013C293.014 197.013 292.458 196.26 291.518 196.379C290.249 196.55 290.748 197.912 290.748 197.912L292.415 209.858L297.888 202.814Z" fill="#5E8D96"/>
<path d="M275.712 205.629L280.572 200.66C280.572 200.66 284.976 202.022 291.204 199.378L297.161 203.052L289.95 209.435L283.607 209.29L275.712 205.629Z" fill="white"/>
<path d="M303.219 239.262C303.219 239.262 299.371 241.878 291.917 242.777C285.018 243.61 280.03 242.05 280.03 242.05L274.942 205.576C274.942 205.576 279.375 207.202 286.829 206.303C294.282 205.405 298.131 202.788 298.131 202.788L303.219 239.262Z" fill="#7DBCC8"/>
<path d="M296.905 235.971C296.905 235.971 294.496 236.896 291.004 237.306C287.498 237.729 285.517 237.332 285.517 237.332L282.995 219.267C282.995 219.267 285.004 219.836 288.51 219.413C292.472 218.937 294.396 217.893 294.396 217.893L296.905 235.971Z" fill="#D5F2F9"/>
<path d="M367.155 317.747H186.278V322.927H367.155V317.747Z" fill="#FFC866"/>
<path d="M367.155 322.927L375.008 314.985V309.804L367.155 317.747V322.927Z" fill="#E8AC4B"/>
<path d="M375.008 309.804H194.131L186.278 317.747H367.155L375.008 309.804Z" fill="#F7E69B"/>
<path d="M211.776 270.925L214.897 263.842C214.897 263.842 215.253 262.93 215.966 262.943C216.963 262.97 216.721 264.542 216.721 264.542V278.009L211.776 270.925Z" fill="#5E8D96"/>
<path d="M229.648 270.925L226.527 263.842C226.527 263.842 226.171 262.93 225.458 262.943C224.46 262.97 224.703 264.542 224.703 264.542V278.009L229.648 270.925Z" fill="#5E8D96"/>
<path d="M212.36 271.097L216.607 266.234C216.607 266.234 219.828 268.322 224.888 266.234L229.064 271.097L222.85 277.203L218.004 276.198L212.36 271.097Z" fill="white"/>
<path d="M229.848 312.011C229.848 312.011 226.627 314.403 220.812 314.403C215.439 314.403 211.776 312.011 211.776 312.011V270.939C211.776 270.939 214.997 273.33 220.812 273.33C226.612 273.33 229.848 270.939 229.848 270.939V312.011Z" fill="#7DBCC8"/>
<path d="M225.358 307.518C225.358 307.518 223.42 308.219 220.683 308.219C217.961 308.219 216.479 307.518 216.479 307.518V287.18C216.479 287.18 217.961 288.079 220.683 288.079C223.776 288.079 225.358 287.18 225.358 287.18V307.518Z" fill="#D5F2F9"/>
<path d="M332.835 286.044L334.588 280.612C334.588 280.612 334.759 279.925 335.472 279.766C336.441 279.555 336.484 280.665 336.484 280.665L338.907 289.678L332.835 286.044Z" fill="#5E8D96"/>
<path d="M350.18 282.039L345.89 277.995C345.89 277.995 345.391 277.467 344.679 277.639C343.724 277.877 344.237 278.881 344.237 278.881L346.66 287.894L350.18 282.039Z" fill="#5E8D96"/>
<path d="M333.434 286.03L336.683 281.828C336.683 281.828 340.189 282.502 344.722 279.978L349.639 282.304L344.707 287.788L339.833 288.198L333.434 286.03Z" fill="white"/>
<path d="M357.734 309.5C357.734 309.5 355.026 311.826 349.396 313.121C344.18 314.324 340.204 313.544 340.204 313.544L332.835 286.044C332.835 286.044 336.398 286.929 342.028 285.621C347.658 284.312 350.365 282 350.365 282L357.734 309.5Z" fill="#7DBCC8"/>
<path d="M352.575 307.505C352.575 307.505 350.822 308.404 348.171 309.011C345.52 309.619 343.966 309.487 343.966 309.487L340.317 295.862C340.317 295.862 341.914 296.127 344.565 295.519C347.558 294.832 348.94 293.88 348.94 293.88L352.575 307.505Z" fill="#D5F2F9"/>
<path d="M254.105 281.735L257.184 274.639C257.184 274.639 257.526 273.727 258.252 273.74C259.25 273.753 259.008 275.326 259.008 275.326L259.065 288.779L254.105 281.735Z" fill="#4A3E53"/>
<path d="M269.341 281.682L266.647 274.612C266.647 274.612 266.348 273.701 265.721 273.714C264.88 273.74 265.094 275.313 265.094 275.313L265.151 288.766L269.341 281.682Z" fill="#4A3E53"/>
<path d="M254.618 281.907L258.224 277.031C258.224 277.031 260.989 279.119 265.279 277.004L268.856 281.854L263.597 287.986L259.464 286.995L254.618 281.907Z" fill="white"/>
<path d="M269.64 311.985C269.64 311.985 266.904 314.39 261.958 314.403C257.383 314.416 254.248 312.038 254.248 312.038L254.105 281.735C254.105 281.735 256.87 284.114 261.816 284.101C266.761 284.075 269.498 281.683 269.498 281.683L269.64 311.985Z" fill="#A198A9"/>
<path d="M229.734 271.084L233.924 264.001C233.924 264.001 234.394 263.089 235.363 263.102C236.703 263.128 236.375 264.701 236.375 264.701V278.154L229.734 271.084Z" fill="#A75050"/>
<path d="M253.777 271.084L249.587 264.001C249.587 264.001 249.117 263.089 248.148 263.102C246.808 263.128 247.136 264.701 247.136 264.701V278.154L253.777 271.084Z" fill="#A75050"/>
<path d="M230.532 271.256L236.247 266.393C236.247 266.393 240.58 268.481 247.378 266.393L252.993 271.256L244.642 277.361L238.128 276.357L230.532 271.256Z" fill="white"/>
<path d="M254.033 312.157C254.033 312.157 249.701 314.549 241.89 314.549C234.664 314.549 229.747 312.157 229.747 312.157V271.084C229.747 271.084 234.08 273.476 241.89 273.476C249.701 273.476 254.033 271.084 254.033 271.084V312.157Z" fill="#DF6A6A"/>
<path d="M250.442 306.778C250.442 306.778 247.093 307.981 241.763 307.981C236.432 307.981 233.083 306.778 233.083 306.778V286.44C233.083 286.44 236.432 287.643 241.763 287.643C247.806 287.643 250.442 286.44 250.442 286.44V306.778Z" fill="#A75050"/>
<path d="M269.726 274.189L273.332 267.622C273.332 267.622 273.731 266.776 274.572 266.789C275.712 266.802 275.441 268.269 275.441 268.269V280.757L269.726 274.189Z" fill="#4A3E53"/>
<path d="M290.42 274.189L286.814 267.622C286.814 267.622 286.415 266.776 285.574 266.789C284.42 266.802 284.705 268.269 284.705 268.269V280.757L290.42 274.189Z" fill="#4A3E53"/>
<path d="M270.41 274.361L275.327 269.855C275.327 269.855 279.061 271.798 284.919 269.855L289.75 274.361L282.553 280.031L276.952 279.092L270.41 274.361Z" fill="white"/>
<path d="M290.648 312.328C290.648 312.328 286.814 314.549 279.93 314.549C273.545 314.549 269.213 312.328 269.213 312.328V274.203C269.213 274.203 273.047 276.423 279.93 276.423C286.814 276.423 290.648 274.203 290.648 274.203V312.328Z" fill="#63536F"/>
<path d="M286.415 307.333C286.415 307.333 283.779 307.981 280.073 307.981C276.367 307.981 274.358 307.333 274.358 307.333V288.449C274.358 288.449 276.367 289.281 280.073 289.281C284.277 289.281 286.415 288.449 286.415 288.449V307.333Z" fill="#4A3E53"/>
<path d="M290.676 271.163L293.883 264.08C293.883 264.08 294.24 263.168 294.981 263.181C295.993 263.208 295.75 264.78 295.75 264.78V278.233L290.676 271.163Z" fill="#A75050"/>
<path d="M309.034 271.163L305.827 264.08C305.827 264.08 305.471 263.168 304.729 263.181C303.717 263.208 303.96 264.78 303.96 264.78V278.233L309.034 271.163Z" fill="#A75050"/>
<path d="M291.275 271.335L295.636 266.472C295.636 266.472 298.943 268.56 304.145 266.472L308.435 271.335L302.05 277.44L297.076 276.436L291.275 271.335Z" fill="white"/>
<path d="M309.219 312.236C309.219 312.236 305.912 314.628 299.941 314.628C294.425 314.628 290.662 312.236 290.662 312.236V271.163C290.662 271.163 293.969 273.555 299.941 273.555C305.912 273.555 309.219 271.163 309.219 271.163V312.236Z" fill="#DF6A6A"/>
<path d="M306.483 306.857C306.483 306.857 303.931 308.06 299.855 308.06C295.779 308.06 293.228 306.857 293.228 306.857V286.519C293.228 286.519 295.779 287.722 299.855 287.722C304.473 287.722 306.483 286.519 306.483 286.519V306.857Z" fill="#A75050"/>
<path d="M309.718 278.392L313.723 272.551C313.723 272.551 314.164 271.798 315.105 271.811C316.374 271.824 316.074 273.132 316.074 273.132V284.233L309.718 278.392Z" fill="#4A3E53"/>
<path d="M332.664 278.392L328.659 272.551C328.659 272.551 328.217 271.798 327.277 271.811C326.008 271.824 326.308 273.132 326.308 273.132V284.233L332.664 278.392Z" fill="#4A3E53"/>
<path d="M310.473 278.537L315.932 274.533C315.932 274.533 320.065 276.264 326.564 274.533L331.923 278.537L323.942 283.572L317.728 282.74L310.473 278.537Z" fill="white"/>
<path d="M332.906 312.276C332.906 312.276 328.659 314.245 321.02 314.245C313.951 314.245 309.133 312.276 309.133 312.276V278.392C309.133 278.392 313.381 280.361 321.02 280.361C328.659 280.361 332.906 278.392 332.906 278.392V312.276Z" fill="#63536F"/>
<path d="M328.217 307.835C328.217 307.835 325.295 308.417 321.177 308.417C317.058 308.417 314.834 307.835 314.834 307.835V291.065C314.834 291.065 317.058 291.805 321.177 291.805C325.823 291.805 328.217 291.065 328.217 291.065V307.835Z" fill="#4A3E53"/>
<path d="M479.677 379.25C479.677 379.25 482.584 381.787 480.803 383.135C479.649 384.008 475.644 385.078 472.736 383.281C469.829 381.483 467.905 379.541 467.42 377.902C466.935 376.263 466.123 374.466 465.653 374.017C465.182 373.567 464.527 374.017 464.356 372.523C464.199 371.03 465.653 369.087 466.608 368.48C467.577 367.885 479.677 379.25 479.677 379.25Z" fill="white"/>
<path d="M494.186 378.655C494.186 378.655 497.093 381.193 495.312 382.541C494.157 383.413 490.152 384.483 487.245 382.686C484.337 380.889 482.399 378.946 481.929 377.307C481.444 375.669 480.632 373.871 480.161 373.422C479.691 372.973 479.035 373.422 478.864 371.929C478.708 370.436 480.161 368.493 481.116 367.885C482.085 367.29 494.186 378.655 494.186 378.655Z" fill="white"/>
<path d="M467.42 364.594L468.703 369.986L473.549 368.48L472.579 361.912L467.42 364.594Z" fill="#DD9666"/>
<path d="M481.288 361.304L483.539 368.189L488.057 367.594L487.744 359.216L481.288 361.304Z" fill="#DD9666"/>
<path d="M465.795 368.784C465.795 368.784 468.375 371.77 468.703 374.77C469.031 377.757 474.503 380.757 476.77 381.351C479.021 381.946 479.991 381.351 480.318 379.858C480.646 378.365 478.708 375.973 478.38 372.378C478.052 368.784 476.128 366.392 476.128 366.392C476.128 366.392 466.451 364.594 465.795 368.784Z" fill="#292B4A"/>
<path d="M480.318 368.189C480.318 368.189 482.898 371.176 483.226 374.175C483.554 377.162 489.027 380.162 491.293 380.757C493.545 381.351 494.514 380.757 494.842 379.263C495.169 377.77 493.231 375.378 492.903 371.784C492.575 368.189 490.651 365.797 490.651 365.797C490.651 365.797 480.96 364 480.318 368.189Z" fill="#292B4A"/>
<path d="M435.153 244.059C435.153 244.059 430.635 251.539 429.993 254.829C429.352 258.12 430.635 273.079 431.604 276.965C432.573 280.85 439.671 304.783 441.281 308.668C442.892 312.553 445.799 318.236 447.41 320.337C449.02 322.425 455.79 350.851 459.339 356.229C462.888 361.608 467.406 364.608 467.406 364.608L473.206 363.709C473.206 363.709 473.206 357.128 472.565 352.04C471.924 346.952 470.627 335.296 468.375 329.905C466.123 324.526 461.605 309.566 460.949 305.073C460.308 300.58 459.652 293.114 459.652 293.114C459.652 293.114 464.498 304.479 464.812 310.465C465.14 316.452 471.909 343.966 474.161 348.749C476.413 353.533 480.618 363.405 480.618 363.405L489.967 360.709C489.967 360.709 489.967 340.067 488.029 333.195C486.091 326.31 481.9 318.844 481.573 312.262C481.245 305.681 479.321 280.255 478.665 273.079C478.024 265.904 475.758 254.829 472.864 249.451C469.957 244.072 464.798 241.072 464.798 241.072L464.156 237.782L435.153 244.059Z" fill="#63536F"/>
<path opacity="0.23" d="M468.389 329.905C466.137 324.526 461.619 309.567 460.963 305.073C460.322 300.58 459.667 293.114 459.667 293.114C459.667 293.114 457.187 279.661 456.545 277.255C455.904 274.863 454.607 271.877 454.607 271.877C454.607 271.877 453.096 272.868 453.538 274.269C453.966 275.67 454.835 290.418 455.049 294.012C455.263 297.607 456.56 309.765 459.353 314.945C462.146 320.125 467.733 330.103 467.733 330.103L468.389 329.905Z" fill="black"/>
<path d="M487.701 357.828C487.673 357.339 487.601 356.494 487.53 355.436L488.813 355.357C488.884 356.414 488.941 357.26 488.984 357.749L487.701 357.828ZM487.388 353.031C487.345 352.252 487.302 351.445 487.259 350.639L488.542 350.586C488.585 351.393 488.627 352.199 488.67 352.978L487.388 353.031ZM487.145 348.234C487.117 347.335 487.088 346.529 487.088 345.855L488.385 345.816V345.855C488.385 346.516 488.399 347.309 488.442 348.194L487.145 348.234ZM486.817 343.53C486.689 342.816 486.532 342.036 486.347 341.204L487.616 340.953C487.815 341.812 487.972 342.618 488.1 343.331L486.817 343.53ZM485.777 338.878C485.577 338.111 485.378 337.332 485.164 336.565L486.418 336.274C486.632 337.054 486.832 337.847 487.031 338.613L485.777 338.878ZM484.523 334.239C484.295 333.446 484.067 332.667 483.853 331.927L485.093 331.609C485.307 332.349 485.535 333.129 485.763 333.935L484.523 334.239ZM483.169 329.627C482.884 328.715 482.642 327.936 482.456 327.328L483.696 326.984C483.896 327.592 484.138 328.385 484.423 329.297L483.169 329.627ZM481.672 325.055L480.86 322.782L482.086 322.412L482.898 324.685L481.672 325.055ZM480.076 320.495C479.82 319.742 479.577 318.962 479.335 318.183L480.575 317.866C480.803 318.632 481.059 319.412 481.302 320.152L480.076 320.495ZM478.679 315.844C478.466 315.038 478.28 314.231 478.138 313.465L479.406 313.254C479.549 313.994 479.72 314.773 479.934 315.566L478.679 315.844ZM477.81 311.033C477.753 310.412 477.71 309.606 477.653 308.628L478.936 308.562C478.993 309.527 479.05 310.333 479.093 310.941L477.81 311.033ZM477.511 306.236L477.368 303.844L478.651 303.778L478.793 306.17L477.511 306.236ZM477.211 301.452C477.169 300.686 477.112 299.893 477.055 299.06L478.337 298.981C478.394 299.814 478.451 300.607 478.494 301.373L477.211 301.452ZM476.898 296.682L476.713 294.29L477.995 294.197L478.181 296.589L476.898 296.682ZM476.527 291.911C476.47 291.131 476.399 290.338 476.328 289.532L477.61 289.44C477.682 290.246 477.753 291.052 477.81 291.832L476.527 291.911ZM476.1 287.14C476.028 286.361 475.943 285.568 475.872 284.762L477.154 284.656C477.24 285.462 477.311 286.255 477.382 287.048L476.1 287.14ZM475.615 282.383C475.53 281.59 475.444 280.797 475.344 280.004L476.627 279.872C476.713 280.678 476.812 281.471 476.898 282.251L475.615 282.383ZM475.074 277.625C474.974 276.833 474.874 276.053 474.774 275.26L476.057 275.115C476.157 275.907 476.256 276.7 476.356 277.493L475.074 277.625ZM474.446 272.881C474.332 272.088 474.218 271.309 474.104 270.516L475.387 270.357C475.501 271.15 475.615 271.943 475.729 272.736L474.446 272.881ZM473.748 268.15L473.563 266.987C473.491 266.578 473.434 266.181 473.363 265.798L474.632 265.6C474.703 265.996 474.774 266.393 474.845 266.802L475.031 267.978L473.748 268.15ZM472.893 263.459C472.722 262.653 472.537 261.886 472.351 261.146L473.606 260.869C473.791 261.622 473.976 262.402 474.147 263.221L472.893 263.459ZM471.724 258.847C471.482 258.054 471.24 257.287 470.997 256.587L472.223 256.217C472.48 256.944 472.722 257.71 472.964 258.53L471.724 258.847ZM470.142 254.354C469.814 253.574 469.487 252.847 469.159 252.186L470.327 251.684C470.67 252.371 471.012 253.111 471.354 253.917L470.142 254.354ZM467.99 250.112C467.548 249.411 467.092 248.75 466.636 248.156L467.677 247.455C468.161 248.076 468.646 248.777 469.116 249.517L467.99 250.112ZM465.04 246.411C463.942 245.407 463.201 245.116 463.201 245.103L463.686 243.993C463.786 244.033 464.669 244.376 465.952 245.552L465.04 246.411Z" fill="white"/>
<path d="M437.419 245.552C437.419 245.552 437.205 254.327 438.06 254.525C438.915 254.724 440.854 254.724 441.495 253.732C442.136 252.741 441.923 245.354 441.923 245.354L437.419 245.552Z" fill="#4A3E53"/>
<path d="M445.372 245.552C445.372 245.552 447.31 256.323 447.951 258.318C448.593 260.314 450.745 261.503 452.683 260.314C454.621 259.111 455.69 258.913 455.049 256.521C454.407 254.129 451.386 243.953 451.386 243.953L445.372 245.552Z" fill="#4A3E53"/>
<path d="M455.049 242.962C455.049 242.962 455.69 251.142 458.484 251.142C461.277 251.142 462.788 249.543 461.705 247.548C460.636 245.552 458.698 241.363 458.698 241.363L455.049 242.962Z" fill="#4A3E53"/>
<path d="M421.442 167.041C421.442 167.041 419.347 170.636 420.8 172.869C422.254 175.115 431.604 181.247 443.704 182.146C455.804 183.045 461.762 180.943 462.246 179.305C462.731 177.666 462.246 176.767 461.605 173.622C460.964 170.477 460.308 160.169 458.868 158.213C457.415 156.271 444.516 155.517 444.516 155.517L433.072 157.605L424.364 161.2C424.349 161.213 421.613 166.288 421.442 167.041Z" fill="#292B4A"/>
<path d="M435.324 185.582C435.324 185.582 436.45 179.899 436.45 178.697C436.45 177.494 447.581 181.987 447.581 181.987C447.581 181.987 447.737 186.626 447.737 187.221C447.737 187.815 445.158 189.163 444.673 189.163C444.189 189.163 437.248 188.265 437.248 188.265L435.324 185.582Z" fill="#A6714D"/>
<path d="M434.027 161.358L433.214 165.997C433.214 165.997 431.119 164.649 430.15 165.402C429.181 166.156 428.696 168.098 429.665 169.142C430.635 170.186 432.73 170.781 432.73 170.781C432.73 170.781 433.699 177.811 435.466 179.45C437.233 181.089 443.048 184.538 445.3 184.829C447.552 185.133 450.944 183.785 452.241 183.031C453.538 182.278 455.79 178.697 455.947 177.349C456.104 176.001 456.275 172.71 455.947 171.217C455.619 169.724 455.462 166.129 455.462 166.129L448.208 162.839L434.027 161.358Z" fill="#DD9666"/>
<path d="M432.573 160.314C432.573 160.314 432.73 165.852 434.184 165.997C435.637 166.142 437.248 165.244 437.248 165.244C437.248 165.244 442.892 168.23 445.315 168.085C445.315 168.085 447.082 168.838 447.253 167.781C447.41 166.737 447.253 164.636 447.253 164.636C447.253 164.636 449.191 168.23 450.645 168.23C452.099 168.23 454.678 168.085 455.961 167.926C457.258 167.781 457.728 168.521 457.728 166.129C457.728 163.737 458.854 158.2 458.854 158.2C458.854 158.2 457.728 155.663 455.462 153.562C453.21 151.474 450.146 149.068 446.754 148.632C443.362 148.183 441.438 147.734 438.374 148.328C435.309 148.923 433.371 149.227 430.948 151.619C428.525 154.011 426.587 156.997 425.789 158.345C424.976 159.693 424.335 161.187 424.335 161.187C424.335 161.187 425.304 162.68 427.727 162.535C430.164 162.402 432.573 160.314 432.573 160.314Z" fill="#292B4A"/>
<path d="M447.253 172.42C447.253 172.42 445.956 176.305 446.768 176.463C447.581 176.609 448.379 176.767 448.863 176.159C449.348 175.565 449.02 172.565 449.02 172.565C449.02 172.565 447.581 171.521 447.253 172.42Z" fill="#A6714D"/>
<path d="M430.107 237.187C430.107 237.187 431.176 242.975 433.542 244.363C435.908 245.764 444.075 245.962 448.806 245.354C453.538 244.759 459.994 242.764 461.919 241.759C463.857 240.768 465.581 240.768 466.437 239.368C467.292 237.967 467.947 233.791 467.733 230.196C467.52 226.602 465.368 215.435 465.154 214.642C464.94 213.849 470.855 226.007 473.862 227.606C476.869 229.205 480.746 232.786 484.181 231.201C487.616 229.602 487.943 224.223 488.157 221.633C488.371 219.043 480.204 204.889 478.266 202.286C476.328 199.696 472.893 192.718 469.016 191.317C465.14 189.916 453.966 187.723 453.096 187.524C452.241 187.326 450.73 186.93 450.73 186.93L450.089 184.34C450.089 184.34 441.053 188.331 433.314 184.34C433.314 184.34 431.376 185.133 431.376 186.533C431.376 187.934 431.59 190.128 431.59 190.128L424.492 197.304L418.905 204.876L424.492 223.417L430.107 237.187Z" fill="white"/>
<path opacity="0.07" d="M422.896 206.951L427.57 229.839L432.573 237.98C432.573 237.98 458.384 231.201 461.762 228.65C465.14 226.099 466.608 224.752 466.608 224.752L465.482 217.972L464.669 210.175C464.669 210.175 459.823 206.277 458.384 206.277C456.945 206.277 447.894 210.691 443.704 209.832C439.514 208.986 424.991 197.793 422.896 206.951Z" fill="black"/>
<path d="M431.604 190.128C429.666 191.119 420.63 191.925 417.836 194.317C415.043 196.709 412.677 205.88 413.104 210.664C413.532 215.448 417.836 233.196 422.568 237.385C427.3 241.575 428.369 241.376 429.879 240.98C431.39 240.583 436.336 236.196 438.702 233.804C441.067 231.412 442.578 229.218 442.578 229.218L435.694 225.227L429.452 223.827C429.452 223.827 425.361 217.047 424.934 212.263C424.506 207.479 424.079 204.493 424.934 202.696C425.789 200.898 433.1 193.128 433.1 193.128L431.604 190.128Z" fill="white"/>
<path d="M465.966 197.7C465.966 197.7 461.605 198.004 459.681 199.048C457.743 200.092 455.647 204.136 455.32 206.224C454.992 208.312 455.476 209.369 456.446 209.515C457.415 209.66 458.698 209.66 460.151 209.065C461.605 208.471 462.403 206.819 463.543 205.775C464.669 204.731 466.764 205.021 469.515 204.876C472.266 204.731 472.423 205.18 473.221 203.383C474.033 201.585 471.126 196.498 465.966 197.7Z" fill="#DD9666"/>
<path opacity="0.11" d="M480.96 213.254L473.221 203.383C473.221 203.383 473.549 201.44 472.252 200.237C472.252 200.237 478.708 209.065 479.677 210.255C480.646 211.457 480.96 213.254 480.96 213.254Z" fill="black"/>
<path d="M433.542 221.329C433.542 221.329 425.162 218.038 424.677 218.342C424.193 218.646 423.708 219.69 425.162 220.589C426.615 221.487 428.924 222.888 429.466 223.826C430.008 224.765 430.806 225.227 430.806 225.227C430.806 225.227 437.419 229.113 439.029 229.113C440.64 229.113 443.704 227.765 446.768 227.025C449.833 226.271 453.866 223.139 453.538 222.386C453.21 221.633 452.726 221.342 450.631 221.342C448.536 221.342 437.732 222.545 437.732 222.545C437.732 222.545 433.87 221.474 433.542 221.329Z" fill="#DD9666"/>
<path d="M446.213 261.926C445.956 261.688 445.728 261.318 445.5 260.75L446.711 260.327C446.925 260.869 447.082 261.027 447.125 261.067L446.213 261.926ZM444.787 258.358C444.616 257.618 444.445 256.812 444.303 255.979L445.571 255.781C445.714 256.6 445.885 257.393 446.041 258.107L444.787 258.358ZM443.904 253.587C443.775 252.768 443.661 251.962 443.562 251.195L444.844 251.05C444.944 251.803 445.058 252.609 445.172 253.415L443.904 253.587ZM443.262 248.816C443.091 247.376 443.006 246.411 443.006 246.411L444.288 246.306C444.288 246.306 444.374 247.257 444.545 248.684L443.262 248.816Z" fill="white"/>
<path d="M446.483 220.034C446.483 220.034 436.279 210.942 424.592 205.471L422.896 207.836L446.483 220.034Z" fill="#CCCCCC"/>
<path d="M446.255 220.139C446.255 220.139 429.509 208.959 421.556 206.475L419.803 208.867L446.255 220.139Z" fill="#E6E6E6"/>
<path d="M446.255 220.628C446.255 220.628 427.642 210.069 418.164 208.206V209.951L446.255 220.628Z" fill="#CCCCCC"/>
<path d="M446.426 220.073C446.426 220.073 456.403 210.942 468.09 205.471L469.786 207.836L446.426 220.073Z" fill="#CCCCCC"/>
<path d="M446.426 220.139C446.426 220.139 463.173 208.959 471.125 206.475L472.879 208.867L446.426 220.139Z" fill="#E6E6E6"/>
<path d="M446.426 220.628C446.426 220.628 465.04 210.069 474.518 208.206V209.951L446.426 220.628Z" fill="#CCCCCC"/>
<path d="M415.798 214.298L445.158 225.518L474.518 217.298C474.518 217.298 475.33 214.008 473.392 213.704C471.453 213.4 444.844 219.386 444.844 219.386L418.549 210.413C418.549 210.413 413.546 211.312 415.798 214.298Z" fill="#FFC866"/>
<path d="M59.361 377.162L53.5603 391.514L60.0166 394.5L66.7865 393.602L68.0835 391.514C68.0835 391.514 64.8624 381.338 65.176 378.655C65.4895 375.959 59.361 377.162 59.361 377.162Z" fill="#DD9666"/>
<path d="M52.5769 395.108C52.5769 395.108 47.5173 400.196 50.7526 401.689C53.9736 403.183 60.9715 401.993 63.2234 403.777C65.4753 405.575 63.2234 405.271 70.9624 406.764C83.1054 409.116 84.83 406.368 83.2194 404.266C81.6089 402.178 79.3428 398.98 79.3428 398.98L64.8197 396.588L52.5769 395.108Z" fill="white"/>
<path d="M55.2706 386.532C55.2706 386.532 52.9047 387.523 52.0496 390.126C51.1944 392.716 51.1944 395.914 51.1944 395.914C51.1944 395.914 57.2089 398.505 59.361 398.703C61.5131 398.901 64.0928 398.504 65.1617 399.496C66.2306 400.487 66.2306 401.095 66.2306 401.095C66.2306 401.095 77.6325 402.086 79.3428 401.888C81.0531 401.689 81.7087 401.293 81.7087 401.293C81.7087 401.293 84.0746 399.892 82.3501 397.897C80.6255 395.901 74.3972 393.707 72.2451 391.514C70.093 389.32 69.2379 388.329 67.9409 388.329C66.644 388.329 64.9337 389.32 64.7199 389.928C64.5061 390.523 64.5061 392.518 64.5061 392.518C64.5061 392.518 59.133 389.333 58.2636 388.725C57.4227 388.131 55.2706 386.532 55.2706 386.532Z" fill="#292B4A"/>
<path d="M91.3006 375.418L88.2933 390.668L95.6903 392.346L102.588 390.139L103.486 387.827C103.486 387.827 97.9279 378.47 97.6999 375.761C97.4718 373.039 91.3006 375.418 91.3006 375.418Z" fill="#DD9666"/>
<path d="M88.0653 394.381C88.0653 394.381 83.8608 400.368 87.5664 401.2C91.2578 402.033 98.327 399.496 101.078 400.817C103.828 402.139 101.391 402.284 109.829 402.231C123.055 402.152 124.266 399.112 122.128 397.381C119.991 395.65 116.941 392.954 116.941 392.954L101.234 393.456L88.0653 394.381Z" fill="white"/>
<path d="M89.0344 385.435C89.0344 385.435 86.7682 386.875 86.4262 389.598C86.0841 392.32 86.7682 395.452 86.7682 395.452C86.7682 395.452 93.6236 396.813 95.9183 396.588C98.2129 396.364 100.835 395.465 102.161 396.232C103.501 396.998 103.629 397.593 103.629 397.593C103.629 397.593 115.772 396.337 117.539 395.809C119.292 395.28 119.891 394.751 119.891 394.751C119.891 394.751 122.071 392.915 119.834 391.289C117.61 389.664 110.612 388.739 107.89 387.007C105.168 385.276 104.056 384.457 102.702 384.721C101.348 384.972 99.7664 386.294 99.6666 386.928C99.5669 387.562 99.9944 389.518 99.9944 389.518C99.9944 389.518 93.6806 387.443 92.6545 387.021C91.6283 386.584 89.0344 385.435 89.0344 385.435Z" fill="#292B4A"/>
<path d="M59.361 247.653C59.361 247.653 52.5912 261.714 51.9356 267.992C51.2942 274.269 50.6386 284.141 51.6078 290.127C52.5769 296.113 60.3159 327.513 60.9573 329.31C61.5987 331.107 60.9573 334.398 59.6603 338.878C58.3634 343.358 57.4085 350.547 57.4085 355.621C57.4085 360.709 58.0498 378.655 58.0498 378.655C58.0498 378.655 63.8505 382.25 67.7272 381.946C67.7272 381.946 73.8557 358.013 76.4353 349.939C79.015 341.864 79.3428 337.08 80.312 333.195C81.2811 329.31 83.2195 308.972 83.2195 308.972C83.2195 308.972 83.7896 313.835 84.4594 319.412C85.2148 325.715 86.0984 332.931 86.4547 334.992C87.0961 338.878 83.2337 348.459 84.2029 359.52C85.172 370.581 90.0036 383.148 90.0036 383.148C90.0036 383.148 99.3531 382.554 100.65 381.351C100.65 381.351 100.65 353.837 101.619 344.256C102.588 334.688 102.588 331.993 102.916 327.513C103.244 323.033 100.978 289.228 98.0704 279.357C95.1629 269.485 85.8134 244.958 85.8134 244.958L59.361 247.653Z" fill="#63536F"/>
<path d="M78.9295 250.336C78.9295 250.336 77.8606 261.503 80.2265 261.899C82.5924 262.296 84.1031 262.296 84.1031 260.697C84.1031 259.098 82.8061 250.125 82.8061 250.125L78.9295 250.336Z" fill="#4A3E53"/>
<path d="M75.5375 251.367C75.4947 250.627 75.4805 250.164 75.4805 250.164L76.7774 250.125C76.7774 250.125 76.7917 250.574 76.8344 251.314L75.5375 251.367Z" fill="white"/>
<path d="M76.2786 259.983C76.1788 259.309 76.0933 258.582 76.0078 257.829L77.2904 257.71C77.3617 258.45 77.4472 259.164 77.547 259.825L76.2786 259.983ZM75.8083 255.675C75.7513 254.922 75.6942 254.195 75.6515 253.521L76.9341 253.455C76.9769 254.116 77.0339 254.842 77.0909 255.596L75.8083 255.675Z" fill="white"/>
<path d="M77.433 263.564C77.1337 263.34 76.9057 262.904 76.7062 262.177L77.9603 261.873C78.1314 262.507 78.2739 262.653 78.2739 262.653L77.433 263.564Z" fill="white"/>
<path d="M84.3027 249.94L85.8134 257.314C85.8134 257.314 88.1793 257.909 88.3931 256.719C88.6068 255.517 86.4548 249.741 86.4548 249.741L84.3027 249.94Z" fill="#4A3E53"/>
<path d="M73.7702 250.138C73.7702 250.138 75.0671 256.719 73.984 257.116C72.9151 257.512 70.763 258.107 70.5492 257.314C70.3354 256.521 70.3354 250.534 70.3354 250.534L73.7702 250.138Z" fill="#4A3E53"/>
<path d="M61.2423 250.746L60.0024 250.429C60.2162 249.675 60.3587 249.266 60.3587 249.266L61.5987 249.609C61.5844 249.623 61.4561 250.019 61.2423 250.746Z" fill="white"/>
<path d="M59.6318 375.18C59.5748 374.374 59.5178 373.554 59.475 372.748L60.7578 372.695C60.8005 373.501 60.8433 374.308 60.9145 375.1L59.6318 375.18ZM59.3895 370.303C59.3753 369.577 59.361 368.836 59.361 368.11V367.872H60.658V368.11C60.658 368.836 60.6722 369.563 60.6865 370.29L59.3895 370.303ZM60.7007 365.467L59.4038 365.44C59.418 364.621 59.4465 363.815 59.4893 363.009L60.7863 363.061C60.7435 363.854 60.715 364.66 60.7007 365.467ZM60.9145 360.643L59.6318 360.577C59.6888 359.758 59.7458 358.952 59.8171 358.145L61.0998 358.238C61.0285 359.031 60.9715 359.837 60.9145 360.643ZM61.3278 355.82L60.0451 355.714C60.1306 354.894 60.2162 354.088 60.3159 353.295L61.5986 353.428C61.4989 354.207 61.4134 355.013 61.3278 355.82ZM61.8979 351.022L60.6152 350.877C60.7292 350.058 60.8433 349.252 60.9715 348.459L62.2542 348.63C62.126 349.41 62.012 350.216 61.8979 351.022ZM62.6391 346.239L61.3706 346.054C61.5131 345.221 61.6556 344.428 61.7982 343.648L63.0666 343.86C62.9241 344.626 62.7816 345.419 62.6391 346.239ZM63.537 341.481L62.2685 341.256C62.4395 340.411 62.6248 339.605 62.7816 338.864L64.05 339.116C63.879 339.856 63.708 340.649 63.537 341.481ZM64.6201 336.763L63.3659 336.486C63.6082 335.521 63.8363 334.728 64.0215 334.107L65.2615 334.437C65.0762 335.045 64.8624 335.825 64.6201 336.763ZM66.1166 332.059L64.8339 331.913C64.8482 331.768 64.8624 331.596 64.8624 331.438C64.8624 330.988 64.7912 330.42 64.6629 329.68L65.9314 329.482C66.0739 330.288 66.1451 330.909 66.1451 331.438C66.1451 331.662 66.1309 331.86 66.1166 332.059ZM64.1498 327.328L64.0358 326.839C63.8933 326.244 63.7507 325.61 63.6082 324.949L64.8767 324.711C65.0192 325.372 65.1617 326.006 65.3043 326.588L65.4183 327.077L64.1498 327.328ZM63.1236 322.557C62.9954 321.936 62.8386 321.13 62.6391 320.178L63.9075 319.954C64.1071 320.918 64.2781 321.724 64.3921 322.346L63.1236 322.557ZM62.1402 317.786L61.6414 315.408L62.9099 315.183L63.4087 317.562L62.1402 317.786ZM61.1568 313.016L60.6722 310.624L61.9407 310.412L62.4253 312.791L61.1568 313.016ZM60.2019 308.245L59.7458 305.853L61.0143 305.642L61.4704 308.034L60.2019 308.245ZM59.2898 303.461C59.1472 302.668 58.9905 301.875 58.8479 301.069L60.1164 300.871C60.2589 301.677 60.4157 302.47 60.5582 303.263L59.2898 303.461ZM58.4204 298.664C58.2778 297.871 58.1353 297.065 58.007 296.259L59.2755 296.074C59.4038 296.867 59.5463 297.673 59.6888 298.466L58.4204 298.664ZM57.6222 293.867C57.494 293.061 57.3657 292.255 57.2517 291.462L58.5344 291.29C58.6484 292.083 58.7767 292.889 58.9049 293.682L57.6222 293.867ZM56.8954 289.043C56.7813 288.224 56.6816 287.418 56.5818 286.625L57.8645 286.493C57.9643 287.286 58.0641 288.079 58.1781 288.898L56.8954 289.043ZM56.2968 284.207C56.2112 283.374 56.1257 282.568 56.0545 281.775L57.3372 281.682C57.4084 282.462 57.4797 283.268 57.5795 284.088L56.2968 284.207ZM55.8834 279.343C55.8549 278.722 55.8264 278.141 55.8122 277.573L55.7979 276.899L57.0949 276.885L57.1092 277.546C57.1234 278.101 57.1519 278.683 57.1804 279.291L55.8834 279.343ZM57.1092 274.48L55.8122 274.441C55.8407 273.621 55.8834 272.815 55.9404 271.996L57.2232 272.075C57.1804 272.881 57.1377 273.687 57.1092 274.48ZM57.437 269.683L56.1542 269.577C56.2398 268.758 56.3253 267.952 56.4393 267.159L57.722 267.304C57.608 268.084 57.5225 268.877 57.437 269.683ZM58.0498 264.899L56.7671 264.727C56.8954 263.908 57.0379 263.102 57.1804 262.322L58.4489 262.52C58.3206 263.3 58.1781 264.093 58.0498 264.899ZM58.9192 260.142L57.6507 259.917C57.8218 259.085 57.9928 258.292 58.1638 257.525L59.4323 257.763C59.247 258.529 59.076 259.322 58.9192 260.142ZM59.9739 255.424L58.7197 255.16C58.9334 254.287 59.1472 253.495 59.3325 252.794L60.5867 253.085C60.4014 253.772 60.1877 254.565 59.9739 255.424Z" fill="white"/>
<path d="M60.0024 378.721C59.9454 378.325 59.9026 377.929 59.8599 377.519L61.1426 377.4C61.1853 377.796 61.2281 378.193 61.2851 378.576L60.0024 378.721Z" fill="white"/>
<path opacity="0.23" d="M83.2195 307.465C83.2195 307.465 84.5164 289.215 84.1886 283.533C84.1886 283.533 85.4856 281.735 86.1269 285.026C86.7683 288.316 91.9276 316.134 91.6141 320.918C91.2863 325.702 86.4547 334.979 86.4547 334.979C86.1127 332.918 85.229 325.702 84.4594 319.399C83.7895 313.822 83.2195 308.959 83.2195 308.959" fill="black"/>
<path d="M78.9295 180.745C78.9295 180.745 83.2337 180.15 85.172 177.349C87.1103 174.56 88.1793 169.975 86.469 166.38C84.7445 162.786 77.433 153.02 76.1503 152.227C74.8533 151.434 70.3495 149.835 67.1142 151.024C65.0334 151.791 62.1687 155.213 62.1687 155.213L78.9295 180.745Z" fill="#292B4A"/>
<path d="M70.9624 183.943L70.8627 186.639L70.7344 190.128L78.901 191.33C78.901 191.33 78.4734 187.472 78.3024 184.63C78.2311 183.441 78.2026 182.437 78.2596 181.961C78.4734 180.362 78.4734 179.569 78.4734 179.569L72.0171 179.965L70.9624 183.943Z" fill="#DD9666"/>
<path opacity="0.16" d="M78.3167 184.617C78.2454 183.428 78.2169 182.423 78.2739 181.948C78.4877 180.349 78.4877 179.556 78.4877 179.556L72.0313 179.952L70.9624 183.943L70.8626 186.639C70.8626 186.639 74.269 187.009 78.0459 184.842L78.3167 184.617Z" fill="black"/>
<path d="M75.908 159.218C75.908 159.218 82.1505 168.389 82.5781 170.186C83.0057 171.983 82.7919 174.772 82.5781 176.371C82.3643 177.97 82.0223 178.525 81.2811 179.358C80.312 180.454 77.8463 181.749 76.5494 181.948C75.2524 182.146 70.5349 181.948 68.3828 181.353C66.2307 180.758 58.2779 171.389 58.2779 171.389L57.6366 163.209L62.3683 157.83L69.6798 154.645L75.908 159.218Z" fill="#DD9666"/>
<path d="M67.1998 158.411C67.1998 158.411 71.6038 161.398 77.5185 161.504L78.2739 159.707C78.2739 159.707 75.794 154.13 74.3972 153.72C73.0005 153.324 67.7271 153.02 67.7271 153.02L62.1402 155.213C62.1402 155.213 55.3703 154.315 52.5769 157.804C49.7834 161.292 44.2962 172.459 52.2491 180.441C60.2019 188.423 70.2071 188.423 74.5113 183.23C74.5113 183.23 67.4136 179.939 64.2923 175.049C62.3255 171.97 61.5986 170.16 61.5986 170.16C61.5986 170.16 68.8246 167.094 67.1998 158.411Z" fill="#292B4A"/>
<path d="M73.1146 168.283C73.1146 168.283 75.0529 173.768 75.8082 173.662C76.5636 173.556 78.1741 172.565 78.0601 172.063C77.9461 171.561 74.6253 167.477 74.0837 167.477C73.5421 167.49 72.687 167.49 73.1146 168.283Z" fill="#A6714D"/>
<path d="M90.8587 185.331C90.8587 185.331 90.3171 181.934 89.8895 181.142C89.4619 180.349 88.0652 179.741 88.279 177.256C88.4928 174.759 89.3479 172.367 89.3479 170.371C89.3479 168.376 89.5617 168.574 90.5309 168.68C91.5 168.785 92.1414 170.371 92.4692 170.569C92.797 170.768 94.7211 167.081 96.018 166.578C97.315 166.076 100.208 165.085 101.719 165.376C103.23 165.68 104.299 166.076 103.33 166.777C102.36 167.477 100.422 169.565 99.0253 171.865C97.6286 174.164 95.5905 180.335 95.1486 181.631C94.7211 182.926 94.9349 185.119 94.9349 185.423C94.9349 185.727 92.0274 187.221 92.0274 187.221L90.8587 185.331Z" fill="#DD9666"/>
<path d="M65.5893 280.057C65.5893 280.057 63.8647 288.832 64.0785 290.827C64.2923 292.823 66.0169 294.62 66.4444 296.404C66.872 298.201 67.7414 302.391 69.4517 302.192C71.1763 301.994 70.9625 301.796 72.2452 301.796C73.5422 301.796 73.1003 296.219 72.8866 295.017C72.6728 293.814 72.6728 290.827 72.6728 290.827C72.6728 290.827 73.5279 294.422 74.3973 294.012C75.2525 293.616 75.0387 290.827 75.0387 288.832C75.0387 286.836 71.8176 280.85 70.7344 280.057C69.6797 279.251 65.5893 280.057 65.5893 280.057Z" fill="#DD9666"/>
<path d="M53.7599 220.43C53.7599 220.43 53.5461 227.21 53.3323 230.804C53.1185 234.399 53.9736 235.39 54.1874 238.575C54.4012 241.759 54.615 250.944 61.9265 251.34C69.2379 251.737 83.8608 252.332 85.3716 251.539C86.8823 250.746 91.1723 248.75 91.6141 243.16C92.0417 237.583 91.1865 223.219 92.9111 220.034C94.6356 216.849 91.8421 209.858 90.9727 208.272C90.9727 208.272 93.5524 211.457 97.4291 212.66C101.306 213.862 109.686 217.642 111.411 217.444C113.135 217.245 114.632 211.655 113.563 208.272C112.494 204.876 96.3601 184.141 96.3601 184.141C96.3601 184.141 91.6284 184.141 90.873 185.344C90.873 185.344 91.8421 189.731 92.0559 191.529C92.2697 193.326 94.208 198.308 94.208 198.308C94.208 198.308 89.9038 194.515 87.7517 193.921C85.5996 193.326 83.2337 193.722 82.5924 192.52C81.951 191.317 81.7372 188.925 81.7372 188.925C81.7372 188.925 70.3353 187.934 68.1832 188.331C68.1832 188.331 67.7557 190.524 65.8173 192.123C63.879 193.722 55.2849 199.497 53.5603 204.083C51.8215 208.669 53.9736 218.831 53.7599 220.43Z" fill="white"/>
<path opacity="0.11" d="M61.9407 251.34C54.6292 250.944 54.4155 241.773 54.2017 238.575C53.9879 235.39 53.1327 234.385 53.3465 230.804C53.5603 227.21 53.7741 220.43 53.7741 220.43L63.879 235.984L69.0383 208.074C69.0383 208.074 70.9767 208.669 72.4731 211.061C73.9839 213.453 75.0528 222.426 75.2666 230.804C75.4804 239.183 80.8535 244.165 85.7991 244.958C90.7446 245.75 91.5997 243.16 91.5997 243.16C91.1722 248.737 86.868 250.733 85.3572 251.539C83.875 252.332 69.2521 251.737 61.9407 251.34Z" fill="black"/>
<path d="M71.1762 209.263C71.1762 209.263 73.1146 220.827 73.5421 227.011C73.9697 233.196 72.0314 243.359 71.8176 244.759C71.6038 246.16 73.7559 259.309 73.5421 265.097C73.3283 270.886 72.0314 281.643 72.0314 281.643C72.0314 281.643 67.0858 284.431 64.5061 281.841C64.5061 281.841 64.9337 278.854 63.8648 274.467C62.7958 270.08 59.9881 259.706 59.7743 254.724C59.5605 249.741 59.5605 249.345 58.7054 245.354C57.8502 241.363 55.0425 221.025 55.0425 220.628C55.0425 220.232 59.133 204.281 59.133 204.281L67.7414 204.48C67.7414 204.48 70.7487 207.07 71.1762 209.263Z" fill="white"/>
<path d="M488.385 394.817C488.385 394.817 492.533 402.073 494.1 402.892C495.668 403.711 499.017 403.606 500.443 403.526C501.868 403.447 504.205 401.914 504.205 401.914L501.455 398.993C501.455 398.993 496.096 392.941 495.169 392.188C494.257 391.434 488.385 394.817 488.385 394.817Z" fill="#A6714D"/>
<path d="M491.335 404.147C491.335 404.147 488.086 409.552 489.796 411.27C491.492 412.988 499.474 414.006 503.464 414.402C507.455 414.799 512.372 415.512 517.488 416.477C522.605 417.429 527.294 413.927 526.638 411.442C525.983 408.944 522.605 407.293 522.605 407.293L514.054 405.112L503.92 404.319L497.578 405.667L491.335 404.147Z" fill="#E6E6E6"/>
<path d="M491.962 400.91C491.962 400.91 489.796 403.117 490.067 404.914C490.338 406.711 491.122 408.112 491.122 408.112C491.122 408.112 498.276 409.936 501.184 409.566C504.077 409.196 505.459 407.57 507.056 408.165C508.652 408.76 507.013 410.583 510.277 411.138C513.541 411.68 523.175 410.663 524.429 410.134C525.684 409.592 526.068 408.31 525.954 407.2C525.84 406.09 525.341 404.266 522.32 403.751C519.284 403.222 513.341 399.099 510.234 397.249C507.127 395.399 506.044 394.408 504.305 395.108C502.552 395.822 499.445 395.941 499.488 397.712C499.516 399.482 500.329 400.659 500.329 400.659C500.329 400.659 494.542 403.156 491.962 400.91Z" fill="#292B4A"/>
<path d="M420.573 319.372L421.998 328.9L425.903 331.86L431.219 331.213L430.506 319.703L420.573 319.372Z" fill="#DD9666"/>
<path d="M430.15 291.739C430.15 291.739 431.917 298.981 431.917 300.62C431.917 302.259 434.041 307.201 434.041 307.201L429.78 311.152L421.627 309.514L415.955 307.875L414.188 297.673L415.256 292.413L430.15 291.739Z" fill="#DD9666"/>
<path d="M409.456 295.902C409.456 295.902 409.926 305.324 410.881 307.967C411.821 310.597 415.37 316.293 417.508 318.487C419.632 320.68 420.344 321.989 424.364 322.438C428.383 322.874 431.932 323.76 435.481 322.213C439.029 320.68 440.212 318.051 440.44 316.293C440.668 314.535 437.134 306.871 435.951 306.421C434.768 305.985 433.585 305.76 433.585 305.76C433.585 305.76 430.036 308.615 427.2 307.73C424.364 306.857 420.344 307.954 418.449 301.584C416.553 295.228 417.266 296.1 417.266 296.1C417.266 296.1 423.651 293.47 426.245 293.246C428.853 293.021 431.205 293.47 432.388 292.374C433.571 291.277 435.224 286.453 432.145 285.581C429.067 284.709 424.335 282.515 418.905 284.709C413.489 286.916 409.456 291.739 409.456 295.902Z" fill="#292B4A"/>
<path d="M411.594 301.175C411.594 301.175 409.228 298.981 408.045 299.642C406.862 300.303 406.619 303.593 408.287 304.69C409.94 305.787 412.064 305.351 412.064 305.351C412.064 305.351 411.822 301.611 411.594 301.175Z" fill="#DD9666"/>
<path d="M426.972 299.682C426.972 299.682 427.827 305.602 428.383 305.866C428.953 306.131 429.666 305.998 430.364 305.338C431.076 304.677 428.668 299.166 428.668 299.166C428.668 299.166 426.829 298.505 426.972 299.682Z" fill="#A6714D"/>
<path d="M421.998 327.922C421.998 327.922 427.912 330.988 430.036 329.891C432.16 328.795 431.219 327.698 431.219 327.698C431.219 327.698 437.134 328.358 441.866 329.667C446.597 330.988 450.146 333.83 452.27 335.812C454.393 337.794 453.695 353.798 454.393 355.331C455.106 356.864 462.432 364.105 462.432 364.105L439.257 377.915L423.893 390.853C423.893 390.853 415.613 385.593 412.777 379.012C409.94 372.431 408.515 354.895 408.757 349.186C409 343.49 406.149 342.168 407.332 337.781C408.515 333.393 421.043 328.358 421.043 328.358L421.998 327.922Z" fill="white"/>
<path opacity="0.11" d="M452.27 335.812C454.393 337.781 453.695 353.798 454.393 355.331C455.106 356.864 462.432 364.105 462.432 364.105L439.257 377.915L422.938 387.126C422.938 387.126 419.86 381.867 419.86 377.255C419.86 372.656 420.102 364.542 418.435 361.462C416.781 358.396 408.743 346.331 411.807 341.732C414.886 337.133 428.597 338.666 428.597 338.666C428.597 338.666 430.963 337.345 437.348 338.666C443.747 339.975 452.27 335.812 452.27 335.812Z" fill="black"/>
<path d="M463.13 309.699L445.186 333.988C443.946 335.666 444.203 337.939 445.799 339.34L454.75 347.243C456.446 348.749 459.182 348.538 460.593 346.794L480.019 322.901C480.632 322.147 480.504 321.077 479.72 320.469L465.396 309.395C464.698 308.866 463.643 309.011 463.13 309.699Z" fill="#292B4A"/>
<path d="M462.674 314.324L449.191 333.182L460.066 342.168L474.019 323.099L462.674 314.324Z" fill="#F6F6E3"/>
<path d="M458.17 340.86C458.17 340.86 458.413 337.358 458.641 334.715C458.883 332.085 457.7 330.328 458.17 329.019C458.641 327.698 459.595 327.262 460.294 328.795C461.006 330.327 460.764 334.94 463.13 335.376C465.496 335.812 471.411 333.618 472.594 332.521C473.776 331.424 475.202 329.891 475.202 329.891C475.202 329.891 476.627 332.085 475.672 333.843C474.731 335.6 470.712 339.539 468.346 340.635C465.981 341.732 463.615 343.926 463.615 343.926L458.17 340.86Z" fill="#DD9666"/>
<path d="M497.663 395.676C497.663 395.676 502.623 402.469 504.291 403.13C505.944 403.791 509.251 403.354 510.676 403.13C512.101 402.905 514.225 401.161 514.225 401.161L511.146 398.531C511.146 398.531 505.117 393.047 504.105 392.386C503.108 391.725 497.663 395.676 497.663 395.676Z" fill="#DD9666"/>
<path d="M501.683 404.663C501.683 404.663 499.074 410.359 500.97 411.905C502.865 413.438 510.904 413.662 514.923 413.662C518.942 413.662 523.916 413.887 529.118 414.323C534.32 414.759 538.582 410.821 537.627 408.403C536.686 405.984 533.138 404.676 533.138 404.676L524.387 403.354L514.225 403.579L508.082 405.548L501.683 404.663Z" fill="white"/>
<path d="M501.924 401.372C501.924 401.372 500.028 403.791 500.498 405.535C500.969 407.293 501.924 408.601 501.924 408.601C501.924 408.601 509.249 409.698 512.086 409.037C514.922 408.376 516.105 406.619 517.758 407.068C519.411 407.504 518 409.486 521.307 409.698C524.613 409.922 534.077 407.94 535.26 407.279C536.443 406.619 536.685 405.31 536.443 404.213C536.2 403.117 535.502 401.359 532.424 401.148C529.345 400.923 522.96 397.421 519.654 395.888C516.347 394.355 515.164 393.47 513.511 394.355C511.858 395.227 508.779 395.676 509.021 397.421C509.264 399.178 510.204 400.275 510.204 400.275C510.204 400.275 504.76 403.341 501.924 401.372Z" fill="#292B4A"/>
<path d="M453.381 395.676C453.381 395.676 461.534 394.857 467.577 391.395C473.605 387.946 481.23 377.915 481.23 377.915C481.23 377.915 486.547 394.685 488.684 396.007C490.808 397.328 493.644 395.848 494.898 395.518C496.138 395.188 486.917 369.048 486.746 368.546C486.575 368.057 479.121 364.436 479.121 364.436L465.467 369.695L453.381 395.676Z" fill="#A75050"/>
<path d="M437.248 372.325C436.72 372.656 426.074 377.915 425.361 380.215C424.649 382.514 420.572 387.774 424.649 393.047C428.725 398.306 433.699 399.456 438.131 399.628C442.564 399.786 451.614 402.919 468.46 385.157C468.46 385.157 477.325 372.167 478.751 371.176C480.176 370.184 481.416 370.356 481.416 371.017C481.416 371.678 493.473 396.509 497.022 397.17C497.022 397.17 503.764 392.888 505.175 392.73C505.175 392.73 499.502 375.629 497.364 372.008C495.241 368.387 493.288 358.529 492.575 356.388C491.863 354.247 488.314 351.459 486.718 350.798C485.121 350.137 481.929 348.829 478.38 349.318C474.831 349.807 454.963 362.797 451.6 365.44C448.251 368.044 437.248 372.325 437.248 372.325Z" fill="#DF6A6A"/>
<path d="M421.057 333.618C421.057 333.618 414.914 330.552 411.365 334.94C407.817 339.327 413.974 350.282 417.28 353.798C420.587 357.3 438.331 369.365 440.697 370.237C443.063 371.11 446.369 369.14 447.324 367.819C448.265 366.497 458.441 353.784 461.52 350.282C464.598 346.78 465.781 342.829 465.781 342.829L458.213 339.591C458.213 339.591 455.134 339.75 450.645 344.137C446.155 348.525 443.077 353.348 443.077 353.348C443.077 353.348 435.267 341.071 431.96 338.653C428.611 336.248 425.547 333.407 421.057 333.618Z" fill="white"/>
<path d="M249.872 125.836L249.958 118.343C249.958 118.343 249.929 117.392 250.471 117.22C251.212 116.995 251.525 118.541 251.525 118.541L255.716 131.307L249.872 125.836Z" fill="#4A3E53"/>
<path d="M263.013 121.356L258.509 115.423C258.509 115.423 257.968 114.643 257.44 114.841C256.713 115.105 257.383 116.546 257.383 116.546L261.573 129.312L263.013 121.356Z" fill="#4A3E53"/>
<path d="M250.357 125.849L251.967 120.18C251.967 120.18 254.989 121.356 258.053 118.105L262.642 121.673L259.977 129.021L256.1 129.285L250.357 125.849Z" fill="white"/>
<path d="M275.954 160.262C275.954 160.262 274.329 163.341 270.053 164.794C266.106 166.142 262.657 164.794 262.657 164.794L249.872 125.836C249.872 125.836 252.993 127.29 257.269 125.836C261.545 124.382 263.17 121.303 263.17 121.303L275.954 160.262Z" fill="#63536F"/>
<path d="M183.798 409.063C183.713 409.063 183.642 409.05 183.556 409.037C182.858 408.918 182.402 408.284 182.53 407.636L228.194 185.199C228.323 184.551 229.007 184.115 229.705 184.247C230.403 184.366 230.86 185 230.731 185.648L185.067 408.085C184.953 408.667 184.411 409.063 183.798 409.063Z" fill="#292B4A"/>
<path d="M136.552 401.795C136.466 401.795 136.395 401.782 136.309 401.769C135.611 401.65 135.155 401.015 135.283 400.368L180.948 177.93C181.076 177.283 181.76 176.847 182.459 176.979C183.157 177.098 183.613 177.732 183.485 178.38L137.82 400.817C137.706 401.399 137.165 401.795 136.552 401.795Z" fill="#292B4A"/>
<path d="M192.649 365.929C192.592 365.929 192.521 365.929 192.464 365.916L145.06 359.441C144.362 359.348 143.863 358.74 143.977 358.079C144.077 357.419 144.733 356.969 145.445 357.075L192.849 363.55C193.547 363.643 194.046 364.251 193.932 364.912C193.832 365.493 193.29 365.929 192.649 365.929Z" fill="#292B4A"/>
<path d="M198.222 338.798C198.165 338.798 198.093 338.798 198.036 338.785L150.633 332.31C149.935 332.217 149.436 331.609 149.55 330.949C149.65 330.288 150.319 329.839 151.018 329.944L198.421 336.42C199.12 336.512 199.618 337.12 199.504 337.781C199.405 338.376 198.849 338.798 198.222 338.798Z" fill="#292B4A"/>
<path d="M204.108 310.148C204.051 310.148 203.979 310.148 203.922 310.135L156.519 303.659C155.821 303.567 155.322 302.959 155.436 302.298C155.536 301.637 156.192 301.188 156.904 301.294L204.307 307.769C205.006 307.862 205.504 308.47 205.39 309.13C205.276 309.725 204.735 310.148 204.108 310.148Z" fill="#292B4A"/>
<path d="M209.324 283.837C209.267 283.837 209.196 283.837 209.139 283.823L161.921 277.374C161.222 277.282 160.724 276.674 160.838 276.013C160.937 275.352 161.593 274.903 162.306 275.009L209.524 281.458C210.222 281.55 210.721 282.158 210.607 282.819C210.493 283.414 209.951 283.837 209.324 283.837Z" fill="#292B4A"/>
<path d="M214.783 258.133C214.712 258.133 214.655 258.133 214.583 258.12L167.209 251.473C166.51 251.38 166.026 250.759 166.125 250.111C166.225 249.464 166.895 249.001 167.593 249.107L214.968 255.754C215.666 255.847 216.151 256.468 216.051 257.115C215.966 257.71 215.41 258.133 214.783 258.133Z" fill="#292B4A"/>
<path d="M220.113 232.165C220.056 232.165 219.985 232.165 219.928 232.152L172.525 225.677C171.826 225.584 171.327 224.976 171.441 224.315C171.541 223.668 172.197 223.205 172.909 223.311L220.313 229.787C221.011 229.879 221.51 230.487 221.396 231.148C221.296 231.742 220.74 232.165 220.113 232.165Z" fill="#292B4A"/>
<path d="M225.714 204.916C225.657 204.916 225.586 204.916 225.529 204.902L178.126 198.427C177.427 198.334 176.929 197.727 177.043 197.066C177.142 196.418 177.798 195.956 178.511 196.062L225.914 202.537C226.612 202.629 227.111 203.237 226.997 203.898C226.883 204.48 226.342 204.916 225.714 204.916Z" fill="#292B4A"/>
<path d="M190.639 157.024L195.485 148.051L202.896 149.24L202.255 161.213L196.454 164.2L190.639 157.024Z" fill="#DD9666"/>
<path d="M209.509 149.385C209.509 149.385 219.714 147.179 220.74 143.386C221.767 139.593 218.36 134.228 218.702 132.972C219.044 131.717 213.942 125.717 213.942 125.717L204.749 132.034V148.764L209.509 149.385Z" fill="#DD9666"/>
<path d="M191.338 125.228C191.338 125.228 185.209 134.902 186.121 140.584C187.048 146.267 190.411 149.967 192.563 151.103C194.716 152.24 195.941 152.531 195.941 152.531C195.941 152.531 202.383 152.531 203.31 152.531C204.236 152.531 207.6 150.826 209.139 149.689C210.678 148.553 212.203 145.712 212.203 144.007C212.203 142.302 212.816 141.166 211.89 140.875C210.963 140.584 207.286 141.166 207.6 138.602C207.913 136.038 210.051 134.624 212.203 135.192C214.355 135.761 214.355 135.761 214.355 135.761C214.355 135.761 214.042 131.215 214.968 129.497C215.895 127.792 216.807 127.501 216.807 127.501C216.807 127.501 218.032 124.66 215.581 123.233C213.13 121.805 210.977 120.101 207.6 119.823C204.222 119.532 201.471 120.114 198.706 120.114C195.941 120.114 196.868 117.841 196.868 117.841C196.868 117.841 191.024 121.25 191.338 125.228Z" fill="#292B4A"/>
<path d="M255.046 153.231C255.046 153.231 256.557 151.236 254.618 147.853C252.68 144.456 251.611 142.276 251.825 140.677C252.039 139.078 253.792 137.73 253.792 137.73C253.792 137.73 255.559 143.584 256.214 143.782C256.856 143.981 261.288 145.249 263.654 143.663C266.02 142.064 268.386 138.483 268.172 136.884C268.172 136.884 269.241 135.285 270.538 136.686C271.835 138.087 272.69 140.479 272.904 142.064C273.118 143.663 272.69 146.055 270.538 147.853C268.386 149.65 264.295 151.447 262.585 152.24C260.861 153.033 258.709 156.231 258.709 156.231L255.046 153.231Z" fill="#DD9666"/>
<path d="M170.772 345.155C170.772 345.155 168.178 351.432 166.182 354.723C164.201 358.013 162.577 361.304 165.484 362.202C168.391 363.101 171.285 363.696 173.223 363.405C175.161 363.101 176.444 361.912 177.413 361.317C178.382 360.722 178.71 361.912 179.993 363.405C181.29 364.898 189.67 365.797 193.86 366.696C198.051 367.594 200.317 367.29 199.989 366.101C199.661 364.898 190.312 361.013 187.091 358.33C183.87 355.635 178.71 348.155 178.382 347.269C178.069 346.357 170.772 345.155 170.772 345.155Z" fill="#292B4A"/>
<path d="M134.841 315.249L130.78 322.227L130.323 323.019L137.421 325.411L146.457 318.236L141.284 314.046L134.841 315.249Z" fill="#DD9666"/>
<path d="M125.164 328.702C124.95 330.103 125.378 335.481 124.737 338.072C124.095 340.662 124.523 345.842 127.102 348.644C129.682 351.432 129.041 353.626 131.407 353.824C133.773 354.022 135.711 354.419 136.352 353.428C136.994 352.436 136.352 348.842 137.421 344.851C138.49 340.86 138.932 332.693 139.359 329.297C139.787 325.9 140.428 323.72 140.428 323.72L131.82 322.729L125.164 328.702Z" fill="#292B4A"/>
<path d="M133.117 320.931C133.117 320.931 129.24 319.531 126.661 321.923C124.081 324.315 122.784 331.49 123.653 332.693C124.508 333.896 131.392 336.684 136.552 333.896C136.552 333.896 140.428 322.531 133.117 320.931Z" fill="#292B4A"/>
<path d="M170.757 218.831C170.757 218.831 168.548 222.069 165.997 225.994C163.047 230.553 159.641 236.011 158.714 238.376C156.99 242.764 157.203 254.525 158.287 258.913C159.355 263.3 161.508 280.85 161.508 281.445C161.508 282.039 161.508 280.85 161.508 280.85C161.508 280.85 153.127 286.228 146.243 294.607C139.359 302.985 133.345 316.346 133.345 316.346C133.345 316.346 142.595 317.337 144.091 321.328C144.091 321.328 155.921 311.76 160.011 307.175C164.101 302.589 170.544 292.017 172.482 291.026C174.42 290.034 176.145 288.832 176.145 288.832C176.145 288.832 170.558 304.981 169.261 315.553C167.964 326.125 169.688 346.86 169.688 346.86C169.688 346.86 177.427 349.252 179.793 348.459C179.793 348.459 189.684 316.756 191.837 310.967C193.989 305.179 197.424 292.823 197.637 289.228C197.851 285.634 201.942 255.133 203.224 251.935C204.193 249.543 202.013 236.037 200.687 228.597C200.245 226.126 199.889 224.316 199.789 223.813C199.348 221.831 170.757 218.831 170.757 218.831Z" fill="#DF6A6A"/>
<path opacity="0.23" d="M200.687 228.597C200.245 226.126 199.889 224.316 199.789 223.813C199.362 221.818 170.757 218.831 170.757 218.831C170.757 218.831 168.548 222.069 165.997 225.994C165.997 225.994 189.456 230.394 195.271 229.602C201.072 228.809 200.687 228.597 200.687 228.597Z" fill="black"/>
<path opacity="0.23" d="M176.131 288.832C176.131 288.832 174.406 290.035 172.468 291.026C170.529 292.017 164.087 302.589 159.997 307.175C159.997 307.175 166.239 292.215 168.605 289.03C170.971 285.845 173.551 276.872 173.765 272.881C173.978 268.89 174.406 256.336 174.406 256.336L180.207 257.935C180.207 257.935 176.986 275.683 177.199 280.467C177.413 285.237 176.131 288.832 176.131 288.832Z" fill="black"/>
<path d="M254.404 152.24C254.404 152.24 252.48 154.421 250.114 157.064C246.893 160.671 242.831 165.164 241.72 166.195C239.781 167.992 238.285 170.583 238.285 170.583C238.285 170.583 222.807 163.01 219.144 161.411C215.481 159.812 207.956 157.817 206.032 157.222C204.094 156.627 199.362 155.623 197.423 155.227C197.423 155.227 186.235 154.632 180.221 155.227C174.206 155.821 167.323 160.605 161.721 164.398C156.134 168.191 149.037 171.772 147.954 174.772C146.885 177.758 145.374 178.961 146.885 181.155C148.395 183.348 158.073 199.101 170.33 202.497C170.33 202.497 166.667 216.651 167.964 218.448C169.261 220.245 169.688 221.844 175.489 223.034C181.29 224.236 194.844 226.219 199.362 226.826C203.88 227.421 211.833 214.259 213.985 203.898C216.137 193.524 217.648 187.353 218.93 185.555C218.93 185.555 232.698 190.934 236.347 190.934C240.01 190.934 240.865 191.33 243.017 188.542C245.169 185.754 260.647 156.839 260.647 156.839C260.647 156.839 257.198 152.24 254.404 152.24ZM170.757 190.128C170.757 190.128 170.116 189.731 169.247 188.727C168.391 187.736 163.873 180.957 163.873 180.957L170.757 180.164V190.128Z" fill="white"/>
<path opacity="0.11" d="M250.114 157.064C246.893 160.671 242.831 165.164 241.72 166.195C239.781 167.993 238.285 170.583 238.285 170.583C238.285 170.583 241.948 171.785 243.017 173.979C243.017 173.979 250.328 160.618 250.542 159.218C250.756 157.817 250.114 157.064 250.114 157.064Z" fill="black"/>
<path opacity="0.11" d="M209.994 195.599C208.384 201.585 206.773 208.457 204.835 214.748C202.896 221.025 188.388 225.518 188.388 225.518L199.362 226.813C203.88 227.408 211.833 214.246 213.985 203.885C216.137 193.511 217.648 187.339 218.93 185.542C218.93 185.529 211.605 189.626 209.994 195.599Z" fill="black"/>
<path opacity="0.11" d="M170.757 190.128C170.757 190.128 170.116 189.731 169.247 188.727C168.391 187.736 163.873 180.957 163.873 180.957L170.757 180.164C170.757 180.164 171.399 171.785 171.185 170.794C170.971 169.803 160.866 177.375 159.783 178.974C158.714 180.573 170.971 191.542 170.971 191.542L170.757 190.128Z" fill="black"/>
<path d="M218.688 132.972C218.688 132.972 221.068 137.386 220.954 137.703C220.84 138.02 219.928 138.655 219.372 138.549C218.802 138.443 218.118 134.347 218.118 133.924C218.132 133.501 218.018 132.761 218.688 132.972Z" fill="#A6714D"/>
<path d="M177.513 346.582L176.23 346.45C176.316 345.736 176.444 344.93 176.629 344.032L177.898 344.256C177.712 345.115 177.584 345.895 177.513 346.582ZM178.439 341.944L177.185 341.666C177.385 340.913 177.598 340.133 177.827 339.327L179.066 339.644C178.838 340.437 178.639 341.204 178.439 341.944ZM179.779 337.345L178.539 337.001C178.781 336.248 179.038 335.481 179.295 334.702L180.52 335.059C180.264 335.838 180.021 336.592 179.779 337.345ZM181.318 332.786L180.093 332.416C180.363 331.662 180.634 330.896 180.919 330.143L182.145 330.526C181.86 331.279 181.589 332.032 181.318 332.786ZM182.972 328.253L181.76 327.856C182.045 327.09 182.345 326.337 182.63 325.597L183.841 326.006C183.556 326.746 183.257 327.5 182.972 328.253ZM184.71 323.76L183.499 323.35C183.813 322.57 184.112 321.817 184.397 321.103L185.608 321.526C185.323 322.227 185.024 322.98 184.71 323.76ZM186.52 319.266L185.309 318.844L186.221 316.597L187.433 317.02L186.52 319.266ZM188.345 314.773L187.133 314.35L187.461 313.544C187.604 313.161 187.775 312.685 187.946 312.117L189.186 312.447C189 313.029 188.829 313.544 188.673 313.941L188.345 314.773ZM189.856 310.122L188.601 309.831C188.801 309.104 189 308.324 189.214 307.505L190.468 307.782C190.255 308.602 190.055 309.395 189.856 310.122ZM191.053 305.443L189.798 305.179L190.354 302.84L191.609 303.104L191.053 305.443ZM192.164 300.752L190.896 300.501L191.438 298.162L192.706 298.413L192.164 300.752ZM193.248 296.074L191.979 295.823L192.521 293.47L193.775 293.722L193.248 296.074ZM194.359 291.396L193.105 291.118L193.248 290.563C193.347 290.193 193.476 289.585 193.632 288.792L194.901 289.004C194.744 289.836 194.602 290.471 194.502 290.854L194.359 291.396ZM195.314 286.638L194.046 286.453C194.174 285.726 194.302 284.933 194.431 284.088L195.699 284.259C195.571 285.105 195.442 285.898 195.314 286.638ZM196.084 281.881L194.801 281.709L195.172 279.343L196.454 279.515L196.084 281.881ZM196.811 277.123L195.528 276.965L195.87 274.586L197.153 274.745L196.811 277.123ZM197.509 272.379L196.226 272.22L196.568 269.842L197.851 270L197.509 272.379ZM198.165 267.622L196.882 267.476L197.195 265.097L198.478 265.243L198.165 267.622ZM198.792 262.851L197.509 262.706C197.623 261.833 197.723 261.04 197.794 260.327L199.077 260.459C199.006 261.173 198.906 261.979 198.792 262.851ZM199.348 258.001L198.051 257.974L198.065 257.789C198.093 257.301 198.136 256.547 198.165 255.596L199.462 255.635C199.419 256.6 199.39 257.367 199.348 257.869V258.001ZM199.533 253.217L198.236 253.191L198.293 250.799L199.59 250.825L199.533 253.217ZM199.647 248.42L198.35 248.393L198.393 245.988L199.69 246.015L199.647 248.42ZM199.747 243.623L198.45 243.61L198.492 241.218L199.789 241.231L199.747 243.623ZM199.832 238.826L198.535 238.812L198.578 236.421L199.875 236.434L199.832 238.826ZM199.903 234.029L198.606 234.015L198.635 231.623L199.932 231.637L199.903 234.029ZM199.975 229.231L198.678 229.218L198.706 226.813L200.003 226.826L199.975 229.231Z" fill="white"/>
<path d="M336.669 414.653C336.669 414.653 369.663 414.125 376.718 411.469C383.773 408.812 391.027 407.227 391.783 404.398C392.552 401.57 390.072 390.602 388.733 389.545C387.393 388.487 387.593 387.417 383.388 387.245C379.198 387.073 376.333 385.474 371.943 386.888C367.554 388.302 334.759 404.742 334.759 404.742L336.669 414.653Z" fill="#63536F"/>
<path opacity="0.23" d="M371.958 386.888C367.568 388.302 334.773 404.742 334.773 404.742L336.683 414.64C336.683 414.64 369.677 414.112 376.732 411.455C383.787 408.799 391.042 407.213 391.797 404.385C391.797 404.385 390.001 402.879 384.528 404.068C379.041 405.271 359.045 407.663 354.199 407.055C349.353 406.46 343.225 405.258 347.429 402.866C351.62 400.474 366.143 398.082 369.692 395.095C373.226 392.122 371.958 386.888 371.958 386.888Z" fill="black"/>
<path d="M322.687 338.442C322.687 338.442 315.062 340.569 312.768 342.208C310.473 343.86 303.105 354.934 299.798 358.476C296.492 362.017 288.61 373.33 289.38 375.92C290.149 378.51 303.361 385.818 303.361 385.818L314.293 381.814L312.768 375.444L318.112 370.264C318.112 370.264 318.625 380.4 319.124 383.228C319.637 386.056 329.799 394.315 330.312 395.016C330.825 395.729 336.669 397.368 336.669 397.368L357.777 384.642C357.777 384.642 361.596 374.744 361.839 371.916C362.095 369.088 362.095 366.96 362.095 366.96C362.095 366.96 363.877 373.092 364.889 374.268C365.9 375.444 371.758 380.4 371.758 380.4L383.459 378.986C383.459 378.986 387.778 376.396 388.034 373.568C388.291 370.739 385.498 369.088 382.69 366.022C379.896 362.956 368.708 348.102 364.632 344.098C360.57 340.094 354.969 336.076 350.394 336.076C345.819 336.076 322.687 338.442 322.687 338.442Z" fill="white"/>
<path opacity="0.11" d="M357.777 384.642C357.777 384.642 361.596 374.744 361.839 371.916C362.095 369.088 362.095 366.96 362.095 366.96L357.406 360.009C357.406 360.009 357.62 370.581 356.979 373.964C356.337 377.36 357.777 384.642 357.777 384.642Z" fill="black"/>
<path opacity="0.11" d="M318.112 370.264L312.768 375.444L314.293 381.814L303.361 385.818C303.361 385.818 302.791 378.55 304.729 375.153C306.668 371.757 317.628 359.797 317.628 359.797L318.112 370.264Z" fill="black"/>
<path d="M337.011 397.196C337.011 397.196 321.661 379.924 304.117 369.55L301.58 374.03L337.011 397.196Z" fill="#CCCCCC"/>
<path d="M336.669 397.381C336.669 397.381 311.499 376.158 299.542 371.453L296.919 375.999L336.669 397.381Z" fill="#E6E6E6"/>
<path d="M336.669 398.319C336.669 398.319 308.706 378.285 294.454 374.744V378.048L336.669 398.319Z" fill="#CCCCCC"/>
<path d="M336.926 397.276C336.926 397.276 351.919 379.938 369.464 369.564L372 374.044L336.926 397.276Z" fill="#CCCCCC"/>
<path d="M336.926 397.381C336.926 397.381 362.095 376.158 374.053 371.453L376.675 375.999L336.926 397.381Z" fill="#E6E6E6"/>
<path d="M336.926 398.319C336.926 398.319 364.889 378.285 379.141 374.744V378.048L336.926 398.319Z" fill="#CCCCCC"/>
<path d="M337.011 397.051C337.011 397.051 305.898 380.4 292.173 376.633C292.173 376.633 291.917 380.4 291.917 382.052C291.917 383.704 297.261 388.183 304.373 391.012C311.499 393.84 336.925 403.976 336.925 403.976L337.011 397.051Z" fill="#FFC866"/>
<path d="M336.926 397.157C336.926 397.157 368.309 380.413 382.305 376.633C382.305 376.633 382.562 380.4 382.562 382.052C382.562 383.704 377.117 388.183 369.848 391.012C362.58 393.84 336.655 403.976 336.655 403.976L336.911 397.368" fill="#FFC866"/>
<path d="M382.633 373.62C382.633 373.62 380.409 373.568 379.141 374.744C377.873 375.92 378.314 378.748 379.141 378.047C379.968 377.334 381.607 376.647 381.849 377.532C382.105 378.417 382.633 381.576 381.863 383.175C381.094 384.761 377.573 386.73 377.573 386.73C377.573 386.73 379.953 389.003 382.818 388.659C385.683 388.302 388.918 388.302 390.828 384.946C392.738 381.589 392.168 378.404 390.643 376.105C389.118 373.805 384.913 372.735 382.633 373.62Z" fill="#DD9666"/>
<path d="M338.579 414.997C338.579 414.997 341.444 416.054 344.294 416.94C347.159 417.825 349.824 416.768 349.824 416.768L350.009 413.054C350.009 413.054 347.144 410.927 345.049 410.398C342.954 409.87 339.334 409.341 339.334 409.341L338.579 414.997Z" fill="#DD9666"/>
<path d="M351.734 410.755C351.734 410.755 347.159 410.755 347.159 413.054C347.159 415.354 345.249 416.768 346.774 417.653C348.299 418.539 350.394 419.067 350.394 419.067C350.394 419.067 345.434 417.125 345.049 418.01C344.665 418.896 344.28 419.424 347.344 419.953C350.394 420.481 355.739 420.125 360.114 420.125C364.504 420.125 367.939 420.838 367.739 417.653C367.554 414.468 367.739 414.297 364.119 413.226C360.499 412.169 351.534 409.341 349.24 409.341C346.945 409.341 348.47 409.698 348.47 409.698L346.375 410.583L351.734 410.755Z" fill="#292B4A"/>
<path d="M342.099 406.923C342.099 406.923 310.744 387.774 304.259 387.06C297.774 386.347 292.244 388.302 290.149 389.716C288.054 391.13 283.85 394.487 283.665 399.615C283.479 404.742 284.805 411.812 290.335 411.997C295.865 412.169 337.624 418.367 337.624 418.367C337.624 418.367 342.84 414.786 342.427 408.865C342.384 408.244 342.27 407.597 342.099 406.923Z" fill="#63536F"/>
<path opacity="0.23" d="M342.427 408.865C342.384 408.244 342.27 407.597 342.099 406.923C342.099 406.923 310.744 387.774 304.259 387.06C297.774 386.347 292.244 388.302 290.149 389.716C288.054 391.13 283.85 394.487 283.665 399.615C283.665 399.615 287.969 394.302 295.28 394.104C302.592 393.906 320.649 400.487 326.037 402.681C331.396 404.874 342.427 408.865 342.427 408.865Z" fill="black"/>
<path d="M326.179 340.913C326.179 340.913 322.744 339.671 321.604 337.028C320.464 334.371 320.464 332.257 320.835 328.887C321.219 325.53 324.269 321.288 327.704 320.046C331.139 318.804 333.804 318.275 333.804 318.275C333.804 318.275 331.51 317.562 332.464 316.861C333.419 316.148 333.234 317.575 336.085 317.39C338.949 317.218 339.135 317.218 340.474 317.033C341.814 316.861 345.434 315.447 348.299 318.976C351.164 322.517 354.214 326.931 354.784 330.473C355.354 334.015 355.924 338.785 353.829 340.027C351.734 341.27 348.869 342.855 348.869 342.855L338.379 344.098L326.179 340.913Z" fill="#292B4A"/>
<path d="M325.039 336.671C325.039 336.671 327.334 342.855 328.274 344.626C329.229 346.397 332.094 350.639 333.049 351.34C334.004 352.053 338.964 352.225 340.873 352.225C342.783 352.225 346.019 349.926 346.973 348.34C347.928 346.754 350.793 340.913 350.793 339.856C350.793 338.798 353.843 337.556 353.843 336.314C353.843 335.072 354.028 333.658 352.503 333.843C350.978 334.014 350.209 334.371 350.209 334.371L347.159 328.715C347.159 328.715 337.624 327.658 337.054 327.658C336.484 327.658 327.334 329.429 327.334 329.429L325.039 336.671Z" fill="#DD9666"/>
<path d="M323.129 332.244C323.129 332.244 324.469 338.613 325.794 339.314C327.134 340.027 326.935 338.785 327.704 337.728C328.474 336.671 329.044 335.6 329.044 335.6C329.044 335.6 328.659 337.186 330.184 336.658C331.709 336.129 332.094 334.715 332.094 334.715C332.094 334.715 332.279 336.129 333.619 335.6C334.959 335.072 336.669 331.887 336.669 331.887C336.669 331.887 335.899 334.186 337.239 333.658C338.579 333.129 340.859 332.6 342.584 332.072C344.294 331.543 345.064 331.015 345.064 331.015C345.064 331.015 345.064 332.257 345.833 332.257C346.603 332.257 347.543 332.614 348.313 333.499C349.083 334.385 350.223 334.385 350.223 334.385C350.223 334.385 353.088 333.671 351.748 330.499C350.408 327.314 347.928 324.13 346.403 323.958C344.878 323.786 331.723 323.244 331.723 323.244L325.809 326.244L323.129 332.244Z" fill="#292B4A"/>
<path d="M335.914 343.212C335.914 343.212 335.144 345.868 336.298 346.04C337.439 346.212 339.163 346.569 339.163 345.868C339.163 345.155 339.548 343.04 338.593 343.04C337.624 343.027 336.484 342.327 335.914 343.212Z" fill="#A6714D"/>
<path d="M293.385 370.792C293.385 370.792 290.52 369.907 288.81 370.079C287.099 370.251 283.85 376.263 283.094 378.391C282.325 380.519 281.954 383.69 285.959 385.99C289.964 388.289 293.784 389.531 295.309 389.346C296.834 389.175 298.743 388.633 298.743 388.633C298.743 388.633 293.399 383.505 293.028 381.378C292.643 379.25 292.259 377.492 293.413 376.607C294.553 375.722 294.368 377.136 294.368 377.136L294.496 374.717C294.468 374.744 295.095 370.792 293.385 370.792Z" fill="#DD9666"/>
</svg>
