<svg width="126" height="103" viewBox="0 0 126 103" fill="none" xmlns="http://www.w3.org/2000/svg">
<g clip-path="url(#clip0)" filter="url(#filter0_d)">
<path d="M88.4114 10.1236C83.7723 10.919 59.2768 15.6664 48.5717 28.9612L47.0216 29.4679C27.4902 19.7552 10.17 39.3377 5.87454 44.7589C5.28438 45.5037 5.2022 46.7349 5.68031 47.6165L31.5093 95.2478C31.9762 96.1142 32.8465 96.3827 33.5412 95.8761C58.6941 77.5602 71.9504 80.0834 74.9759 81.0511C75.4652 81.2082 75.9769 81.2031 76.4662 81.041L76.597 81.0005C76.9892 80.8738 77.3552 80.6509 77.6876 80.3418C80.6646 77.5602 97.0173 63.019 118.965 57.8004C120.146 57.5218 120.616 55.566 119.798 54.3805L89.6963 10.7619C89.3714 10.2755 88.8933 10.0425 88.4114 10.1236Z" fill="#FF9C2A"/>
<path d="M88.4562 6.653C88.4562 6.653 67.0273 3.09623 47.847 25.6174L76.4811 77.4539C76.4811 77.4539 95.2692 58.9101 121.024 53.8435L88.4562 6.653Z" fill="white"/>
<path d="M47.847 25.6173C25.2938 14.3998 5.68399 42.251 5.68399 42.251L33.1602 92.9171C62.9223 70.7862 76.4849 77.4538 76.4849 77.4538L47.847 25.6173Z" fill="white"/>
<path d="M53.801 27.6287C53.6964 27.6287 53.5918 27.5578 53.532 27.4261C53.4386 27.2234 53.4835 26.9549 53.6329 26.8282C63.5648 18.3822 78.5243 10.7316 87.8959 12.4542C88.0715 12.4846 88.191 12.7025 88.1686 12.9406C88.1462 13.1787 87.9856 13.3409 87.81 13.3105C79.671 11.8209 65.4399 17.8096 53.9728 27.5629C53.9205 27.6085 53.8607 27.6287 53.801 27.6287Z" fill="#899B9A"/>
<path d="M57.4166 34.3016C57.312 34.3016 57.2112 34.2306 57.1514 34.109C57.0543 33.9114 57.0954 33.6429 57.2411 33.5112C67.412 24.4318 81.0829 18.5646 92.0681 18.5646C92.2437 18.5646 92.3856 18.7572 92.3856 18.9953C92.3856 19.2334 92.2437 19.426 92.0681 19.426C81.1987 19.426 67.666 25.2374 57.5922 34.2306C57.5399 34.2813 57.4764 34.3016 57.4166 34.3016Z" fill="#899B9A"/>
<path d="M61.2975 41.3289C61.1929 41.3289 61.0921 41.258 61.0286 41.1313C60.9315 40.9287 60.9763 40.6652 61.122 40.5335C72.8953 30.2229 89.136 25.5819 96.909 25.5819C97.0845 25.5819 97.2265 25.7744 97.2265 26.0126C97.2265 26.2507 97.0845 26.4432 96.909 26.4432C89.2145 26.4432 73.1306 31.0387 61.4656 41.2529C61.417 41.3036 61.3573 41.3289 61.2975 41.3289Z" fill="#899B9A"/>
<path d="M65.1746 48.3461C65.0663 48.3461 64.9617 48.2701 64.902 48.1333C64.8123 47.9307 64.8609 47.6621 65.014 47.5405C85.2253 31.2007 101.671 32.5738 101.836 32.589C102.011 32.6042 102.142 32.8119 102.131 33.05C102.12 33.2882 101.966 33.4706 101.791 33.4503C101.627 33.4351 85.3709 32.0874 65.3427 48.2853C65.2867 48.3259 65.2307 48.3461 65.1746 48.3461Z" fill="#899B9A"/>
<path d="M69.3058 55.8245C69.2199 55.8245 69.1377 55.7789 69.0742 55.6877C68.9547 55.5155 68.9584 55.2419 69.0891 55.0747C80.3994 40.6298 106.471 39.8191 106.733 39.814C106.893 39.814 107.054 40.0015 107.058 40.2396C107.061 40.4778 106.919 40.6754 106.744 40.6804C106.482 40.6855 80.6571 41.4911 69.5262 55.708C69.4627 55.784 69.3842 55.8245 69.3058 55.8245Z" fill="#899B9A"/>
<path d="M75.2971 75.7362C75.1999 75.7362 75.1028 75.6754 75.0431 75.5639L48.4596 27.4361C48.355 27.2436 48.3812 26.975 48.5231 26.8332C48.665 26.6913 48.863 26.7268 48.9676 26.9193L75.551 75.0471C75.6556 75.2396 75.6295 75.5082 75.4876 75.65C75.4315 75.7108 75.3643 75.7362 75.2971 75.7362Z" fill="#E2D6B3"/>
<path d="M11.6715 43.6139C11.5782 43.6139 11.4848 43.5582 11.4213 43.4518C11.3092 43.2643 11.3316 42.9958 11.4698 42.8438C23.486 29.701 35.2706 25.0245 46.5023 28.941C46.6742 29.0018 46.775 29.2349 46.7302 29.4679C46.6854 29.701 46.5136 29.8378 46.3417 29.777C35.3191 25.9314 23.7176 30.5522 11.8695 43.5177C11.8097 43.5835 11.7388 43.6139 11.6715 43.6139Z" fill="#899B9A"/>
<path d="M15.3022 50.3121C15.2088 50.3121 15.1191 50.2563 15.0556 50.155C14.9436 49.9675 14.966 49.699 15.1005 49.547C21.6632 42.2916 34.9606 30.8765 50.2899 35.9482C50.4617 36.0039 50.5663 36.237 50.5252 36.4701C50.4841 36.7031 50.3123 36.845 50.1404 36.7893C35.0801 31.8139 21.9732 43.0668 15.5039 50.2209C15.4441 50.2817 15.3731 50.3121 15.3022 50.3121Z" fill="#899B9A"/>
<path d="M18.9216 56.9848C18.8282 56.9848 18.7385 56.929 18.675 56.8277C18.563 56.6453 18.5817 56.3717 18.7199 56.2197C22.739 51.7307 37.1606 37.4884 53.9915 42.7628C54.1633 42.8185 54.2716 43.0465 54.2305 43.2796C54.1894 43.5126 54.0213 43.6596 53.8495 43.6038C37.3025 38.4207 23.0901 52.4603 19.127 56.8885C19.0635 56.9544 18.9925 56.9848 18.9216 56.9848Z" fill="#899B9A"/>
<path d="M22.541 63.6575C22.4513 63.6575 22.358 63.6068 22.2945 63.5004C22.1824 63.318 22.2011 63.0444 22.3355 62.8924C25.1332 59.7309 39.9881 44.227 57.6183 49.4558C57.7901 49.5064 57.8985 49.7395 57.8611 49.9726C57.8237 50.2056 57.6519 50.3525 57.4801 50.3019C40.1413 45.1593 25.4993 60.4453 22.7427 63.5562C22.6829 63.6271 22.6119 63.6575 22.541 63.6575Z" fill="#899B9A"/>
<path d="M26.9672 71.8248C26.8776 71.8248 26.7879 71.7741 26.7244 71.6728C26.6124 71.4904 26.6273 71.2168 26.7618 71.0648C32.0172 65.0761 47.3652 53.5647 61.2452 56.1892C61.4208 56.2196 61.5403 56.4425 61.5179 56.6756C61.4918 56.9137 61.3311 57.0809 61.1593 57.0455C47.4922 54.4615 32.3608 65.8208 27.1726 71.7285C27.1129 71.7893 27.0382 71.8248 26.9672 71.8248Z" fill="#899B9A"/>
<path d="M94.2831 6.85557L95.004 7.83343C96.1844 9.43448 96.1844 12.0286 95.004 13.6296L54.6526 68.3593L49.6586 61.5852L90.0101 6.85557C91.1904 5.25452 93.1028 5.25452 94.2831 6.85557Z" fill="#F9C800"/>
<path d="M54.6526 68.3592L44.7729 75.6045C44.4816 75.8173 44.1604 75.3867 44.3173 74.9864L49.6586 61.5852C49.6586 61.5852 50.7904 61.1596 52.8783 63.9918C54.9701 66.8241 54.6526 68.3592 54.6526 68.3592Z" fill="#EAB7A7"/>
<path d="M46.9155 68.4708L44.3195 74.9865C44.1626 75.3817 44.4801 75.8174 44.7752 75.6046L49.4853 72.1543C49.3845 71.5665 49.1342 70.7305 48.5254 69.9047C47.9091 69.0687 47.3226 68.6684 46.9155 68.4708Z" fill="#345454"/>
</g>
<defs>
<filter id="filter0_d" x="-4" y="0" width="132" height="103" filterUnits="userSpaceOnUse" color-interpolation-filters="sRGB">
<feFlood flood-opacity="0" result="BackgroundImageFix"/>
<feColorMatrix in="SourceAlpha" type="matrix" values="0 0 0 0 0 0 0 0 0 0 0 0 0 0 0 0 0 0 127 0" result="hardAlpha"/>
<feOffset dy="4"/>
<feGaussianBlur stdDeviation="2"/>
<feComposite in2="hardAlpha" operator="out"/>
<feColorMatrix type="matrix" values="0 0 0 0 0 0 0 0 0 0 0 0 0 0 0 0 0 0 0.25 0"/>
<feBlend mode="normal" in2="BackgroundImageFix" result="effect1_dropShadow"/>
<feBlend mode="normal" in="SourceGraphic" in2="effect1_dropShadow" result="shape"/>
</filter>
<clipPath id="clip0">
<rect width="124" height="95" fill="white"/>
</clipPath>
</defs>
</svg>
