<svg width="119" height="88" viewBox="0 0 119 88" fill="none" xmlns="http://www.w3.org/2000/svg">
<g filter="url(#filter0_d)">
<path d="M112.918 7.22065C112.381 6.92725 99.6096 0 85.4381 0C73.5343 0 62.618 4.88836 59.1135 6.6239C55.609 4.88836 44.6927 0 32.7888 0C18.6221 0 5.84575 6.92725 5.3088 7.22065C4.50339 7.66324 4 8.53349 4 9.47835V71.013C4 71.4854 4.12465 71.9429 4.35956 72.3457L7.88326 78.3281C8.37705 79.1686 9.19685 79.7554 10.1317 79.9394C11.0762 80.1234 12.0542 79.8847 12.8212 79.278C17.5722 75.5334 28.8049 74.5388 32.784 74.4642C36.7584 74.5338 47.9815 75.5234 52.7469 79.278C53.5139 79.8847 54.4919 80.1234 55.4364 79.9394C56.3712 79.7554 61.8462 79.7554 62.781 79.9394C62.9872 79.9791 63.1981 79.999 63.4043 79.999C64.1426 79.999 64.8713 79.7504 65.4705 79.278C70.2215 75.5334 81.4542 74.5388 85.4333 74.4642C89.4125 74.5338 100.645 75.5334 105.396 79.278C106.163 79.8847 107.146 80.1234 108.086 79.9394C109.021 79.7554 109.84 79.1686 110.334 78.3281L113.863 72.3457C114.098 71.9429 114.222 71.4854 114.222 71.013V9.47835C114.227 8.53349 113.724 7.66324 112.918 7.22065Z" fill="#46969E"/>
<path d="M6.46417 71.0129L9.98787 76.9953C10.2755 77.4827 10.8988 77.5871 11.335 77.239C17.8071 72.1418 32.7888 71.9081 32.7888 71.9081C32.7888 71.9081 47.7705 72.1418 54.2426 77.239C54.6789 77.5821 55.3021 77.4777 55.5898 76.9953L59.1135 71.0129C29.8212 56.7855 6.46417 71.0129 6.46417 71.0129Z" fill="#E2D6B3"/>
<path d="M85.4381 2.55609C71.7173 2.55609 59.1135 9.47837 59.1135 9.47837C59.1135 9.47837 46.5097 2.55609 32.7888 2.55609C19.068 2.55609 6.46417 9.47837 6.46417 9.47837V71.013C6.46417 71.013 29.8212 56.7806 59.1135 71.013C88.4057 56.7806 111.763 71.013 111.763 71.013V9.47837C111.768 9.47837 99.159 2.55609 85.4381 2.55609Z" fill="white"/>
<path d="M111.768 71.0129L108.244 76.9953C107.956 77.4827 107.333 77.5871 106.897 77.239C100.425 72.1418 85.4429 71.9081 85.4429 71.9081C85.4429 71.9081 70.4612 72.1418 63.9891 77.239C63.5529 77.5821 62.9296 77.4777 62.642 76.9953L59.1183 71.0129C88.4057 56.7855 111.768 71.0129 111.768 71.0129Z" fill="#E2D6B3"/>
<path d="M54.2426 16.7487C54.1467 16.7487 54.0556 16.7189 53.9741 16.6543C47.6986 11.7062 32.9326 11.4178 32.784 11.4178C32.6498 11.4178 17.8886 11.7112 11.6083 16.6543C11.4117 16.8084 11.1289 16.7686 10.9802 16.5647C10.8316 16.3608 10.87 16.0674 11.0665 15.9133C17.577 10.7813 32.1656 10.4978 32.784 10.4879C33.4168 10.4978 48.0006 10.7862 54.5159 15.9133C54.7124 16.0674 54.7508 16.3608 54.6022 16.5647C54.5111 16.6841 54.3768 16.7487 54.2426 16.7487Z" fill="#899B9A"/>
<path d="M54.2426 25.2523C54.1467 25.2523 54.0556 25.2224 53.9741 25.1578C47.6986 20.2098 32.9326 19.9213 32.784 19.9213C32.6498 19.9213 17.8886 20.2147 11.6083 25.1578C11.4117 25.3119 11.1289 25.2722 10.9802 25.0683C10.8316 24.8644 10.87 24.571 11.0665 24.4168C17.577 19.2848 32.1656 19.0013 32.784 18.9914C33.4168 19.0013 48.0006 19.2898 54.5159 24.4168C54.7124 24.571 54.7508 24.8644 54.6022 25.0683C54.5111 25.1926 54.3768 25.2523 54.2426 25.2523Z" fill="#899B9A"/>
<path d="M54.2426 33.761C54.1467 33.761 54.0556 33.7312 53.9741 33.6665C47.6986 28.7185 32.9326 28.4301 32.784 28.4301C32.6498 28.4301 17.8886 28.7235 11.6083 33.6665C11.4117 33.8207 11.1289 33.7809 10.9802 33.577C10.8316 33.3731 10.87 33.0797 11.0665 32.9256C17.577 27.7985 32.1656 27.5101 32.7792 27.5001C33.412 27.5101 47.9958 27.7985 54.5111 32.9256C54.7076 33.0797 54.746 33.3731 54.5974 33.577C54.5111 33.6964 54.3768 33.761 54.2426 33.761Z" fill="#899B9A"/>
<path d="M54.2426 42.2696C54.1467 42.2696 54.0556 42.2398 53.9741 42.1752C47.6938 37.2271 32.9326 36.9387 32.784 36.9387C32.6498 36.9387 17.8838 37.2321 11.6083 42.1752C11.4117 42.3293 11.1289 42.2895 10.9802 42.0856C10.8316 41.8818 10.87 41.5884 11.0665 41.4342C17.577 36.3022 32.1656 36.0137 32.7792 36.0038C33.412 36.0137 47.9958 36.3022 54.5111 41.4292C54.7076 41.5834 54.746 41.8768 54.5974 42.0807C54.5111 42.205 54.3768 42.2696 54.2426 42.2696Z" fill="#899B9A"/>
<path d="M54.2426 50.7733C54.1467 50.7733 54.0556 50.7434 53.9741 50.6788C47.6986 45.7308 32.9326 45.4423 32.784 45.4423C32.6498 45.4423 17.8886 45.7357 11.6083 50.6788C11.4117 50.8329 11.1289 50.7932 10.9802 50.5893C10.8316 50.3854 10.87 50.092 11.0665 49.9378C17.577 44.8058 32.1656 44.5223 32.784 44.5124C33.4168 44.5223 48.0006 44.8108 54.5159 49.9378C54.7124 50.092 54.7508 50.3854 54.6022 50.5893C54.5111 50.7086 54.3768 50.7733 54.2426 50.7733Z" fill="#899B9A"/>
<path d="M54.2426 59.2819C54.1467 59.2819 54.0556 59.2521 53.9741 59.1875C47.6938 54.2394 32.9326 53.951 32.784 53.951C32.6498 53.951 17.8838 54.2444 11.6083 59.1875C11.4117 59.3416 11.1289 59.3018 10.9802 59.0979C10.8316 58.8941 10.87 58.6007 11.0665 58.4465C17.577 53.3145 32.1656 53.031 32.784 53.0211C33.4168 53.031 48.0006 53.3194 54.5159 58.4465C54.7124 58.6007 54.7508 58.8941 54.6022 59.0979C54.5111 59.2173 54.3768 59.2819 54.2426 59.2819Z" fill="#899B9A"/>
<path d="M106.892 42.9111C100.42 37.8139 85.4382 37.5802 85.4382 37.5802C85.4382 37.5802 70.4565 37.8139 63.9844 42.9111V16.2862C70.4565 11.189 85.4382 10.9553 85.4382 10.9553C85.4382 10.9553 100.42 11.189 106.892 16.2862V42.9111Z" fill="#E2D6B3"/>
<path d="M63.9891 50.7733C63.8549 50.7733 63.7206 50.7086 63.6296 50.5893C63.4809 50.3854 63.5193 50.092 63.7159 49.9378C70.2263 44.8058 84.8149 44.5223 85.4333 44.5124C86.0662 44.5223 100.65 44.8108 107.165 49.9378C107.362 50.092 107.4 50.3854 107.251 50.5893C107.103 50.7932 106.82 50.8329 106.623 50.6788C100.343 45.7308 85.5819 45.4423 85.4333 45.4423C85.2991 45.4423 70.5331 45.7357 64.2576 50.6788C64.1761 50.7434 64.0802 50.7733 63.9891 50.7733Z" fill="#899B9A"/>
<path d="M63.9891 59.2819C63.8549 59.2819 63.7206 59.2173 63.6343 59.0979C63.4857 58.8941 63.5241 58.6007 63.7206 58.4465C70.2311 53.3145 84.8197 53.031 85.4381 53.0211C86.0709 53.031 100.655 53.3194 107.17 58.4465C107.367 58.6007 107.405 58.8941 107.256 59.0979C107.108 59.3018 106.825 59.3416 106.628 59.1875C100.348 54.2394 85.5867 53.951 85.4381 53.951C85.3039 53.951 70.5379 54.2444 64.2624 59.1875C64.1761 59.2471 64.0802 59.2819 63.9891 59.2819Z" fill="#899B9A"/>
<path d="M59.1134 71.4804C58.8641 71.4804 58.6676 71.2715 58.6676 71.0179V9.47829C58.6676 9.2197 58.8689 9.01581 59.1134 9.01581C59.3627 9.01581 59.5593 9.22467 59.5593 9.47829V71.013C59.5641 71.2715 59.3627 71.4804 59.1134 71.4804Z" fill="#E2D6B3"/>
</g>
<defs>
<filter id="filter0_d" x="0" y="0" width="118.222" height="88" filterUnits="userSpaceOnUse" color-interpolation-filters="sRGB">
<feFlood flood-opacity="0" result="BackgroundImageFix"/>
<feColorMatrix in="SourceAlpha" type="matrix" values="0 0 0 0 0 0 0 0 0 0 0 0 0 0 0 0 0 0 127 0" result="hardAlpha"/>
<feOffset dy="4"/>
<feGaussianBlur stdDeviation="2"/>
<feComposite in2="hardAlpha" operator="out"/>
<feColorMatrix type="matrix" values="0 0 0 0 0 0 0 0 0 0 0 0 0 0 0 0 0 0 0.25 0"/>
<feBlend mode="normal" in2="BackgroundImageFix" result="effect1_dropShadow"/>
<feBlend mode="normal" in="SourceGraphic" in2="effect1_dropShadow" result="shape"/>
</filter>
</defs>
</svg>
