<svg width="117" height="88" viewBox="0 0 117 88" fill="none" xmlns="http://www.w3.org/2000/svg">
<g filter="url(#filter0_d)">
<path d="M104.158 26.6706H4V53.3412H104.158V26.6706Z" fill="#61B579"/>
<path d="M90.0627 26.6706H85.3173V53.3412H90.0627V26.6706Z" fill="#F8B8A7"/>
<path d="M12.2715 66.6647C12.2715 74.0288 16.9119 80 22.6348 80H111.657C112.397 80 113 79.2242 113 78.2721C113 77.32 112.397 76.5442 111.657 76.5442H22.9271C18.6841 76.5442 15.2494 72.1187 15.2494 66.6647C15.2494 61.2048 18.6886 56.7852 22.9271 56.7852H111.653C112.393 56.7852 112.995 56.0094 112.995 55.0573C112.995 54.1052 112.393 53.3294 111.653 53.3294H22.6348C16.9119 53.3294 12.2715 59.3006 12.2715 66.6647Z" fill="#3588CC"/>
<path d="M22.9271 76.5442H110.817V56.7852H22.9271C18.6841 56.7852 15.2494 61.2107 15.2494 66.6647C15.2494 72.1246 18.6886 76.5442 22.9271 76.5442Z" fill="white"/>
<path d="M108.063 61.0461H17.9442C17.7569 61.0461 17.6062 60.8521 17.6062 60.6112C17.6062 60.3702 17.7569 60.1763 17.9442 60.1763H108.063C108.25 60.1763 108.401 60.3702 108.401 60.6112C108.401 60.8521 108.25 61.0461 108.063 61.0461Z" fill="#B3B3B3"/>
<path d="M108.063 65.1366H17.9442C17.7569 65.1366 17.6062 64.9427 17.6062 64.7017C17.6062 64.4607 17.7569 64.2668 17.9442 64.2668H108.063C108.25 64.2668 108.401 64.4607 108.401 64.7017C108.401 64.9368 108.25 65.1366 108.063 65.1366Z" fill="#B3B3B3"/>
<path d="M108.063 69.2213H17.9442C17.7569 69.2213 17.6062 69.0273 17.6062 68.7864C17.6062 68.5454 17.7569 68.3514 17.9442 68.3514H108.063C108.25 68.3514 108.401 68.5454 108.401 68.7864C108.401 69.0273 108.25 69.2213 108.063 69.2213Z" fill="#B3B3B3"/>
<path d="M108.063 73.3118H17.9442C17.7569 73.3118 17.6062 73.1179 17.6062 72.8769C17.6062 72.636 17.7569 72.442 17.9442 72.442H108.063C108.25 72.442 108.401 72.636 108.401 72.8769C108.401 73.1179 108.25 73.3118 108.063 73.3118Z" fill="#B3B3B3"/>
<path d="M112.429 0H12.2715V26.6706H112.429V0Z" fill="#FFCC22"/>
<path d="M98.3342 0H93.5887V26.6706H98.3342V0Z" fill="#E26438"/>
</g>
<defs>
<filter id="filter0_d" x="0" y="0" width="117" height="88" filterUnits="userSpaceOnUse" color-interpolation-filters="sRGB">
<feFlood flood-opacity="0" result="BackgroundImageFix"/>
<feColorMatrix in="SourceAlpha" type="matrix" values="0 0 0 0 0 0 0 0 0 0 0 0 0 0 0 0 0 0 127 0" result="hardAlpha"/>
<feOffset dy="4"/>
<feGaussianBlur stdDeviation="2"/>
<feComposite in2="hardAlpha" operator="out"/>
<feColorMatrix type="matrix" values="0 0 0 0 0 0 0 0 0 0 0 0 0 0 0 0 0 0 0.25 0"/>
<feBlend mode="normal" in2="BackgroundImageFix" result="effect1_dropShadow"/>
<feBlend mode="normal" in="SourceGraphic" in2="effect1_dropShadow" result="shape"/>
</filter>
</defs>
</svg>
